<?xml version="1.0" encoding="utf-8"?>
<!-- Generator: Adobe Illustrator 16.0.0, SVG Export Plug-In . SVG Version: 6.00 Build 0)  -->
<!DOCTYPE svg PUBLIC "-//W3C//DTD SVG 1.1//EN" "http://www.w3.org/Graphics/SVG/1.1/DTD/svg11.dtd">
<svg version="1.1" id="Layer_1" xmlns="http://www.w3.org/2000/svg" xmlns:xlink="http://www.w3.org/1999/xlink" x="0px" y="0px"
	 width="21.992px" height="21.889px" viewBox="0 0 21.992 21.889" enable-background="new 0 0 21.992 21.889" xml:space="preserve">
<g id="calendar_1_">
	<path fill="#AFAFAF" d="M17.947,4.228h-2.26V3.186c0-0.287-0.23-0.52-0.521-0.52c-0.287,0-0.52,0.233-0.52,0.52v1.042H11.52V3.186
		c0-0.287-0.232-0.52-0.52-0.52c-0.288,0-0.521,0.233-0.521,0.52v1.042H7.352V3.186c0-0.287-0.232-0.52-0.52-0.52
		s-0.521,0.233-0.521,0.52v1.042H4.054c-0.767,0-1.389,0.622-1.389,1.39v12.329c0,0.766,0.622,1.389,1.389,1.389h13.894
		c0.766,0,1.387-0.623,1.387-1.389V5.618C19.334,4.85,18.713,4.228,17.947,4.228z M18.292,17.947c0,0.192-0.157,0.347-0.345,0.347
		H4.054c-0.192,0-0.348-0.154-0.348-0.347V5.618c0-0.192,0.156-0.347,0.348-0.347h2.257v1.042c0,0.287,0.233,0.52,0.521,0.52
		s0.52-0.233,0.52-0.52V5.271h3.127v1.042c0,0.287,0.234,0.52,0.521,0.52c0.287,0,0.52-0.233,0.52-0.52V5.271h3.127v1.042
		c0,0.287,0.232,0.52,0.52,0.52c0.291,0,0.521-0.233,0.521-0.52V5.271h2.26c0.188,0,0.345,0.155,0.345,0.347V17.947z"/>
	<rect x="6.311" y="8.917" fill="#AFAFAF" width="2.083" height="1.563"/>
	<rect x="6.311" y="11.521" fill="#AFAFAF" width="2.083" height="1.564"/>
	<rect x="6.311" y="14.126" fill="#AFAFAF" width="2.083" height="1.563"/>
	<rect x="9.958" y="14.126" fill="#AFAFAF" width="2.083" height="1.563"/>
	<rect x="9.958" y="11.521" fill="#AFAFAF" width="2.083" height="1.564"/>
	<rect x="9.958" y="8.917" fill="#AFAFAF" width="2.083" height="1.563"/>
	<rect x="13.604" y="14.126" fill="#AFAFAF" width="2.084" height="1.563"/>
	<rect x="13.604" y="11.521" fill="#AFAFAF" width="2.084" height="1.564"/>
	<rect x="13.604" y="8.917" fill="#AFAFAF" width="2.084" height="1.563"/>
</g>
</svg>
