<?xml version="1.0" encoding="utf-8"?>
<!-- Generator: Adobe Illustrator 16.0.0, SVG Export Plug-In . SVG Version: 6.00 Build 0)  -->
<!DOCTYPE svg PUBLIC "-//W3C//DTD SVG 1.1//EN" "http://www.w3.org/Graphics/SVG/1.1/DTD/svg11.dtd">
<svg version="1.1" id="Layer_1" xmlns="http://www.w3.org/2000/svg" xmlns:xlink="http://www.w3.org/1999/xlink" x="0px" y="0px"
	 width="21.992px" height="21.889px" viewBox="0 0 21.992 21.889" enable-background="new 0 0 21.992 21.889" xml:space="preserve">
<g id="calendar_1_">
	<path fill="#FFFFFF" d="M18.294,3.889h-2.372V2.795c0-0.302-0.242-0.545-0.548-0.545c-0.302,0-0.546,0.242-0.546,0.545v1.095
		h-3.283V2.795c0-0.302-0.242-0.545-0.545-0.545c-0.304,0-0.548,0.242-0.548,0.545v1.095H7.169V2.795
		c0-0.302-0.243-0.545-0.546-0.545S6.076,2.492,6.076,2.795v1.095h-2.37c-0.805,0-1.458,0.652-1.458,1.461v12.946
		c0,0.803,0.653,1.457,1.458,1.457h14.589c0.805,0,1.456-0.654,1.456-1.457V5.349C19.75,4.542,19.098,3.889,18.294,3.889z
		 M18.656,18.296c0,0.199-0.165,0.363-0.362,0.363H3.706c-0.201,0-0.365-0.162-0.365-0.363V5.349c0-0.202,0.164-0.366,0.365-0.366
		h2.37v1.094c0,0.302,0.244,0.548,0.547,0.548S7.169,6.38,7.169,6.077V4.984h3.283v1.094c0,0.302,0.246,0.548,0.548,0.548
		c0.301,0,0.545-0.245,0.545-0.548V4.984h3.283v1.094c0,0.302,0.244,0.548,0.548,0.548c0.306,0,0.548-0.245,0.548-0.548V4.984h2.373
		c0.198,0,0.362,0.163,0.362,0.366L18.656,18.296L18.656,18.296z"/>
	<rect x="6.076" y="8.813" fill="#FFFFFF" width="2.188" height="1.641"/>
	<rect x="6.076" y="11.546" fill="#FFFFFF" width="2.188" height="1.643"/>
	<rect x="6.076" y="14.282" fill="#FFFFFF" width="2.188" height="1.641"/>
	<rect x="9.905" y="14.282" fill="#FFFFFF" width="2.188" height="1.641"/>
	<rect x="9.905" y="11.546" fill="#FFFFFF" width="2.188" height="1.643"/>
	<rect x="9.905" y="8.813" fill="#FFFFFF" width="2.188" height="1.641"/>
	<rect x="13.733" y="14.282" fill="#FFFFFF" width="2.188" height="1.641"/>
	<rect x="13.733" y="11.546" fill="#FFFFFF" width="2.188" height="1.643"/>
	<rect x="13.733" y="8.813" fill="#FFFFFF" width="2.188" height="1.641"/>
</g>
</svg>
