<?xml version="1.0" encoding="utf-8"?>
<!-- Generator: Adobe Illustrator 16.0.0, SVG Export Plug-In . SVG Version: 6.00 Build 0)  -->
<!DOCTYPE svg PUBLIC "-//W3C//DTD SVG 1.1//EN" "http://www.w3.org/Graphics/SVG/1.1/DTD/svg11.dtd">
<svg version="1.1" id="Layer_1" xmlns="http://www.w3.org/2000/svg" xmlns:xlink="http://www.w3.org/1999/xlink" x="0px" y="0px"
	 width="195px" height="75px" viewBox="0 0 195 75" enable-background="new 0 0 195 75" xml:space="preserve">
<g>
	<g>
		
			<linearGradient id="SVGID_1_" gradientUnits="userSpaceOnUse" x1="-2089.3921" y1="1331.8662" x2="-2089.3921" y2="1332.8701" gradientTransform="matrix(7.0867 0 0 7.0867 14904.624 -9426.2207)">
			<stop  offset="0" style="stop-color:#0000A9"/>
			<stop  offset="1" style="stop-color:#000064"/>
		</linearGradient>
		<path fill="url(#SVGID_1_)" d="M94.624,14.741c0.451,0.612,1.205,0.995,1.967,0.995l0.056-0.001
			c0.391-0.001,0.786-0.124,1.093-0.336c0.311-0.21,0.561-0.518,0.703-0.865c0.07-0.182,0.115-0.361,0.131-0.535
			c0.02-0.205,0.009-0.381-0.03-0.543c-0.086-0.348-0.303-0.662-0.594-0.859c-0.158-0.108-0.336-0.183-0.519-0.218
			c0.181,0.064,0.345,0.164,0.477,0.291c0.46,0.424,0.544,1.132,0.206,1.723c-0.271,0.47-0.772,0.762-1.306,0.762
			c-0.055,0-0.11-0.003-0.158-0.009c-0.285-0.027-0.563-0.122-0.808-0.274c-0.226-0.145-0.419-0.34-0.578-0.587
			c-0.285-0.452-0.337-0.999-0.154-1.587c0.172-0.529,0.536-0.985,1-1.25c0.235-0.136,0.487-0.229,0.768-0.271l0.201-0.021
			l0.189-0.001l0.02,0.002c0.035,0.004,0.071,0.008,0.107,0.01c0.091,0.007,0.193,0.013,0.272,0.036
			c0.262,0.042,0.526,0.134,0.78,0.267c0.248,0.123,0.475,0.285,0.666,0.478c0.391,0.372,0.666,0.87,0.771,1.396
			c0.03,0.138,0.043,0.273,0.056,0.414l0.004,0.189l-0.004,0.242l-0.025,5.207c0.346-0.834,0.826-1.608,1.414-2.285
			c-0.008-1.838,0.014-2.874,0.014-2.915l-0.006-0.245l-0.021-0.314c-0.022-0.235-0.059-0.425-0.104-0.6
			c-0.195-0.784-0.633-1.506-1.232-2.034c-0.588-0.532-1.348-0.875-2.152-0.969c-0.145-0.024-0.297-0.025-0.459-0.027L97.262,10
			l-0.304,0.021l-0.316,0.053c-0.394,0.086-0.779,0.249-1.113,0.473c-0.675,0.451-1.163,1.148-1.333,1.912
			c-0.095,0.425-0.108,0.803-0.045,1.185C94.223,14.05,94.385,14.429,94.624,14.741z"/>
		<ellipse fill="#DCDCDC" cx="101.908" cy="45.122" rx="2.92" ry="0.853"/>
		<path fill="#333333" d="M17.086,24.456h6.915c2.127,0,3.958,0.199,5.492,0.596c1.533,0.396,2.811,1.032,3.834,1.909
			c1.168,1.001,2.045,2.148,2.636,3.442c0.588,1.293,0.884,2.707,0.884,4.241c0,1.461-0.263,2.833-0.791,4.115
			c-0.526,1.282-1.299,2.402-2.315,3.356c-1.018,0.953-2.274,1.707-3.771,2.261c-1.497,0.554-3.21,0.829-5.139,0.829h-7.744
			L17.086,24.456L17.086,24.456z M20.575,43.686h3.709c1.168,0,2.269-0.19,3.301-0.58c1.032-0.385,1.932-0.959,2.699-1.721
			c0.767-0.761,1.372-1.697,1.815-2.809c0.443-1.11,0.664-2.396,0.664-3.856c0-1.282-0.208-2.459-0.625-3.528
			c-0.418-1.069-1.001-1.989-1.753-2.762c-0.751-0.772-1.646-1.372-2.683-1.799c-1.04-0.427-2.173-0.641-3.405-0.641h-3.723
			L20.575,43.686L20.575,43.686z"/>
		<path fill="#333333" d="M50.89,45.204c-0.418-0.21-0.77-0.504-1.056-0.886c-0.287-0.379-0.431-0.815-0.431-1.31
			c-0.376,0.283-0.744,0.574-1.104,0.876c-0.36,0.305-0.751,0.578-1.174,0.823c-0.422,0.244-0.892,0.442-1.409,0.603
			c-0.516,0.156-1.114,0.233-1.792,0.233c-0.625,0-1.192-0.104-1.698-0.308c-0.506-0.202-0.934-0.48-1.283-0.838
			c-0.349-0.354-0.62-0.774-0.813-1.268c-0.193-0.49-0.29-1.017-0.29-1.58c0-0.688,0.135-1.309,0.407-1.861
			c0.271-0.553,0.645-1.047,1.118-1.479c0.475-0.434,1.025-0.82,1.651-1.158s1.292-0.642,2.002-0.908
			c0.71-0.268,1.44-0.504,2.19-0.711c0.751-0.208,1.481-0.402,2.191-0.578v-1.001c0-0.729-0.053-1.346-0.156-1.847
			c-0.104-0.5-0.267-0.904-0.486-1.212c-0.219-0.308-0.497-0.526-0.837-0.657c-0.339-0.13-0.743-0.195-1.213-0.195
			c-0.447,0-0.859,0.09-1.236,0.267c-0.375,0.178-0.708,0.415-0.993,0.712c-0.288,0.298-0.522,0.647-0.705,1.048
			c-0.183,0.402-0.305,0.827-0.367,1.276H40.5c0.083-0.688,0.319-1.303,0.71-1.847c0.393-0.542,0.884-0.998,1.479-1.368
			c0.595-0.371,1.27-0.654,2.027-0.854c0.756-0.198,1.541-0.296,2.355-0.296c1.043,0,1.919,0.1,2.628,0.304
			c0.708,0.204,1.277,0.488,1.705,0.854c0.428,0.364,0.733,0.811,0.916,1.337c0.183,0.526,0.274,1.108,0.274,1.745v9.89
			c0,0.489,0.143,0.927,0.432,1.308c0.287,0.382,0.638,0.676,1.055,0.886H50.89L50.89,45.204z M49.403,35.879
			c-0.459,0.146-0.935,0.313-1.424,0.5s-0.969,0.398-1.439,0.633c-0.469,0.233-0.917,0.488-1.345,0.76
			c-0.429,0.271-0.803,0.563-1.127,0.875c-0.323,0.313-0.579,0.644-0.767,0.984c-0.189,0.346-0.281,0.704-0.281,1.08
			c0,0.396,0.073,0.77,0.218,1.118c0.146,0.351,0.338,0.655,0.578,0.924c0.241,0.265,0.517,0.476,0.829,0.626
			c0.313,0.15,0.636,0.229,0.971,0.229c0.354,0,0.694-0.047,1.017-0.143c0.324-0.095,0.635-0.222,0.939-0.384
			c0.303-0.161,0.605-0.349,0.908-0.556c0.303-0.209,0.609-0.436,0.923-0.674V35.879z"/>
		<path fill="#333333" d="M79.001,45.204c-0.418-0.21-0.77-0.504-1.057-0.886c-0.288-0.379-0.43-0.815-0.43-1.31
			c-0.376,0.283-0.744,0.574-1.104,0.876c-0.36,0.305-0.751,0.578-1.173,0.823c-0.423,0.244-0.893,0.442-1.409,0.603
			c-0.516,0.156-1.113,0.233-1.792,0.233c-0.625,0-1.192-0.104-1.698-0.308c-0.507-0.202-0.934-0.48-1.283-0.838
			c-0.349-0.354-0.621-0.774-0.813-1.268c-0.193-0.49-0.289-1.017-0.289-1.58c0-0.688,0.134-1.309,0.406-1.861
			c0.271-0.553,0.644-1.047,1.118-1.479c0.475-0.434,1.025-0.82,1.651-1.158s1.293-0.642,2.002-0.908
			c0.709-0.268,1.44-0.504,2.191-0.711c0.751-0.208,1.481-0.402,2.191-0.578v-1.001c0-0.729-0.053-1.346-0.156-1.847
			c-0.104-0.5-0.267-0.904-0.486-1.212c-0.219-0.308-0.498-0.526-0.838-0.657c-0.339-0.13-0.742-0.195-1.213-0.195
			c-0.448,0-0.859,0.09-1.236,0.267c-0.376,0.178-0.707,0.415-0.993,0.712c-0.288,0.298-0.522,0.647-0.705,1.048
			c-0.183,0.402-0.304,0.827-0.367,1.276h-2.91c0.083-0.688,0.321-1.303,0.712-1.847c0.392-0.542,0.883-0.998,1.479-1.368
			c0.595-0.371,1.27-0.654,2.026-0.854c0.756-0.198,1.541-0.296,2.355-0.296c1.043,0,1.919,0.1,2.628,0.304
			c0.708,0.204,1.277,0.488,1.705,0.854c0.427,0.364,0.732,0.811,0.915,1.337c0.183,0.526,0.274,1.108,0.274,1.745v9.89
			c0,0.489,0.143,0.927,0.431,1.308c0.287,0.382,0.638,0.676,1.056,0.886H79.001L79.001,45.204z M77.515,35.879
			c-0.459,0.146-0.935,0.313-1.423,0.5c-0.49,0.188-0.971,0.398-1.44,0.633c-0.47,0.233-0.917,0.488-1.345,0.76
			c-0.428,0.271-0.803,0.563-1.127,0.875c-0.323,0.313-0.579,0.644-0.767,0.984c-0.188,0.346-0.281,0.704-0.281,1.08
			c0,0.396,0.073,0.77,0.218,1.118c0.146,0.351,0.338,0.655,0.579,0.924c0.241,0.265,0.517,0.476,0.83,0.626
			c0.313,0.15,0.636,0.229,0.971,0.229c0.354,0,0.694-0.047,1.016-0.143c0.324-0.095,0.637-0.222,0.94-0.384
			c0.303-0.161,0.605-0.349,0.907-0.556c0.303-0.209,0.611-0.436,0.923-0.674L77.515,35.879L77.515,35.879z"/>
		<path fill="#333333" d="M86.1,42.798c0.354,0.38,0.716,0.694,1.087,0.938c0.371,0.246,0.751,0.423,1.143,0.531
			c0.39,0.111,0.814,0.168,1.274,0.168c0.427,0,0.825-0.064,1.189-0.195c0.365-0.129,0.681-0.305,0.946-0.523
			c0.266-0.219,0.473-0.473,0.618-0.759c0.147-0.287,0.22-0.581,0.22-0.884c0-0.49-0.122-0.918-0.367-1.283s-0.568-0.691-0.97-0.979
			c-0.401-0.287-0.857-0.554-1.369-0.791c-0.512-0.238-1.032-0.486-1.566-0.742c-0.532-0.256-1.054-0.526-1.564-0.813
			c-0.511-0.286-0.967-0.623-1.368-1.009c-0.402-0.385-0.725-0.833-0.971-1.337c-0.245-0.506-0.368-1.097-0.368-1.777
			c0-0.636,0.135-1.228,0.406-1.776c0.271-0.548,0.649-1.02,1.135-1.416c0.485-0.397,1.062-0.707,1.729-0.932
			c0.667-0.225,1.398-0.337,2.19-0.337c0.533,0,1.028,0.038,1.487,0.109c0.458,0.073,0.911,0.215,1.354,0.422
			c0.443,0.209,0.884,0.509,1.32,0.9c0.439,0.391,0.902,0.899,1.394,1.526l-1.174,1.048c-0.605-0.991-1.28-1.729-2.027-2.213
			c-0.745-0.483-1.541-0.728-2.385-0.728c-0.459,0-0.876,0.056-1.252,0.165s-0.697,0.26-0.961,0.453
			c-0.267,0.193-0.476,0.421-0.626,0.681c-0.151,0.262-0.228,0.537-0.228,0.829c0,0.479,0.133,0.896,0.4,1.251
			c0.267,0.354,0.618,0.675,1.056,0.962c0.439,0.286,0.936,0.55,1.494,0.79c0.558,0.241,1.127,0.485,1.705,0.735
			c0.579,0.25,1.147,0.521,1.706,0.813c0.557,0.293,1.055,0.629,1.494,1.009c0.438,0.384,0.79,0.822,1.055,1.321
			c0.267,0.501,0.4,1.087,0.4,1.753c0,0.678-0.124,1.313-0.375,1.899c-0.25,0.591-0.628,1.102-1.135,1.533
			c-0.507,0.433-1.139,0.772-1.9,1.023c-0.762,0.249-1.659,0.374-2.692,0.374c-0.469,0-0.953-0.036-1.448-0.106
			c-0.496-0.074-0.993-0.219-1.493-0.433c-0.5-0.213-1.001-0.515-1.502-0.897c-0.5-0.388-0.991-0.895-1.471-1.521L86.1,42.798z"/>
		<path fill="#333333" d="M159.811,45.204c-0.416-0.21-0.77-0.504-1.055-0.886c-0.287-0.379-0.432-0.815-0.432-1.31
			c-0.375,0.283-0.742,0.574-1.102,0.876c-0.361,0.305-0.752,0.578-1.177,0.823c-0.424,0.244-0.896,0.442-1.405,0.603
			c-0.519,0.156-1.113,0.233-1.791,0.233c-0.627,0-1.193-0.104-1.699-0.308c-0.506-0.202-0.937-0.48-1.283-0.838
			c-0.348-0.354-0.619-0.774-0.813-1.268c-0.195-0.49-0.289-1.017-0.289-1.58c0-0.688,0.135-1.309,0.403-1.861
			c0.271-0.551,0.646-1.047,1.119-1.479c0.478-0.434,1.021-0.82,1.647-1.158s1.293-0.642,2.002-0.908
			c0.709-0.268,1.441-0.504,2.191-0.711c0.752-0.208,1.48-0.402,2.193-0.578v-1.001c0-0.729-0.053-1.346-0.158-1.847
			c-0.104-0.5-0.266-0.904-0.484-1.212s-0.498-0.526-0.838-0.657c-0.34-0.13-0.742-0.195-1.213-0.195
			c-0.447,0-0.859,0.09-1.236,0.267c-0.375,0.178-0.707,0.415-0.992,0.712c-0.284,0.298-0.521,0.647-0.702,1.048
			c-0.185,0.402-0.308,0.827-0.367,1.276h-2.91c0.084-0.688,0.32-1.303,0.711-1.847c0.394-0.542,0.888-0.998,1.479-1.368
			c0.594-0.371,1.271-0.654,2.024-0.854c0.757-0.198,1.543-0.296,2.355-0.296c1.043,0,1.92,0.1,2.627,0.304
			c0.709,0.204,1.278,0.488,1.704,0.854c0.431,0.364,0.734,0.811,0.916,1.337c0.183,0.526,0.275,1.108,0.275,1.745v9.89
			c0,0.489,0.144,0.927,0.43,1.308c0.287,0.382,0.64,0.676,1.058,0.886H159.811L159.811,45.204z M158.322,35.879
			c-0.457,0.146-0.932,0.313-1.422,0.5c-0.492,0.188-0.971,0.398-1.439,0.633c-0.471,0.233-0.918,0.488-1.346,0.76
			s-0.803,0.563-1.127,0.875c-0.324,0.313-0.578,0.644-0.768,0.984c-0.188,0.346-0.281,0.704-0.281,1.08
			c0,0.396,0.074,0.77,0.219,1.118c0.146,0.351,0.34,0.655,0.58,0.924c0.24,0.265,0.518,0.476,0.828,0.626
			c0.313,0.15,0.635,0.229,0.971,0.229c0.355,0,0.695-0.047,1.018-0.143c0.324-0.095,0.637-0.222,0.939-0.384
			c0.301-0.161,0.604-0.349,0.906-0.556c0.303-0.209,0.608-0.436,0.924-0.674v-5.978h-0.002V35.879z"/>
		
			<linearGradient id="SVGID_2_" gradientUnits="userSpaceOnUse" x1="-2088.0122" y1="1336.4316" x2="-2088.0122" y2="1333.5446" gradientTransform="matrix(7.0867 0 0 7.0867 14904.624 -9426.2207)">
			<stop  offset="0" style="stop-color:#008C00"/>
			<stop  offset="1" style="stop-color:#00AF00"/>
		</linearGradient>
		<path fill="url(#SVGID_2_)" d="M103.264,45.121h-2.742c-0.09-5.188-0.608-21.318-0.608-21.318l0.012-0.5l0.041-0.63
			c0.043-0.418,0.104-0.838,0.218-1.244c0.407-1.637,1.315-3.137,2.567-4.236c1.231-1.118,2.828-1.833,4.47-2.02
			c0.407-0.067,0.817-0.057,1.231-0.064l0.646,0.046l0.639,0.109c0.845,0.184,1.646,0.526,2.357,1.001
			c1.424,0.947,2.469,2.43,2.84,4.078c0.185,0.828,0.236,1.643,0.088,2.528c-0.149,0.863-0.496,1.691-1.021,2.381
			c-1.026,1.397-2.737,2.209-4.412,2.172c-0.858-0.004-1.752-0.266-2.459-0.757c-0.715-0.483-1.271-1.177-1.586-1.955
			c-0.155-0.389-0.262-0.798-0.296-1.211c-0.036-0.404-0.027-0.83,0.075-1.255c0.202-0.837,0.723-1.566,1.401-2.027
			c0.683-0.464,1.51-0.669,2.308-0.543c0.815,0.128,1.524,0.646,1.887,1.327c0.363,0.675,0.404,1.51,0.035,2.159
			c-0.356,0.646-1.093,0.986-1.74,0.907c0.658-0.065,1.188-0.538,1.359-1.083c0.184-0.541,0.004-1.147-0.32-1.559
			c-0.33-0.42-0.844-0.646-1.321-0.631c-0.498,0.015-0.994,0.217-1.336,0.55c-0.724,0.668-0.744,1.728-0.275,2.54
			c0.467,0.807,1.367,1.235,2.209,1.136c0.467-0.045,0.897-0.197,1.279-0.433c0.377-0.241,0.688-0.573,0.918-0.936
			c0.469-0.742,0.518-1.622,0.229-2.527c-0.281-0.864-0.873-1.617-1.646-2.059c-0.383-0.222-0.803-0.369-1.229-0.436l-0.324-0.035
			l-0.324-0.001c-0.231,0.028-0.479,0.023-0.705,0.083c-0.471,0.075-0.912,0.239-1.321,0.457c-0.419,0.206-0.802,0.481-1.13,0.809
			c-0.672,0.641-1.127,1.488-1.307,2.374c-0.051,0.221-0.068,0.449-0.087,0.674l-0.009,0.341l0.008,0.473L103.264,45.121z"/>
		<path fill="#333333" d="M121.109,31.834c-0.207-0.589-0.494-1.104-0.859-1.542c-0.365-0.437-0.791-0.782-1.275-1.032
			c-0.481-0.25-1.01-0.376-1.574-0.376c-1.071,0-2.133,0.268-3.176,0.807c-1.043,0.537-2.051,1.347-3.02,2.432v-3.234l-3.193,1.245
			v15.071h3.193V33.344c0.354-0.344,0.725-0.656,1.109-0.938c0.387-0.282,0.771-0.523,1.166-0.729
			c0.391-0.204,0.772-0.363,1.147-0.478c0.375-0.115,0.729-0.172,1.063-0.172c0.375,0,0.719,0.069,1.022,0.21
			c0.31,0.142,0.576,0.347,0.808,0.618c0.229,0.271,0.405,0.608,0.53,1.01c0.128,0.401,0.188,0.867,0.188,1.4v10.938h3.176V33.718
			C121.422,33.052,121.318,32.423,121.109,31.834z"/>
		<polygon fill="#333333" points="55.579,22.27 55.579,45.204 58.771,45.204 58.771,21.023 		"/>
		<g>
			<polygon fill="#333333" points="139.639,21.014 139.641,21.019 139.641,21.014 			"/>
			<path fill="#333333" d="M136.479,30.371c-0.5-0.448-1.041-0.808-1.619-1.08c-0.575-0.271-1.26-0.405-2.041-0.405
				c-1.157,0-2.243,0.24-3.264,0.719c-1.016,0.48-1.906,1.12-2.666,1.917c-0.762,0.798-1.365,1.708-1.809,2.731
				c-0.443,1.022-0.664,2.075-0.664,3.16c0,1.095,0.176,2.137,0.531,3.122c0.354,0.986,0.836,1.85,1.447,2.589
				c0.606,0.742,1.319,1.331,2.143,1.771c0.82,0.438,1.697,0.655,2.637,0.655c0.447,0,0.906-0.043,1.377-0.134
				c0.469-0.089,0.936-0.212,1.4-0.375c0.465-0.162,0.91-0.359,1.338-0.596c0.428-0.233,0.824-0.496,1.189-0.788v1.549h3.16V21.019
				l-3.16,1.234V30.371L136.479,30.371z M136.479,42.184c-0.194,0.223-0.43,0.428-0.694,0.627c-0.269,0.197-0.552,0.373-0.854,0.524
				c-0.303,0.149-0.623,0.271-0.963,0.358c-0.34,0.09-0.676,0.135-1.01,0.135c-0.699,0-1.355-0.189-1.965-0.571
				c-0.611-0.38-1.141-0.901-1.596-1.563c-0.453-0.664-0.813-1.438-1.07-2.322c-0.262-0.887-0.393-1.842-0.393-2.863
				c0-0.949,0.116-1.816,0.356-2.605c0.24-0.788,0.563-1.465,0.979-2.035c0.41-0.568,0.896-1.01,1.445-1.321
				c0.555-0.313,1.146-0.47,1.783-0.47c0.479,0,0.957,0.101,1.436,0.306c0.474,0.203,0.896,0.49,1.273,0.859
				c0.375,0.37,0.682,0.813,0.914,1.33c0.232,0.517,0.354,1.087,0.354,1.713L136.479,42.184L136.479,42.184L136.479,42.184z"/>
		</g>
		<g>
			<polygon fill="#333333" points="142.635,30.12 142.635,45.204 145.795,45.204 145.795,28.885 			"/>
			<path fill="#333333" d="M145.873,22.344c-0.094-0.219-0.225-0.412-0.391-0.578c-0.17-0.167-0.361-0.297-0.58-0.392
				s-0.453-0.141-0.705-0.141c-0.25,0-0.484,0.046-0.703,0.141c-0.219,0.094-0.412,0.225-0.58,0.392s-0.297,0.359-0.391,0.578
				c-0.099,0.219-0.146,0.454-0.146,0.705c0,0.25,0.049,0.484,0.146,0.704c0.094,0.219,0.225,0.413,0.391,0.578
				c0.168,0.168,0.359,0.298,0.58,0.391c0.219,0.095,0.453,0.142,0.703,0.142s0.486-0.046,0.705-0.142
				c0.219-0.094,0.41-0.224,0.58-0.391c0.166-0.166,0.297-0.359,0.391-0.578c0.094-0.22,0.141-0.454,0.141-0.704
				C146.014,22.797,145.967,22.563,145.873,22.344z"/>
		</g>
		<path fill="#333333" d="M177.6,31.834c-0.209-0.589-0.496-1.104-0.856-1.542c-0.365-0.438-0.791-0.782-1.277-1.032
			c-0.483-0.25-1.008-0.376-1.569-0.376c-1.074,0-2.136,0.268-3.179,0.807c-1.045,0.537-2.051,1.347-3.021,2.432v-3.226l-3.19,1.246
			v15.061h3.19V33.343c0.354-0.344,0.726-0.656,1.111-0.938c0.387-0.282,0.771-0.524,1.164-0.729
			c0.394-0.204,0.773-0.363,1.15-0.478c0.375-0.115,0.729-0.172,1.063-0.172c0.375,0,0.717,0.069,1.023,0.21
			c0.309,0.142,0.576,0.347,0.807,0.618c0.229,0.271,0.406,0.608,0.531,1.01c0.125,0.401,0.188,0.868,0.188,1.4v10.938h3.178V33.717
			C177.912,33.052,177.807,32.423,177.6,31.834z"/>
		<polygon fill="#333333" points="61.766,22.27 61.766,45.204 64.958,45.204 64.958,21.023 		"/>
	</g>
	<g>
		<path fill="#969696" d="M139.043,53.361v1.813c0.164-0.205,0.342-0.415,0.541-0.632c0.198-0.214,0.414-0.41,0.656-0.587
			c0.238-0.18,0.502-0.32,0.793-0.432c0.289-0.109,0.604-0.166,0.947-0.166c0.479,0,0.912,0.1,1.303,0.301
			c0.391,0.197,0.723,0.472,0.998,0.813c0.279,0.342,0.49,0.744,0.641,1.204c0.15,0.462,0.225,0.951,0.225,1.474
			c0,0.668-0.092,1.285-0.272,1.854c-0.188,0.564-0.449,1.057-0.791,1.465c-0.344,0.41-0.758,0.731-1.248,0.961
			c-0.485,0.229-1.037,0.346-1.646,0.346c-0.219,0-0.428-0.014-0.619-0.035c-0.188-0.023-0.37-0.062-0.545-0.105
			c-0.172-0.049-0.336-0.107-0.498-0.182c-0.157-0.074-0.319-0.164-0.481-0.27V65h-1.608V53.811L139.043,53.361z M139.043,59.418
			c0,0.241,0.053,0.469,0.157,0.682s0.253,0.399,0.442,0.563c0.188,0.158,0.414,0.288,0.678,0.38s0.553,0.14,0.869,0.14
			c0.299,0,0.584-0.076,0.85-0.229s0.498-0.369,0.695-0.651c0.197-0.281,0.352-0.617,0.465-1.008s0.17-0.82,0.17-1.295
			c0-0.596-0.053-1.115-0.158-1.561c-0.104-0.444-0.25-0.813-0.438-1.107c-0.188-0.295-0.41-0.518-0.664-0.665
			c-0.256-0.146-0.535-0.22-0.84-0.22c-0.232,0-0.455,0.035-0.668,0.104c-0.213,0.07-0.416,0.168-0.604,0.288
			c-0.19,0.121-0.365,0.263-0.524,0.418c-0.162,0.158-0.304,0.324-0.433,0.498v3.667L139.043,59.418L139.043,59.418z"/>
		<path fill="#969696" d="M150.445,61.771c-0.621,0-1.193-0.107-1.715-0.324c-0.522-0.217-0.974-0.51-1.354-0.881
			c-0.379-0.373-0.676-0.809-0.89-1.303c-0.213-0.498-0.319-1.031-0.319-1.603c0-0.597,0.104-1.154,0.319-1.681
			c0.216-0.521,0.511-0.979,0.89-1.366c0.379-0.392,0.83-0.696,1.354-0.923c0.521-0.225,1.092-0.334,1.715-0.334
			c0.615,0,1.184,0.104,1.699,0.31c0.52,0.206,0.969,0.485,1.348,0.847c0.381,0.356,0.674,0.777,0.889,1.26
			c0.213,0.479,0.32,1.002,0.32,1.552c0,0.612-0.107,1.187-0.32,1.727c-0.215,0.54-0.51,1.013-0.889,1.413
			c-0.379,0.404-0.828,0.721-1.348,0.955C151.627,61.654,151.061,61.771,150.445,61.771z M150.752,61.178
			c0.316,0,0.605-0.082,0.869-0.246c0.264-0.162,0.488-0.384,0.678-0.658s0.338-0.597,0.443-0.961
			c0.105-0.359,0.156-0.746,0.156-1.149c0-0.584-0.049-1.132-0.15-1.646c-0.098-0.512-0.262-0.955-0.488-1.334
			c-0.226-0.379-0.521-0.678-0.885-0.896c-0.363-0.22-0.807-0.325-1.326-0.325c-0.268,0-0.529,0.077-0.783,0.23
			c-0.252,0.156-0.477,0.367-0.668,0.637c-0.188,0.271-0.346,0.583-0.461,0.941c-0.115,0.36-0.174,0.744-0.174,1.147
			c0,0.591,0.063,1.144,0.186,1.659c0.125,0.517,0.308,0.966,0.545,1.352c0.24,0.383,0.531,0.688,0.875,0.911
			C149.916,61.066,150.309,61.178,150.752,61.178z"/>
		<path fill="#969696" d="M157.645,53.361l0.213,1.648c0.127-0.242,0.285-0.464,0.478-0.66c0.188-0.201,0.396-0.375,0.629-0.521
			c0.229-0.146,0.474-0.264,0.729-0.344c0.256-0.084,0.514-0.123,0.774-0.123c0.236,0,0.474,0.031,0.699,0.096
			c0.229,0.063,0.44,0.163,0.646,0.3l-0.506,1.351c-0.104-0.112-0.217-0.211-0.332-0.277c-0.113-0.071-0.233-0.127-0.354-0.168
			c-0.121-0.039-0.244-0.063-0.371-0.074c-0.127-0.011-0.252-0.018-0.377-0.018c-0.203,0-0.397,0.029-0.59,0.09
			c-0.193,0.058-0.375,0.143-0.55,0.257c-0.174,0.11-0.334,0.258-0.481,0.435c-0.146,0.178-0.276,0.385-0.387,0.623V61.6h-1.604
			v-7.793L157.645,53.361z"/>
		<path fill="#969696" d="M164.814,50.764v2.748h1.801V54.2h-1.801v5.692c0,0.117,0.021,0.231,0.063,0.338
			c0.045,0.104,0.104,0.199,0.187,0.274c0.074,0.08,0.166,0.144,0.271,0.188s0.222,0.065,0.349,0.065
			c0.178,0,0.34-0.045,0.487-0.134c0.146-0.09,0.277-0.199,0.39-0.331l0.399,0.271c-0.219,0.373-0.508,0.668-0.858,0.886
			c-0.353,0.215-0.789,0.323-1.312,0.323c-0.271,0-0.504-0.047-0.703-0.14c-0.198-0.092-0.362-0.222-0.491-0.388
			c-0.13-0.167-0.228-0.363-0.289-0.596c-0.063-0.229-0.097-0.479-0.097-0.762V54.2h-1.403v-0.302l1.403-0.389v-2.299
			L164.814,50.764z"/>
		<path fill="#969696" d="M173.381,61.598c-0.211-0.104-0.389-0.256-0.535-0.447c-0.145-0.19-0.215-0.408-0.215-0.655
			c-0.189,0.141-0.377,0.287-0.557,0.438c-0.182,0.151-0.379,0.291-0.592,0.416c-0.213,0.123-0.451,0.227-0.711,0.305
			c-0.265,0.076-0.563,0.117-0.904,0.117c-0.316,0-0.602-0.053-0.857-0.152c-0.255-0.104-0.471-0.243-0.646-0.424
			c-0.179-0.18-0.314-0.395-0.412-0.639c-0.097-0.25-0.146-0.517-0.146-0.801c0-0.347,0.066-0.661,0.203-0.938
			c0.139-0.277,0.324-0.526,0.564-0.743c0.238-0.22,0.516-0.413,0.832-0.587c0.314-0.17,0.652-0.321,1.012-0.459
			c0.357-0.133,0.729-0.252,1.104-0.356c0.379-0.104,0.748-0.204,1.104-0.293v-0.505c0-0.368-0.024-0.68-0.078-0.934
			c-0.053-0.254-0.135-0.457-0.245-0.612c-0.111-0.154-0.25-0.267-0.423-0.331c-0.17-0.064-0.375-0.1-0.61-0.1
			c-0.228,0-0.437,0.045-0.625,0.136c-0.188,0.089-0.355,0.21-0.5,0.358c-0.146,0.148-0.265,0.324-0.355,0.527
			s-0.154,0.418-0.188,0.645h-1.47c0.044-0.348,0.162-0.654,0.359-0.935c0.198-0.271,0.444-0.504,0.745-0.688
			c0.3-0.188,0.642-0.33,1.021-0.431c0.383-0.1,0.777-0.147,1.188-0.147c0.525,0,0.97,0.054,1.326,0.152
			c0.357,0.104,0.646,0.246,0.859,0.43c0.215,0.187,0.369,0.41,0.461,0.677c0.094,0.269,0.139,0.562,0.139,0.881v4.992
			c0,0.247,0.072,0.465,0.22,0.657c0.146,0.19,0.319,0.343,0.53,0.445H173.381L173.381,61.598z M172.631,56.891
			c-0.232,0.073-0.473,0.157-0.719,0.252c-0.248,0.099-0.49,0.202-0.727,0.32c-0.238,0.118-0.466,0.246-0.683,0.383
			s-0.403,0.285-0.565,0.441c-0.164,0.156-0.291,0.324-0.39,0.498c-0.096,0.173-0.144,0.355-0.144,0.546
			c0,0.199,0.035,0.388,0.107,0.563c0.076,0.176,0.174,0.33,0.295,0.467c0.119,0.133,0.264,0.24,0.418,0.313
			c0.158,0.075,0.32,0.114,0.488,0.114c0.18,0,0.352-0.021,0.516-0.071c0.162-0.048,0.32-0.11,0.476-0.192
			c0.147-0.082,0.303-0.174,0.457-0.279c0.149-0.105,0.312-0.219,0.467-0.341L172.631,56.891L172.631,56.891z"/>
		<path fill="#969696" d="M177.723,61.598h-1.611V51.009l1.611-0.458V61.598z"/>
	</g>
</g>
</svg>
