<?xml version="1.0" encoding="utf-8"?>
<!-- Generator: Adobe Illustrator 21.0.0, SVG Export Plug-In . SVG Version: 6.00 Build 0)  -->
<svg version="1.1" id="Layer_1" xmlns="http://www.w3.org/2000/svg" xmlns:xlink="http://www.w3.org/1999/xlink" x="0px" y="0px"
	 viewBox="0 0 180 75" style="enable-background:new 0 0 180 75;" xml:space="preserve">
<style type="text/css">
	.st0{fill:#969696;}
	.st1{fill:#333333;}
	.st2{fill:#0032C8;}
	.st3{fill:#E1E1E1;}
</style>
<g>
	<g>
		<g>
			<path class="st0" d="M109.4,47.9v1.7c0.2-0.2,0.3-0.4,0.5-0.6c0.2-0.2,0.4-0.4,0.6-0.5c0.2-0.2,0.5-0.3,0.7-0.4
				c0.3-0.1,0.6-0.2,0.9-0.2c0.4,0,0.8,0.1,1.2,0.3c0.4,0.2,0.7,0.4,0.9,0.8c0.3,0.3,0.5,0.7,0.6,1.1c0.1,0.4,0.2,0.9,0.2,1.4
				c0,0.6-0.1,1.2-0.3,1.7s-0.4,1-0.7,1.4c-0.3,0.4-0.7,0.7-1.2,0.9s-1,0.3-1.5,0.3c-0.2,0-0.4,0-0.6,0s-0.3-0.1-0.5-0.1
				s-0.3-0.1-0.5-0.2c-0.2-0.1-0.3-0.2-0.4-0.2v3.5h-1.5V48.3L109.4,47.9z M109.4,53.6c0,0.2,0,0.4,0.1,0.6s0.2,0.4,0.4,0.5
				c0.2,0.1,0.4,0.3,0.6,0.4c0.2,0.1,0.5,0.1,0.8,0.1s0.5-0.1,0.8-0.2c0.2-0.1,0.5-0.3,0.6-0.6c0.2-0.3,0.3-0.6,0.4-0.9
				s0.2-0.8,0.2-1.2c0-0.6,0-1-0.1-1.4s-0.2-0.8-0.4-1c-0.2-0.3-0.4-0.5-0.6-0.6s-0.5-0.2-0.8-0.2c-0.2,0-0.4,0-0.6,0.1
				s-0.4,0.2-0.6,0.3s-0.3,0.2-0.5,0.4c-0.1,0.1-0.3,0.3-0.4,0.5C109.4,50.2,109.4,53.6,109.4,53.6z"/>
			<path class="st0" d="M120,55.7c-0.6,0-1.1-0.1-1.6-0.3s-0.9-0.5-1.2-0.8c-0.4-0.3-0.6-0.7-0.8-1.2c-0.2-0.5-0.3-1-0.3-1.5
				c0-0.6,0.1-1.1,0.3-1.6c0.2-0.5,0.5-0.9,0.8-1.3c0.4-0.4,0.8-0.6,1.2-0.9c0.5-0.2,1-0.3,1.6-0.3s1.1,0.1,1.6,0.3s0.9,0.5,1.2,0.8
				c0.3,0.3,0.6,0.7,0.8,1.2c0.2,0.4,0.3,0.9,0.3,1.4c0,0.6-0.1,1.1-0.3,1.6c-0.2,0.5-0.5,0.9-0.8,1.3c-0.4,0.4-0.8,0.7-1.2,0.9
				C121.1,55.6,120.5,55.7,120,55.7z M120.3,55.2c0.3,0,0.6-0.1,0.8-0.2c0.2-0.2,0.5-0.4,0.6-0.6c0.2-0.3,0.3-0.6,0.4-0.9
				c0.1-0.3,0.1-0.7,0.1-1.1c0-0.5,0-1-0.1-1.5s-0.2-0.9-0.5-1.2c-0.2-0.4-0.5-0.6-0.8-0.8s-0.7-0.3-1.2-0.3c-0.2,0-0.5,0.1-0.7,0.2
				s-0.4,0.3-0.6,0.6c-0.2,0.2-0.3,0.5-0.4,0.9c-0.1,0.3-0.2,0.7-0.2,1.1c0,0.5,0.1,1.1,0.2,1.5c0.1,0.5,0.3,0.9,0.5,1.2
				c0.2,0.4,0.5,0.6,0.8,0.8C119.5,55.1,119.8,55.2,120.3,55.2z"/>
			<path class="st0" d="M126.6,47.9l0.2,1.5c0.1-0.2,0.3-0.4,0.4-0.6c0.2-0.2,0.4-0.3,0.6-0.5s0.4-0.2,0.7-0.3
				c0.2-0.1,0.5-0.1,0.7-0.1s0.4,0,0.6,0.1s0.4,0.2,0.6,0.3l-0.5,1.2c-0.1-0.1-0.2-0.2-0.3-0.3s-0.2-0.1-0.3-0.2
				c-0.1,0-0.2-0.1-0.3-0.1s-0.2,0-0.4,0s-0.4,0-0.5,0.1c-0.2,0.1-0.3,0.1-0.5,0.2s-0.3,0.2-0.4,0.4s-0.3,0.4-0.4,0.6v5.2h-1.5v-7.2
				L126.6,47.9z"/>
			<path class="st0" d="M133.3,45.6v2.5h1.7v0.6h-1.7V54c0,0.1,0,0.2,0.1,0.3s0.1,0.2,0.2,0.3c0.1,0.1,0.2,0.1,0.3,0.2
				c0.1,0,0.2,0.1,0.3,0.1c0.2,0,0.3,0,0.5-0.1c0.1-0.1,0.3-0.2,0.4-0.3l0.4,0.2c-0.2,0.3-0.5,0.6-0.8,0.8s-0.7,0.3-1.2,0.3
				c-0.2,0-0.5,0-0.7-0.1s-0.3-0.2-0.5-0.4s-0.2-0.3-0.3-0.5s-0.1-0.4-0.1-0.7v-5.3h-1.3v-0.3l1.3-0.4V46L133.3,45.6z"/>
			<path class="st0" d="M141.2,55.6c-0.2-0.1-0.4-0.2-0.5-0.4s-0.2-0.4-0.2-0.6c-0.2,0.1-0.3,0.3-0.5,0.4c-0.2,0.1-0.4,0.3-0.5,0.4
				c-0.1,0.1-0.4,0.2-0.7,0.3c-0.2,0.1-0.5,0.1-0.8,0.1s-0.6,0-0.8-0.1s-0.4-0.2-0.6-0.4c-0.2-0.2-0.3-0.4-0.4-0.6s-0.1-0.5-0.1-0.7
				c0-0.3,0.1-0.6,0.2-0.9c0.1-0.3,0.3-0.5,0.5-0.7s0.5-0.4,0.8-0.5c0.3-0.2,0.6-0.3,0.9-0.4c0.3-0.1,0.7-0.2,1-0.3
				c0.4-0.1,0.7-0.2,1-0.3v-0.5c0-0.3,0-0.6-0.1-0.9c0-0.2-0.1-0.4-0.2-0.6c-0.1-0.1-0.2-0.2-0.4-0.3s-0.3-0.1-0.6-0.1
				c-0.2,0-0.4,0-0.6,0.1c-0.2,0.1-0.3,0.2-0.5,0.3c-0.1,0.1-0.2,0.3-0.3,0.5s-0.1,0.4-0.2,0.6h-1.4c0-0.3,0.2-0.6,0.3-0.9
				c0.2-0.3,0.4-0.5,0.7-0.6c0.3-0.2,0.6-0.3,0.9-0.4c0.4-0.1,0.7-0.1,1.1-0.1c0.5,0,0.9,0,1.2,0.1s0.6,0.2,0.8,0.4s0.3,0.4,0.4,0.6
				c0.1,0.2,0.1,0.5,0.1,0.8v4.6c0,0.2,0.1,0.4,0.2,0.6s0.3,0.3,0.5,0.4C142.7,55.6,141.2,55.6,141.2,55.6z M140.5,51.2
				c-0.2,0.1-0.4,0.1-0.7,0.2c-0.2,0.1-0.5,0.2-0.7,0.3s-0.4,0.2-0.6,0.4c-0.2,0.1-0.4,0.3-0.5,0.4c-0.2,0.1-0.3,0.3-0.4,0.5
				c-0.1,0.2-0.1,0.3-0.1,0.5s0,0.4,0.1,0.5c0.1,0.2,0.2,0.3,0.3,0.4c0.1,0.1,0.2,0.2,0.4,0.3c0.1,0.1,0.3,0.1,0.5,0.1
				s0.3,0,0.5-0.1c0.2,0,0.3-0.1,0.4-0.2c0.1-0.1,0.3-0.2,0.4-0.3c0.1-0.1,0.3-0.2,0.4-0.3L140.5,51.2L140.5,51.2z"/>
			<path class="st0" d="M145.2,55.6h-1.5v-9.8l1.5-0.4V55.6z"/>
			<path class="st0" d="M147.4,54.2c0.1,0,0.2,0,0.3,0.1c0.1,0,0.2,0.1,0.3,0.2c0.1,0.1,0.1,0.2,0.2,0.2c0,0.1,0.1,0.2,0.1,0.3
				s0,0.2-0.1,0.3c0,0.1-0.1,0.2-0.2,0.2c-0.1,0.1-0.2,0.1-0.3,0.2c-0.1,0-0.2,0.1-0.3,0.1s-0.2,0-0.3-0.1c-0.1,0-0.2-0.1-0.3-0.2
				s-0.1-0.2-0.2-0.2c0-0.1-0.1-0.2-0.1-0.3s0-0.2,0.1-0.3s0.1-0.2,0.2-0.2c0.1-0.1,0.2-0.1,0.3-0.2
				C147.2,54.2,147.3,54.2,147.4,54.2z"/>
			<path class="st0" d="M154.6,50.2c-0.1-0.2-0.1-0.4-0.2-0.6c-0.1-0.2-0.2-0.4-0.4-0.5s-0.3-0.3-0.5-0.4s-0.4-0.2-0.7-0.2
				s-0.6,0.1-0.9,0.2c-0.3,0.1-0.5,0.3-0.7,0.6c-0.2,0.2-0.3,0.5-0.4,0.8c-0.1,0.3-0.1,0.6-0.1,1c0,0.5,0.1,0.9,0.2,1.4
				c0.1,0.4,0.3,0.8,0.5,1.1s0.5,0.6,0.8,0.8s0.7,0.3,1.1,0.3c0.3,0,0.6-0.1,0.9-0.2c0.3-0.1,0.5-0.3,0.7-0.4
				c0.2-0.2,0.3-0.4,0.5-0.6c0.1-0.2,0.3-0.5,0.4-0.8l0.4,0.2c-0.1,0.5-0.3,0.9-0.5,1.3c-0.2,0.4-0.5,0.7-0.8,0.9
				c-0.3,0.3-0.6,0.5-1,0.6s-0.8,0.2-1.2,0.2c-0.5,0-1-0.1-1.4-0.3s-0.8-0.5-1.1-0.8s-0.6-0.7-0.8-1.2c-0.2-0.4-0.3-0.9-0.3-1.4
				c0-0.4,0-0.7,0.1-1.1c0.1-0.3,0.2-0.7,0.4-1s0.4-0.6,0.6-0.8c0.2-0.2,0.5-0.5,0.8-0.6c0.3-0.2,0.6-0.3,0.9-0.4
				c0.3-0.1,0.7-0.1,1-0.1s0.6,0,0.9,0.1c0.3,0.1,0.5,0.2,0.8,0.3c0.2,0.1,0.4,0.3,0.6,0.5c0.2,0.2,0.3,0.4,0.4,0.6L154.6,50.2z"/>
			<path class="st0" d="M161,55.7c-0.6,0-1.1-0.1-1.6-0.3s-0.9-0.5-1.2-0.8c-0.4-0.3-0.6-0.7-0.8-1.2s-0.3-1-0.3-1.5
				c0-0.6,0.1-1.1,0.3-1.6s0.5-0.9,0.8-1.3c0.4-0.4,0.8-0.6,1.2-0.9c0.5-0.2,1-0.3,1.6-0.3s1.1,0.1,1.6,0.3s0.9,0.5,1.2,0.8
				c0.4,0.3,0.6,0.7,0.8,1.2c0.2,0.4,0.3,0.9,0.3,1.4c0,0.6-0.1,1.1-0.3,1.6s-0.5,0.9-0.8,1.3c-0.4,0.4-0.8,0.7-1.2,0.9
				C162.1,55.6,161.6,55.7,161,55.7z M161.3,55.2c0.3,0,0.6-0.1,0.8-0.2c0.2-0.2,0.5-0.4,0.6-0.6c0.2-0.3,0.3-0.6,0.4-0.9
				c0.1-0.3,0.1-0.7,0.1-1.1c0-0.5,0-1-0.1-1.5s-0.2-0.9-0.5-1.2c-0.2-0.4-0.5-0.6-0.8-0.8s-0.7-0.3-1.2-0.3c-0.2,0-0.5,0.1-0.7,0.2
				s-0.4,0.3-0.6,0.6c-0.2,0.2-0.3,0.5-0.4,0.9c-0.1,0.3-0.2,0.7-0.2,1.1c0,0.5,0.1,1.1,0.2,1.5c0.1,0.5,0.3,0.9,0.5,1.2
				c0.2,0.4,0.5,0.6,0.8,0.8C160.5,55.1,160.9,55.2,161.3,55.2z"/>
			<path class="st0" d="M167.9,47.9v1.5c0.2-0.2,0.4-0.4,0.6-0.6c0.2-0.2,0.5-0.4,0.7-0.5c0.3-0.1,0.5-0.3,0.8-0.3
				c0.3-0.1,0.5-0.1,0.7-0.1s0.4,0,0.7,0.1c0.2,0.1,0.4,0.2,0.6,0.3c0.2,0.1,0.4,0.3,0.5,0.5s0.2,0.4,0.3,0.6
				c0.1-0.2,0.3-0.4,0.5-0.6s0.5-0.4,0.7-0.5c0.3-0.1,0.5-0.3,0.8-0.3c0.3-0.1,0.6-0.1,0.9-0.1c0.3,0,0.5,0.1,0.8,0.2
				c0.2,0.1,0.5,0.3,0.6,0.5c0.2,0.2,0.3,0.5,0.4,0.7c0.1,0.3,0.2,0.6,0.2,0.9v5.3h-1.5v-5.1c0-0.2,0-0.4-0.1-0.6s-0.2-0.4-0.3-0.5
				s-0.3-0.3-0.4-0.3s-0.3-0.1-0.5-0.1s-0.4,0-0.6,0.1c-0.2,0.1-0.4,0.1-0.6,0.2c-0.2,0.1-0.4,0.2-0.5,0.3c-0.2,0.1-0.3,0.3-0.4,0.4
				v5.6h-1.5v-5.1c0-0.2,0-0.4-0.1-0.6c-0.1-0.2-0.2-0.4-0.3-0.5s-0.3-0.3-0.4-0.3c-0.2-0.1-0.3-0.1-0.5-0.1s-0.4,0-0.6,0.1
				c-0.2,0.1-0.4,0.1-0.6,0.2c-0.2,0.1-0.4,0.2-0.5,0.3c-0.2,0.1-0.3,0.3-0.4,0.4v5.6h-1.5v-7.2L167.9,47.9z"/>
		</g>
		<g>
			<path class="st1" d="M4.1,19.6H11c2.1,0,4,0.2,5.5,0.6s2.8,1,3.8,1.9c1.2,1,2,2.1,2.6,3.4s0.9,2.7,0.9,4.2s-0.3,2.8-0.8,4.1
				s-1.3,2.4-2.3,3.4s-2.3,1.7-3.8,2.3s-3.2,0.8-5.1,0.8H4.1V19.6L4.1,19.6z M7.6,38.8h3.7c1.2,0,2.3-0.2,3.3-0.6s1.9-1,2.7-1.7
				c0.8-0.8,1.4-1.7,1.8-2.8s0.7-2.4,0.7-3.9c0-1.3-0.2-2.5-0.6-3.5c-0.4-1.1-1-2-1.8-2.8s-1.6-1.4-2.7-1.8c-1-0.4-2.2-0.6-3.4-0.6
				H7.6V38.8L7.6,38.8z"/>
			<path class="st1" d="M37.9,40.3c-0.4-0.2-0.8-0.5-1.1-0.9s-0.4-0.8-0.4-1.3c-0.4,0.3-0.7,0.6-1.1,0.9c-0.4,0.3-0.8,0.6-1.2,0.8
				s-0.9,0.4-1.4,0.6c-0.5,0.2-1.1,0.2-1.8,0.2c-0.6,0-1.2-0.1-1.7-0.3s-0.9-0.5-1.3-0.8c-0.3-0.4-0.6-0.8-0.8-1.3s-0.3-1-0.3-1.6
				c0-0.7,0.1-1.3,0.4-1.9c0.3-0.6,0.6-1,1.1-1.5c0.5-0.4,1-0.8,1.6-1.2s1.3-0.6,2-0.9c0.7-0.3,1.4-0.5,2.2-0.7s1.5-0.4,2.2-0.6v-1
				c0-0.7-0.1-1.3-0.2-1.8s-0.3-0.9-0.5-1.2s-0.5-0.5-0.8-0.7c-0.3-0.1-0.7-0.2-1.2-0.2c-0.4,0-0.9,0.1-1.2,0.3
				c-0.4,0.2-0.7,0.4-1,0.7c-0.3,0.3-0.5,0.6-0.7,1s-0.3,0.8-0.4,1.3h-2.9c0.1-0.7,0.3-1.3,0.7-1.8s0.9-1,1.5-1.4s1.3-0.7,2-0.9
				c0.8-0.2,1.5-0.3,2.4-0.3c1,0,1.9,0.1,2.6,0.3c0.7,0.2,1.3,0.5,1.7,0.9s0.7,0.8,0.9,1.3s0.3,1.1,0.3,1.7v9.9
				c0,0.5,0.1,0.9,0.4,1.3c0.3,0.4,0.6,0.7,1.1,0.9L37.9,40.3L37.9,40.3z M36.4,31.1c-0.5,0.1-0.9,0.3-1.4,0.5s-1,0.4-1.4,0.6
				c-0.5,0.2-0.9,0.5-1.3,0.8c-0.4,0.3-0.8,0.6-1.1,0.9s-0.6,0.6-0.8,1c-0.2,0.3-0.3,0.7-0.3,1.1c0,0.4,0.1,0.8,0.2,1.1
				s0.3,0.7,0.6,0.9c0.2,0.3,0.5,0.5,0.8,0.6c0.3,0.2,0.6,0.2,1,0.2s0.7,0,1-0.1s0.6-0.2,0.9-0.4c0.3-0.2,0.6-0.3,0.9-0.6
				c0.3-0.2,0.6-0.4,0.9-0.7C36.4,36.9,36.4,31.1,36.4,31.1z"/>
			<path class="st1" d="M66,40.3c-0.4-0.2-0.8-0.5-1.1-0.9c-0.3-0.4-0.4-0.8-0.4-1.3c-0.4,0.3-0.7,0.6-1.1,0.9
				c-0.4,0.3-0.8,0.6-1.2,0.8s-0.9,0.4-1.4,0.6c-0.5,0.2-1.1,0.2-1.8,0.2c-0.6,0-1.2-0.1-1.7-0.3s-0.9-0.5-1.3-0.8
				c-0.3-0.4-0.6-0.8-0.8-1.3s-0.3-1-0.3-1.6c0-0.7,0.1-1.3,0.4-1.9c0.3-0.6,0.6-1,1.1-1.5c0.5-0.4,1-0.8,1.6-1.2
				c0.6-0.3,1.3-0.6,2-0.9s1.4-0.5,2.2-0.7s1.5-0.4,2.2-0.6v-1c0-0.7-0.1-1.3-0.2-1.8s-0.3-0.9-0.5-1.2s-0.5-0.5-0.8-0.7
				s-0.7-0.2-1.2-0.2c-0.4,0-0.9,0.1-1.2,0.3c-0.4,0.2-0.7,0.4-1,0.7c-0.3,0.3-0.5,0.6-0.7,1s-0.3,0.8-0.4,1.3h-2.9
				c0.1-0.7,0.3-1.3,0.7-1.8s0.9-1,1.5-1.4s1.3-0.7,2-0.9c0.8-0.2,1.5-0.3,2.4-0.3c1,0,1.9,0.1,2.6,0.3c0.7,0.2,1.3,0.5,1.7,0.9
				s0.7,0.8,0.9,1.3s0.3,1.1,0.3,1.7v9.9c0,0.5,0.1,0.9,0.4,1.3s0.6,0.7,1.1,0.9L66,40.3L66,40.3z M64.5,31.1
				c-0.5,0.1-0.9,0.3-1.4,0.5s-1,0.4-1.4,0.6c-0.5,0.2-0.9,0.5-1.3,0.8c-0.4,0.3-0.8,0.6-1.1,0.9c-0.3,0.3-0.6,0.6-0.8,1
				c-0.2,0.3-0.3,0.7-0.3,1.1c0,0.4,0.1,0.8,0.2,1.1c0.1,0.3,0.3,0.7,0.6,0.9c0.2,0.3,0.5,0.5,0.8,0.6c0.3,0.2,0.6,0.2,1,0.2
				s0.7,0,1-0.1s0.6-0.2,0.9-0.4c0.3-0.2,0.6-0.3,0.9-0.6c0.3-0.2,0.6-0.4,0.9-0.7V31.1z"/>
			<path class="st1" d="M73.1,37.9c0.4,0.4,0.7,0.7,1.1,0.9s0.8,0.4,1.1,0.5c0.4,0.1,0.8,0.2,1.3,0.2c0.4,0,0.8-0.1,1.2-0.2
				c0.4-0.1,0.7-0.3,0.9-0.5c0.2-0.2,0.5-0.5,0.6-0.8s0.2-0.6,0.2-0.9c0-0.5-0.1-0.9-0.4-1.3c-0.2-0.4-0.6-0.7-1-1s-0.9-0.5-1.4-0.8
				c-0.5-0.2-1-0.5-1.6-0.7c-0.5-0.3-1.1-0.5-1.6-0.8s-1-0.6-1.4-1s-0.7-0.8-1-1.3c-0.2-0.5-0.4-1.1-0.4-1.8c0-0.6,0.1-1.2,0.4-1.8
				c0.3-0.5,0.6-1,1.1-1.4s1.1-0.7,1.7-0.9s1.4-0.3,2.2-0.3c0.5,0,1,0,1.5,0.1s0.9,0.2,1.4,0.4s0.9,0.5,1.3,0.9s0.9,0.9,1.4,1.5
				l-1.2,1c-0.6-1-1.3-1.7-2-2.2S77,25,76.1,25c-0.5,0-0.9,0.1-1.2,0.2c-0.4,0.1-0.7,0.3-1,0.5s-0.5,0.4-0.6,0.7
				c-0.2,0.3-0.2,0.5-0.2,0.8c0,0.5,0.1,0.9,0.4,1.2s0.6,0.7,1.1,1c0.4,0.3,0.9,0.5,1.5,0.8c0.6,0.2,1.1,0.5,1.7,0.7
				s1.1,0.5,1.7,0.8s1.1,0.6,1.5,1s0.8,0.8,1.1,1.3c0.3,0.5,0.4,1.1,0.4,1.8s-0.1,1.3-0.4,1.9c-0.2,0.6-0.6,1.1-1.1,1.5
				s-1.1,0.8-1.9,1s-1.7,0.4-2.7,0.4c-0.5,0-1,0-1.4-0.1c-0.5-0.1-1-0.2-1.5-0.4s-1-0.5-1.5-0.9s-1-0.9-1.5-1.5L73.1,37.9z"/>
			<polygon class="st1" points="42.6,17.5 42.6,40.3 45.8,40.3 45.8,16.1 			"/>
			<polygon class="st1" points="48.8,17.5 48.8,40.3 52,40.3 52,16.1 			"/>
		</g>
		<g>
			<path class="st1" d="M159.8,40.3c-0.4-0.2-0.8-0.5-1.1-0.9s-0.4-0.8-0.4-1.3c-0.4,0.3-0.7,0.6-1.1,0.9c-0.4,0.3-0.8,0.6-1.2,0.8
				s-0.9,0.4-1.4,0.6c-0.5,0.2-1.1,0.2-1.8,0.2c-0.6,0-1.2-0.1-1.7-0.3s-0.9-0.5-1.3-0.8c-0.4-0.3-0.6-0.8-0.8-1.3s-0.3-1-0.3-1.6
				c0-0.7,0.1-1.3,0.4-1.9c0.3-0.6,0.6-1,1.1-1.5c0.5-0.4,1-0.8,1.6-1.2c0.6-0.3,1.3-0.6,2-0.9s1.4-0.5,2.2-0.7s1.5-0.4,2.2-0.6v-1
				c0-0.7-0.1-1.3-0.2-1.8s-0.3-0.9-0.5-1.2c-0.2-0.3-0.5-0.5-0.8-0.7s-0.7-0.2-1.2-0.2c-0.4,0-0.9,0.1-1.2,0.3
				c-0.4,0.2-0.7,0.4-1,0.7c-0.3,0.3-0.5,0.6-0.7,1s-0.3,0.8-0.4,1.3h-2.9c0.1-0.7,0.3-1.3,0.7-1.8s0.9-1,1.5-1.4s1.3-0.7,2-0.9
				c0.8-0.2,1.5-0.3,2.4-0.3c1,0,1.9,0.1,2.6,0.3c0.7,0.2,1.3,0.5,1.7,0.9s0.7,0.8,0.9,1.3s0.3,1.1,0.3,1.7v9.9
				c0,0.5,0.1,0.9,0.4,1.3c0.3,0.4,0.6,0.7,1.1,0.9L159.8,40.3L159.8,40.3z M158.3,31c-0.5,0.1-0.9,0.3-1.4,0.5s-1,0.4-1.4,0.6
				c-0.5,0.2-0.9,0.5-1.3,0.8c-0.4,0.3-0.8,0.6-1.1,0.9s-0.6,0.6-0.8,1c-0.2,0.3-0.3,0.7-0.3,1.1c0,0.4,0.1,0.8,0.2,1.1
				c0.1,0.3,0.3,0.7,0.6,0.9c0.2,0.3,0.5,0.5,0.8,0.6s0.6,0.2,1,0.2s0.7,0,1-0.1s0.6-0.2,0.9-0.4c0.3-0.2,0.6-0.3,0.9-0.6
				c0.3-0.2,0.6-0.4,0.9-0.7L158.3,31L158.3,31z"/>
			<path class="st1" d="M121.2,27c-0.2-0.6-0.5-1.1-0.9-1.5s-0.8-0.8-1.3-1s-1-0.4-1.6-0.4c-1.1,0-2.1,0.3-3.2,0.8s-2,1.3-3,2.4V24
				l-3.2,1.2v15.1h3.2V28.5c0.4-0.3,0.7-0.7,1.1-0.9c0.4-0.3,0.8-0.5,1.2-0.7c0.4-0.2,0.8-0.4,1.1-0.5c0.4-0.1,0.7-0.2,1.1-0.2
				s0.7,0.1,1,0.2s0.6,0.3,0.8,0.6c0.2,0.3,0.4,0.6,0.5,1s0.2,0.9,0.2,1.4v10.9h3.2V28.9C121.5,28.1,121.4,27.6,121.2,27z"/>
			<g>
				<path class="st1" d="M139.7,16.1L139.7,16.1L139.7,16.1z"/>
				<path class="st1" d="M136.5,25.5c-0.5-0.4-1-0.8-1.6-1.1c-0.6-0.3-1.3-0.4-2-0.4c-1.2,0-2.2,0.2-3.3,0.7c-1,0.5-1.9,1.1-2.7,1.9
					s-1.4,1.7-1.8,2.7s-0.7,2.1-0.7,3.2s0.2,2.1,0.5,3.1s0.8,1.8,1.4,2.6c0.6,0.7,1.3,1.3,2.1,1.8c0.8,0.4,1.7,0.7,2.6,0.7
					c0.4,0,0.9,0,1.4-0.1s0.9-0.2,1.4-0.4s0.9-0.4,1.3-0.6c0.4-0.2,0.8-0.5,1.2-0.8v1.5h3.2V16.1l-3.2,1.2L136.5,25.5L136.5,25.5z
					 M136.5,37.2c-0.2,0.2-0.4,0.4-0.7,0.6c-0.3,0.2-0.5,0.4-0.9,0.5c-0.3,0.2-0.6,0.3-1,0.4c-0.3,0.1-0.7,0.1-1,0.1
					c-0.7,0-1.4-0.2-2-0.6s-1.1-0.9-1.6-1.6s-0.8-1.4-1.1-2.3c-0.3-0.9-0.4-1.8-0.4-2.9c0-0.9,0.1-1.8,0.4-2.6c0.2-0.8,0.6-1.5,1-2
					c0.4-0.6,0.9-1,1.4-1.3c0.6-0.3,1.1-0.5,1.8-0.5c0.5,0,1,0.1,1.4,0.3c0.5,0.2,0.9,0.5,1.3,0.9c0.4,0.4,0.7,0.8,0.9,1.3
					s0.4,1.1,0.4,1.7L136.5,37.2L136.5,37.2z"/>
			</g>
			<g>
				<polygon class="st1" points="142.6,25.2 142.6,40.3 145.8,40.3 145.8,24.1 				"/>
			</g>
			<path class="st1" d="M177.6,27c-0.2-0.6-0.5-1.1-0.9-1.5s-0.8-0.8-1.3-1s-1-0.4-1.6-0.4c-1.1,0-2.1,0.3-3.2,0.8
				c-1,0.5-2,1.3-3,2.4V24l-3.2,1.2v15h3.2V28.5c0.4-0.3,0.7-0.7,1.1-0.9c0.4-0.3,0.8-0.5,1.2-0.7s0.8-0.4,1.1-0.5
				c0.4-0.1,0.7-0.2,1.1-0.2c0.4,0,0.7,0.1,1,0.2s0.6,0.3,0.8,0.6c0.2,0.3,0.4,0.6,0.5,1s0.2,0.9,0.2,1.4v10.9h3.2V28.9
				C177.9,28.1,177.8,27.6,177.6,27z"/>
		</g>
		<path class="st1" d="M144.2,16.1c0.9,0,1.6,0.7,1.6,1.6s-1.6,3.1-1.6,3.1s-1.6-2.2-1.6-3.1C142.6,16.9,143.4,16.1,144.2,16.1z"/>
		<path class="st2" d="M105,26.5c0-7.6-3.9-10.4-8.8-10.4c-4.8,0-8.8,2.8-8.8,10.4c0,3.8,3,9.7,5.5,13.8c-0.1-0.5-0.1-1.2-0.1-1.9
			c0-2.4,1.8-6.7,2.8-8.5h1.3c1,1.9,2.8,6.1,2.8,8.5c0,0.7,0,1.3-0.1,1.8C102,36.2,105,30.3,105,26.5z M96.2,27.6c0,0-2.2-3-2.2-4.2
			c0.1-1.2,1-2.2,2.2-2.2s2.2,1,2.2,2.2C98.4,24.6,96.2,27.6,96.2,27.6z"/>
	</g>
	<path class="st3" d="M94.8,42c0-0.4-0.1-0.7-0.1-1.1c0-1.2,0.7-3.4,1.5-5.2c0.8,1.8,1.4,3.9,1.4,5.2c0,0.4,0,0.7-0.1,1.1l-1.4,2.2
		L94.8,42z"/>
</g>
</svg>
