<?xml version="1.0" encoding="utf-8"?>
<!-- Generator: Adobe Illustrator 21.0.0, SVG Export Plug-In . SVG Version: 6.00 Build 0)  -->
<svg version="1.1" id="Layer_1" xmlns="http://www.w3.org/2000/svg" xmlns:xlink="http://www.w3.org/1999/xlink" x="0px" y="0px"
	 viewBox="0 0 197.297 80" style="enable-background:new 0 0 197.297 80;" xml:space="preserve">
<style type="text/css">
	.st0{fill:url(#SVGID_1_);}
	.st1{fill:#DCDCDC;}
	.st2{fill:#333333;}
	.st3{fill:url(#SVGID_2_);}
	.st4{fill:#969696;}
</style>
<g>
	<linearGradient id="SVGID_1_" gradientUnits="userSpaceOnUse" x1="98.7215" y1="15.3219" x2="98.7215" y2="22.4344">
		<stop  offset="0" style="stop-color:#0000A9"/>
		<stop  offset="1" style="stop-color:#000064"/>
	</linearGradient>
	<path class="st0" d="M95.623,17.735c0.451,0.612,1.204,0.993,1.965,0.993l0.056-0.001c0.39-0.002,0.786-0.123,1.092-0.336
		c0.311-0.211,0.56-0.518,0.701-0.864c0.073-0.181,0.117-0.36,0.131-0.535c0.019-0.204,0.009-0.381-0.031-0.543
		c-0.085-0.347-0.301-0.66-0.593-0.857c-0.158-0.108-0.336-0.182-0.518-0.218c0.18,0.064,0.344,0.163,0.475,0.29
		c0.459,0.424,0.543,1.131,0.205,1.721c-0.27,0.469-0.77,0.76-1.303,0.76c-0.055,0-0.11-0.003-0.158-0.009
		c-0.284-0.028-0.562-0.122-0.807-0.275c-0.225-0.144-0.418-0.34-0.577-0.586c-0.285-0.451-0.338-0.998-0.154-1.586
		c0.172-0.528,0.536-0.984,0.999-1.248c0.234-0.136,0.487-0.226,0.767-0.268l0.2-0.02l0.189-0.001l0.02,0.002
		c0.035,0.004,0.071,0.007,0.107,0.009c0.091,0.007,0.194,0.014,0.272,0.036c0.262,0.042,0.527,0.133,0.778,0.266
		c0.249,0.123,0.475,0.285,0.666,0.476c0.39,0.371,0.664,0.869,0.77,1.395c0.031,0.138,0.044,0.273,0.053,0.413l0.004,0.189
		l-0.004,0.241l-0.027,5.201c0.346-0.833,0.826-1.606,1.413-2.282c-0.006-1.836,0.013-2.87,0.013-2.911l-0.005-0.245l-0.02-0.313
		c-0.025-0.235-0.058-0.425-0.104-0.6c-0.196-0.783-0.633-1.504-1.234-2.031c-0.585-0.531-1.343-0.874-2.148-0.967
		c-0.145-0.024-0.298-0.025-0.459-0.027L98.258,13l-0.303,0.02l-0.316,0.053c-0.393,0.086-0.777,0.249-1.111,0.472
		c-0.675,0.45-1.161,1.146-1.332,1.91c-0.094,0.425-0.108,0.802-0.044,1.183C95.224,17.045,95.386,17.423,95.623,17.735z"/>
	<ellipse class="st1" cx="102.899" cy="48.077" rx="2.915" ry="0.852"/>
	<g>
		<path class="st2" d="M13.619,27.438h6.907c2.125,0,3.953,0.198,5.485,0.594c1.531,0.396,2.808,1.031,3.829,1.907
			c1.167,1,2.044,2.146,2.633,3.438c0.588,1.292,0.883,2.703,0.883,4.235c0,1.459-0.263,2.828-0.789,4.11
			c-0.526,1.281-1.297,2.399-2.313,3.352c-1.016,0.953-2.271,1.706-3.766,2.258c-1.495,0.552-3.206,0.828-5.133,0.828h-7.735V27.438
			z M17.103,46.643h3.704c1.167,0,2.266-0.193,3.297-0.579c1.031-0.385,1.93-0.958,2.696-1.719c0.766-0.76,1.37-1.695,1.813-2.805
			c0.443-1.109,0.664-2.393,0.664-3.852c0-1.281-0.209-2.456-0.625-3.524c-0.417-1.068-1-1.987-1.75-2.758
			c-0.75-0.771-1.644-1.37-2.68-1.797c-1.037-0.427-2.17-0.641-3.399-0.641h-3.719V46.643z"/>
		<path class="st2" d="M48.38,48.159c-0.417-0.208-0.769-0.503-1.055-0.883c-0.287-0.38-0.43-0.815-0.43-1.305
			c-0.375,0.281-0.742,0.573-1.102,0.875c-0.359,0.302-0.75,0.576-1.172,0.821c-0.422,0.245-0.891,0.445-1.407,0.601
			c-0.516,0.157-1.112,0.234-1.789,0.234c-0.625,0-1.191-0.102-1.696-0.305c-0.506-0.203-0.933-0.482-1.281-0.836
			c-0.349-0.354-0.62-0.776-0.812-1.265c-0.193-0.49-0.289-1.016-0.289-1.578c0-0.688,0.135-1.307,0.406-1.86
			c0.271-0.552,0.643-1.044,1.117-1.477c0.474-0.432,1.023-0.818,1.649-1.156s1.292-0.641,2-0.907
			c0.708-0.266,1.438-0.502,2.188-0.711c0.75-0.208,1.479-0.401,2.188-0.578v-1c0-0.729-0.052-1.344-0.156-1.844
			c-0.104-0.5-0.266-0.904-0.485-1.211c-0.219-0.307-0.497-0.526-0.836-0.656c-0.339-0.13-0.742-0.195-1.211-0.195
			c-0.448,0-0.859,0.089-1.235,0.266c-0.375,0.177-0.706,0.414-0.992,0.711c-0.287,0.297-0.521,0.646-0.703,1.047
			c-0.183,0.401-0.305,0.826-0.367,1.274h-2.907c0.083-0.687,0.32-1.302,0.711-1.844c0.391-0.542,0.883-0.997,1.477-1.367
			c0.594-0.37,1.268-0.654,2.024-0.852c0.755-0.198,1.539-0.297,2.352-0.297c1.042,0,1.917,0.101,2.625,0.305
			c0.708,0.203,1.276,0.487,1.703,0.852c0.427,0.365,0.732,0.81,0.914,1.336c0.182,0.526,0.274,1.107,0.274,1.742v9.876
			c0,0.49,0.143,0.925,0.43,1.305c0.286,0.38,0.638,0.675,1.055,0.883H48.38z M46.895,38.846c-0.459,0.146-0.933,0.312-1.422,0.5
			c-0.49,0.187-0.969,0.398-1.438,0.633c-0.469,0.234-0.917,0.487-1.344,0.758c-0.427,0.271-0.802,0.563-1.125,0.875
			c-0.323,0.312-0.578,0.641-0.766,0.984c-0.188,0.344-0.281,0.703-0.281,1.078c0,0.396,0.073,0.768,0.219,1.117
			c0.146,0.349,0.338,0.656,0.578,0.922c0.24,0.265,0.516,0.474,0.828,0.625c0.313,0.151,0.635,0.227,0.969,0.227
			c0.354,0,0.693-0.047,1.016-0.141c0.323-0.094,0.635-0.221,0.938-0.383c0.302-0.161,0.604-0.346,0.906-0.555
			c0.302-0.208,0.609-0.432,0.922-0.672V38.846z"/>
		<path class="st2" d="M79.431,48.159c-0.417-0.208-0.769-0.503-1.055-0.883c-0.287-0.38-0.43-0.815-0.43-1.305
			c-0.375,0.281-0.742,0.573-1.102,0.875c-0.359,0.302-0.75,0.576-1.172,0.821c-0.422,0.245-0.891,0.445-1.407,0.601
			c-0.516,0.157-1.112,0.234-1.789,0.234c-0.625,0-1.191-0.102-1.696-0.305c-0.506-0.203-0.933-0.482-1.281-0.836
			c-0.349-0.354-0.62-0.776-0.812-1.265c-0.193-0.49-0.289-1.016-0.289-1.578c0-0.688,0.135-1.307,0.406-1.86
			c0.271-0.552,0.643-1.044,1.117-1.477c0.474-0.432,1.023-0.818,1.649-1.156c0.625-0.338,1.292-0.641,2-0.907
			c0.708-0.266,1.438-0.502,2.188-0.711c0.75-0.208,1.479-0.401,2.188-0.578v-1c0-0.729-0.052-1.344-0.156-1.844
			c-0.104-0.5-0.266-0.904-0.485-1.211c-0.219-0.307-0.497-0.526-0.836-0.656c-0.339-0.13-0.742-0.195-1.211-0.195
			c-0.448,0-0.859,0.089-1.235,0.266c-0.375,0.177-0.706,0.414-0.992,0.711c-0.287,0.297-0.521,0.646-0.703,1.047
			c-0.183,0.401-0.305,0.826-0.367,1.274h-2.907c0.083-0.687,0.32-1.302,0.711-1.844c0.391-0.542,0.883-0.997,1.477-1.367
			c0.594-0.37,1.268-0.654,2.024-0.852c0.755-0.198,1.539-0.297,2.352-0.297c1.042,0,1.917,0.101,2.625,0.305
			c0.708,0.203,1.276,0.487,1.703,0.852c0.427,0.365,0.732,0.81,0.914,1.336c0.182,0.526,0.274,1.107,0.274,1.742v9.876
			c0,0.49,0.143,0.925,0.43,1.305c0.286,0.38,0.638,0.675,1.055,0.883H79.431z M77.947,38.846c-0.459,0.146-0.933,0.312-1.422,0.5
			c-0.49,0.187-0.969,0.398-1.438,0.633c-0.469,0.234-0.917,0.487-1.344,0.758c-0.427,0.271-0.802,0.563-1.125,0.875
			c-0.323,0.312-0.578,0.641-0.766,0.984c-0.188,0.344-0.281,0.703-0.281,1.078c0,0.396,0.073,0.768,0.219,1.117
			c0.146,0.349,0.338,0.656,0.578,0.922c0.24,0.265,0.516,0.474,0.828,0.625c0.313,0.151,0.635,0.227,0.969,0.227
			c0.354,0,0.693-0.047,1.016-0.141c0.323-0.094,0.635-0.221,0.938-0.383c0.302-0.161,0.604-0.346,0.906-0.555
			c0.302-0.208,0.609-0.432,0.922-0.672V38.846z"/>
		<path class="st2" d="M91.105,47.393c0.427,0,0.823-0.065,1.188-0.195c0.364-0.13,0.68-0.305,0.945-0.524s0.471-0.471,0.617-0.758
			c0.146-0.286,0.219-0.58,0.219-0.883c0-0.49-0.122-0.917-0.367-1.282c-0.245-0.364-0.568-0.69-0.969-0.977
			c-0.401-0.286-0.857-0.549-1.367-0.789c-0.511-0.239-1.031-0.487-1.563-0.742c-0.531-0.255-1.053-0.526-1.563-0.812
			c-0.511-0.286-0.966-0.622-1.367-1.008c-0.401-0.385-0.724-0.831-0.969-1.336c-0.245-0.505-0.367-1.096-0.367-1.774
			c0-0.635,0.135-1.227,0.406-1.774c0.271-0.547,0.648-1.018,1.133-1.414c0.484-0.396,1.06-0.706,1.727-0.93
			c0.667-0.224,1.396-0.336,2.188-0.336c0.532,0,1.026,0.037,1.485,0.109c0.458,0.073,0.909,0.214,1.352,0.422
			c0.443,0.208,0.883,0.508,1.32,0.898c0.438,0.391,0.901,0.899,1.391,1.524l-1.172,1.047c-0.604-0.99-1.279-1.727-2.024-2.211
			c-0.745-0.484-1.539-0.727-2.383-0.727c-0.459,0-0.875,0.055-1.25,0.164c-0.375,0.11-0.696,0.261-0.961,0.453
			c-0.266,0.193-0.474,0.42-0.625,0.68c-0.151,0.261-0.227,0.537-0.227,0.828c0,0.479,0.133,0.896,0.399,1.25
			c0.266,0.354,0.617,0.675,1.055,0.961c0.438,0.287,0.935,0.55,1.492,0.789c0.557,0.24,1.125,0.484,1.703,0.734
			c0.578,0.25,1.146,0.521,1.703,0.813c0.557,0.292,1.055,0.628,1.492,1.008c0.438,0.38,0.789,0.821,1.055,1.32
			c0.266,0.5,0.399,1.084,0.399,1.75c0,0.677-0.125,1.31-0.375,1.898c-0.25,0.589-0.628,1.099-1.133,1.531
			c-0.506,0.432-1.138,0.774-1.899,1.024c-0.761,0.25-1.656,0.375-2.688,0.375c-0.469,0-0.951-0.037-1.445-0.109
			c-0.495-0.073-0.992-0.216-1.492-0.43c-0.5-0.213-1-0.513-1.5-0.899c-0.5-0.385-0.99-0.89-1.469-1.516l1.297-1.172
			c0.385,0.542,0.755,1.003,1.109,1.383c0.354,0.38,0.716,0.693,1.086,0.938c0.37,0.245,0.75,0.422,1.141,0.531
			C90.222,47.339,90.646,47.393,91.105,47.393z"/>
	</g>
	<path class="st2" d="M163.726,48.159c-0.417-0.208-0.768-0.503-1.054-0.883c-0.287-0.38-0.43-0.815-0.43-1.305
		c-0.375,0.281-0.742,0.573-1.102,0.875c-0.359,0.302-0.75,0.576-1.172,0.821c-0.422,0.245-0.891,0.445-1.406,0.601
		c-0.516,0.157-1.112,0.234-1.789,0.234c-0.625,0-1.191-0.102-1.696-0.305c-0.506-0.203-0.932-0.482-1.281-0.836
		c-0.349-0.354-0.62-0.776-0.813-1.265c-0.193-0.49-0.289-1.016-0.289-1.578c0-0.688,0.135-1.307,0.406-1.86
		c0.271-0.552,0.643-1.044,1.117-1.477c0.474-0.432,1.024-0.818,1.649-1.156c0.625-0.338,1.292-0.641,2-0.907
		c0.708-0.266,1.438-0.502,2.188-0.711c0.75-0.208,1.479-0.401,2.188-0.578v-1c0-0.729-0.052-1.344-0.156-1.844
		s-0.265-0.904-0.485-1.211c-0.219-0.307-0.497-0.526-0.836-0.656c-0.339-0.13-0.742-0.195-1.211-0.195
		c-0.448,0-0.86,0.089-1.234,0.266c-0.375,0.177-0.706,0.414-0.992,0.711c-0.287,0.297-0.521,0.646-0.703,1.047
		c-0.182,0.401-0.305,0.826-0.368,1.274h-2.906c0.083-0.687,0.32-1.302,0.711-1.844c0.39-0.542,0.883-0.997,1.477-1.367
		c0.594-0.37,1.268-0.654,2.024-0.852c0.755-0.198,1.539-0.297,2.352-0.297c1.042,0,1.917,0.101,2.625,0.305
		c0.708,0.203,1.276,0.487,1.704,0.852c0.427,0.365,0.732,0.81,0.914,1.336c0.182,0.526,0.274,1.107,0.274,1.742v9.876
		c0,0.49,0.143,0.925,0.43,1.305c0.286,0.38,0.638,0.675,1.054,0.883H163.726z M162.241,38.846c-0.458,0.146-0.932,0.312-1.422,0.5
		c-0.49,0.187-0.969,0.398-1.437,0.633c-0.469,0.234-0.917,0.487-1.344,0.758c-0.427,0.271-0.802,0.563-1.125,0.875
		c-0.323,0.312-0.578,0.641-0.766,0.984c-0.187,0.344-0.281,0.703-0.281,1.078c0,0.396,0.073,0.768,0.219,1.117
		c0.146,0.349,0.338,0.656,0.579,0.922c0.239,0.265,0.516,0.474,0.828,0.625c0.312,0.151,0.635,0.227,0.969,0.227
		c0.354,0,0.693-0.047,1.016-0.141c0.323-0.094,0.635-0.221,0.938-0.383c0.302-0.161,0.604-0.346,0.907-0.555
		c0.302-0.208,0.61-0.432,0.922-0.672V38.846z"/>
	<linearGradient id="SVGID_2_" gradientUnits="userSpaceOnUse" x1="108.4904" y1="47.6264" x2="108.4904" y2="27.1931">
		<stop  offset="0" style="stop-color:#008C00"/>
		<stop  offset="1" style="stop-color:#00AF00"/>
	</linearGradient>
	<path class="st3" d="M104.253,48.077h-2.739c-0.091-5.181-0.611-21.291-0.611-21.291l0.011-0.499l0.041-0.63
		c0.044-0.417,0.108-0.837,0.216-1.243c0.408-1.635,1.316-3.133,2.567-4.23c1.232-1.117,2.825-1.83,4.462-2.018
		c0.409-0.067,0.818-0.056,1.231-0.064l0.644,0.047l0.637,0.109c0.843,0.183,1.648,0.526,2.357,1.001
		c1.42,0.946,2.465,2.426,2.834,4.072c0.183,0.827,0.238,1.641,0.089,2.525c-0.152,0.862-0.497,1.69-1.021,2.378
		c-1.027,1.396-2.736,2.207-4.407,2.17c-0.86-0.004-1.751-0.265-2.456-0.757c-0.714-0.483-1.267-1.175-1.582-1.952
		c-0.157-0.388-0.264-0.797-0.297-1.21c-0.037-0.404-0.029-0.829,0.075-1.253c0.204-0.836,0.721-1.565,1.401-2.025
		c0.681-0.463,1.508-0.667,2.304-0.541c0.814,0.127,1.523,0.644,1.883,1.325c0.362,0.674,0.403,1.508,0.036,2.156
		c-0.358,0.645-1.092,0.985-1.739,0.906c0.657-0.066,1.185-0.538,1.357-1.081c0.184-0.54,0.006-1.146-0.32-1.556
		c-0.329-0.42-0.841-0.645-1.319-0.631c-0.497,0.016-0.993,0.217-1.334,0.549c-0.723,0.668-0.744,1.723-0.276,2.537
		c0.465,0.806,1.366,1.234,2.207,1.135c0.463-0.046,0.898-0.197,1.277-0.433c0.377-0.241,0.684-0.572,0.917-0.934
		c0.467-0.741,0.513-1.62,0.23-2.524c-0.281-0.863-0.872-1.615-1.642-2.056c-0.382-0.222-0.8-0.369-1.228-0.435l-0.323-0.035
		l-0.326-0.002c-0.233,0.028-0.476,0.023-0.704,0.083c-0.466,0.075-0.91,0.239-1.321,0.456c-0.417,0.206-0.8,0.48-1.127,0.808
		c-0.672,0.64-1.124,1.486-1.304,2.371c-0.05,0.22-0.071,0.448-0.086,0.673l-0.008,0.34l0.007,0.472L104.253,48.077z"/>
	<path class="st2" d="M122.076,34.806c-0.208-0.588-0.495-1.102-0.859-1.539c-0.365-0.437-0.79-0.781-1.274-1.031
		c-0.485-0.25-1.008-0.375-1.571-0.375c-1.073,0-2.131,0.268-3.173,0.805c-1.042,0.537-2.047,1.346-3.016,2.43v-3.231l-3.188,1.244
		v15.051h3.188V36.314c0.354-0.344,0.724-0.656,1.109-0.938c0.386-0.281,0.773-0.523,1.165-0.727
		c0.39-0.203,0.773-0.362,1.149-0.477c0.374-0.115,0.728-0.172,1.063-0.172c0.375,0,0.716,0.07,1.023,0.211
		c0.307,0.141,0.576,0.347,0.805,0.617c0.229,0.271,0.406,0.607,0.531,1.008c0.125,0.401,0.188,0.867,0.188,1.399v10.923h3.172
		v-11.47C122.388,36.022,122.284,35.395,122.076,34.806z"/>
	<polygon class="st2" points="54.04,25.254 54.04,48.159 57.228,48.159 57.228,24.009 	"/>
	<g>
		<polygon class="st2" points="141.583,24 141.584,24.004 141.584,24 		"/>
		<path class="st2" d="M138.427,33.345c-0.5-0.448-1.039-0.807-1.617-1.078c-0.578-0.271-1.258-0.406-2.039-0.406
			c-1.157,0-2.243,0.24-3.258,0.719c-1.015,0.48-1.904,1.118-2.664,1.914c-0.76,0.797-1.362,1.706-1.805,2.727
			c-0.443,1.021-0.664,2.073-0.664,3.156c0,1.094,0.177,2.133,0.531,3.118c0.354,0.985,0.836,1.847,1.445,2.586
			c0.609,0.74,1.323,1.329,2.141,1.766c0.818,0.438,1.695,0.656,2.633,0.656c0.448,0,0.906-0.044,1.375-0.133
			c0.469-0.089,0.935-0.213,1.399-0.375c0.464-0.161,0.909-0.359,1.336-0.594c0.427-0.234,0.823-0.497,1.188-0.789v1.547h3.157
			V24.004l-3.157,1.232V33.345z M138.427,45.143c-0.198,0.219-0.43,0.427-0.696,0.625c-0.265,0.198-0.549,0.373-0.852,0.524
			c-0.302,0.151-0.622,0.271-0.961,0.359c-0.338,0.089-0.674,0.133-1.008,0.133c-0.698,0-1.352-0.19-1.961-0.57
			c-0.61-0.38-1.141-0.901-1.594-1.562c-0.453-0.662-0.81-1.435-1.07-2.321c-0.261-0.885-0.391-1.838-0.391-2.859
			c0-0.948,0.12-1.815,0.359-2.602c0.24-0.787,0.565-1.464,0.977-2.032c0.411-0.568,0.893-1.008,1.445-1.32
			c0.552-0.313,1.146-0.469,1.782-0.469c0.479,0,0.956,0.101,1.43,0.305c0.474,0.203,0.898,0.49,1.274,0.859
			c0.375,0.37,0.68,0.813,0.914,1.328c0.234,0.516,0.351,1.086,0.351,1.711V45.143z"/>
	</g>
	<g>
		<polygon class="st2" points="145.517,33.094 145.517,48.159 148.674,48.159 148.674,31.861 		"/>
		<path class="st2" d="M148.752,25.328c-0.094-0.219-0.224-0.411-0.391-0.578c-0.167-0.167-0.359-0.297-0.578-0.391
			c-0.219-0.094-0.453-0.141-0.703-0.141c-0.25,0-0.485,0.047-0.703,0.141c-0.219,0.094-0.412,0.224-0.579,0.391
			c-0.167,0.167-0.296,0.359-0.39,0.578c-0.094,0.219-0.141,0.453-0.141,0.703c0,0.25,0.047,0.484,0.141,0.703
			c0.094,0.219,0.224,0.412,0.39,0.578c0.167,0.167,0.359,0.297,0.579,0.391c0.219,0.094,0.453,0.141,0.703,0.141
			c0.25,0,0.485-0.047,0.703-0.141c0.219-0.094,0.411-0.224,0.578-0.391c0.167-0.166,0.297-0.359,0.391-0.578
			c0.094-0.219,0.14-0.453,0.14-0.703C148.892,25.781,148.845,25.547,148.752,25.328z"/>
	</g>
	<path class="st2" d="M183.985,34.806c-0.208-0.588-0.495-1.102-0.859-1.539c-0.365-0.437-0.789-0.781-1.274-1.031
		c-0.485-0.25-1.008-0.375-1.571-0.375c-1.073,0-2.13,0.268-3.172,0.805c-1.042,0.537-2.047,1.346-3.016,2.43v-3.222l-3.188,1.245
		v15.041h3.188V36.314c0.354-0.344,0.724-0.656,1.109-0.938c0.385-0.281,0.773-0.523,1.164-0.727
		c0.39-0.203,0.773-0.362,1.149-0.477c0.375-0.115,0.729-0.172,1.063-0.172c0.375,0,0.716,0.07,1.023,0.211
		c0.307,0.141,0.576,0.347,0.805,0.617c0.229,0.271,0.406,0.607,0.531,1.008c0.125,0.401,0.188,0.867,0.188,1.399v10.923h3.172
		v-11.47C184.297,36.022,184.193,35.395,183.985,34.806z"/>
	<polygon class="st2" points="61.219,25.254 61.219,48.159 64.407,48.159 64.407,24.009 	"/>
	<g>
		<path class="st4" d="M110.604,55.375v1.814c0.163-0.205,0.343-0.415,0.541-0.631c0.197-0.215,0.415-0.411,0.654-0.587
			c0.24-0.176,0.503-0.319,0.793-0.43c0.289-0.11,0.604-0.166,0.946-0.166c0.478,0,0.912,0.1,1.301,0.3
			c0.389,0.2,0.722,0.471,0.998,0.812c0.276,0.342,0.489,0.743,0.639,1.203c0.15,0.461,0.225,0.95,0.225,1.471
			c0,0.668-0.092,1.285-0.276,1.85s-0.447,1.053-0.789,1.463c-0.342,0.41-0.757,0.73-1.247,0.959
			c-0.489,0.229-1.036,0.343-1.64,0.343c-0.221,0-0.427-0.011-0.619-0.035c-0.192-0.024-0.373-0.059-0.544-0.106
			c-0.171-0.048-0.336-0.108-0.497-0.182c-0.161-0.074-0.322-0.163-0.485-0.268V67h-1.608V55.825L110.604,55.375z M110.604,61.424
			c0,0.242,0.053,0.469,0.158,0.682c0.105,0.213,0.252,0.399,0.441,0.56c0.19,0.161,0.415,0.287,0.678,0.378
			c0.263,0.092,0.552,0.138,0.868,0.138c0.3,0,0.582-0.076,0.848-0.229c0.266-0.153,0.497-0.369,0.694-0.651
			c0.197-0.281,0.352-0.616,0.465-1.005c0.113-0.389,0.169-0.82,0.169-1.294c0-0.594-0.052-1.113-0.157-1.557
			c-0.105-0.445-0.251-0.813-0.438-1.108c-0.187-0.294-0.408-0.515-0.662-0.662c-0.255-0.147-0.535-0.22-0.84-0.22
			c-0.231,0-0.454,0.035-0.666,0.106c-0.213,0.071-0.414,0.167-0.603,0.288c-0.19,0.121-0.364,0.26-0.525,0.418
			c-0.161,0.157-0.303,0.323-0.43,0.497V61.424z"/>
		<path class="st4" d="M121.992,63.774c-0.62,0-1.191-0.108-1.712-0.323c-0.52-0.216-0.97-0.509-1.349-0.88
			c-0.379-0.371-0.675-0.805-0.887-1.301c-0.213-0.497-0.32-1.029-0.32-1.597c0-0.594,0.106-1.153,0.32-1.676
			c0.213-0.523,0.508-0.979,0.887-1.368c0.378-0.389,0.828-0.696,1.349-0.919c0.52-0.223,1.091-0.335,1.712-0.335
			c0.615,0,1.182,0.103,1.699,0.308c0.518,0.205,0.966,0.487,1.345,0.844s0.674,0.777,0.887,1.258
			c0.213,0.481,0.319,0.998,0.319,1.55c0,0.61-0.106,1.184-0.319,1.723c-0.213,0.539-0.509,1.01-0.887,1.412
			c-0.378,0.403-0.827,0.72-1.345,0.954C123.173,63.658,122.606,63.774,121.992,63.774z M122.299,63.183
			c0.316,0,0.605-0.082,0.868-0.245c0.263-0.163,0.489-0.383,0.678-0.659c0.189-0.276,0.336-0.596,0.442-0.958
			c0.105-0.363,0.157-0.747,0.157-1.152c0-0.583-0.05-1.13-0.15-1.64c-0.1-0.51-0.263-0.954-0.489-1.333
			c-0.226-0.378-0.52-0.676-0.883-0.895c-0.363-0.218-0.805-0.327-1.325-0.327c-0.268,0-0.529,0.078-0.781,0.233
			c-0.252,0.155-0.475,0.366-0.666,0.634c-0.192,0.268-0.346,0.582-0.462,0.943c-0.115,0.36-0.173,0.743-0.173,1.147
			c0,0.589,0.062,1.141,0.185,1.656c0.124,0.515,0.304,0.965,0.544,1.349c0.24,0.383,0.531,0.687,0.875,0.911
			C121.464,63.072,121.857,63.183,122.299,63.183z"/>
		<path class="st4" d="M129.183,55.375l0.213,1.649c0.126-0.242,0.284-0.462,0.473-0.662c0.189-0.2,0.398-0.373,0.627-0.52
			c0.229-0.147,0.471-0.262,0.726-0.343c0.255-0.082,0.514-0.122,0.777-0.122c0.236,0,0.469,0.032,0.698,0.095
			c0.229,0.063,0.443,0.163,0.643,0.299l-0.505,1.349c-0.105-0.116-0.215-0.21-0.331-0.28c-0.115-0.071-0.234-0.126-0.355-0.166
			c-0.121-0.039-0.245-0.064-0.371-0.075c-0.126-0.01-0.252-0.015-0.378-0.015c-0.2,0-0.396,0.029-0.588,0.087
			c-0.192,0.058-0.375,0.143-0.548,0.256c-0.173,0.113-0.334,0.258-0.481,0.434c-0.147,0.176-0.276,0.383-0.387,0.619v5.623h-1.601
			v-7.784L129.183,55.375z"/>
		<path class="st4" d="M136.343,52.781v2.745h1.798v0.686h-1.798v5.686c0,0.121,0.022,0.234,0.067,0.339s0.105,0.197,0.182,0.276
			c0.076,0.079,0.167,0.141,0.272,0.185c0.105,0.045,0.221,0.068,0.347,0.068c0.178,0,0.341-0.045,0.489-0.134
			c0.147-0.089,0.276-0.199,0.387-0.331l0.402,0.268c-0.22,0.373-0.507,0.668-0.859,0.884c-0.352,0.215-0.789,0.323-1.309,0.323
			c-0.268,0-0.503-0.046-0.702-0.138c-0.2-0.092-0.364-0.221-0.493-0.387c-0.129-0.166-0.225-0.363-0.288-0.592
			c-0.063-0.229-0.095-0.482-0.095-0.761v-5.686h-1.404v-0.3l1.404-0.386V53.23L136.343,52.781z"/>
		<path class="st4" d="M144.899,63.601c-0.211-0.105-0.388-0.254-0.533-0.446c-0.145-0.192-0.217-0.411-0.217-0.658
			c-0.189,0.141-0.375,0.289-0.556,0.441c-0.181,0.152-0.378,0.29-0.591,0.414c-0.213,0.124-0.45,0.225-0.71,0.304
			c-0.261,0.078-0.562,0.118-0.903,0.118c-0.315,0-0.601-0.051-0.856-0.154c-0.255-0.103-0.47-0.243-0.647-0.422
			c-0.176-0.179-0.313-0.392-0.41-0.639c-0.097-0.247-0.146-0.513-0.146-0.797c0-0.347,0.069-0.66,0.205-0.938
			c0.137-0.279,0.325-0.527,0.564-0.745c0.239-0.218,0.516-0.413,0.832-0.583c0.315-0.171,0.652-0.324,1.01-0.458
			c0.357-0.134,0.726-0.254,1.104-0.359s0.747-0.203,1.104-0.292v-0.504c0-0.368-0.026-0.678-0.078-0.931
			c-0.053-0.253-0.134-0.456-0.245-0.612c-0.111-0.155-0.252-0.266-0.422-0.331c-0.171-0.066-0.375-0.099-0.611-0.099
			c-0.226,0-0.434,0.045-0.623,0.134c-0.19,0.089-0.357,0.209-0.501,0.359s-0.262,0.326-0.355,0.529
			c-0.092,0.202-0.154,0.417-0.185,0.643h-1.467c0.042-0.347,0.162-0.657,0.359-0.931c0.197-0.273,0.445-0.504,0.745-0.69
			c0.299-0.187,0.64-0.33,1.021-0.429c0.381-0.1,0.777-0.15,1.187-0.15c0.526,0,0.968,0.052,1.326,0.154
			c0.357,0.103,0.644,0.246,0.859,0.429c0.215,0.185,0.369,0.409,0.461,0.675c0.092,0.266,0.138,0.559,0.138,0.88v4.984
			c0,0.247,0.072,0.466,0.217,0.658c0.145,0.192,0.322,0.341,0.532,0.446H144.899z M144.149,58.901
			c-0.231,0.073-0.471,0.157-0.717,0.252c-0.247,0.095-0.489,0.201-0.726,0.319c-0.237,0.118-0.463,0.246-0.678,0.383
			c-0.216,0.137-0.405,0.284-0.568,0.441c-0.163,0.158-0.292,0.324-0.386,0.497c-0.095,0.174-0.142,0.355-0.142,0.545
			c0,0.199,0.036,0.387,0.11,0.564c0.074,0.176,0.171,0.331,0.292,0.465c0.121,0.134,0.261,0.24,0.418,0.316
			c0.158,0.076,0.321,0.114,0.489,0.114c0.179,0,0.35-0.024,0.513-0.071c0.163-0.048,0.32-0.112,0.473-0.194
			c0.152-0.082,0.304-0.175,0.457-0.28c0.152-0.105,0.308-0.218,0.465-0.34V58.901z"/>
		<path class="st4" d="M149.235,63.601h-1.608V51.866l1.608-0.458V63.601z"/>
		<path class="st4" d="M151.648,62.181c0.115,0,0.225,0.023,0.331,0.068c0.105,0.045,0.197,0.104,0.276,0.177
			c0.079,0.074,0.141,0.162,0.185,0.264s0.067,0.209,0.067,0.319c0,0.121-0.022,0.232-0.067,0.331
			c-0.045,0.1-0.106,0.189-0.185,0.264c-0.079,0.076-0.171,0.136-0.276,0.178c-0.106,0.042-0.216,0.063-0.331,0.063
			c-0.121,0-0.234-0.021-0.34-0.063s-0.197-0.101-0.276-0.178c-0.079-0.076-0.141-0.164-0.185-0.264
			c-0.045-0.099-0.067-0.21-0.067-0.331c0-0.11,0.022-0.217,0.067-0.319s0.106-0.19,0.185-0.264
			c0.079-0.073,0.171-0.132,0.276-0.177C151.413,62.204,151.527,62.181,151.648,62.181z"/>
		<path class="st4" d="M159.352,57.796c-0.058-0.21-0.137-0.423-0.237-0.639c-0.099-0.215-0.227-0.411-0.382-0.587
			c-0.155-0.176-0.338-0.319-0.548-0.43c-0.21-0.11-0.457-0.166-0.741-0.166c-0.363,0-0.689,0.074-0.978,0.221
			c-0.289,0.147-0.534,0.347-0.733,0.599c-0.2,0.252-0.352,0.547-0.457,0.884c-0.105,0.336-0.158,0.694-0.158,1.072
			c0,0.516,0.067,1.003,0.201,1.463c0.134,0.461,0.323,0.864,0.568,1.211c0.245,0.347,0.539,0.622,0.883,0.824
			c0.345,0.202,0.729,0.303,1.155,0.303c0.373,0,0.698-0.059,0.974-0.177c0.276-0.118,0.515-0.278,0.718-0.477
			c0.202-0.2,0.377-0.433,0.524-0.698c0.147-0.266,0.278-0.545,0.394-0.84l0.481,0.197c-0.136,0.504-0.32,0.957-0.552,1.356
			c-0.232,0.4-0.504,0.738-0.817,1.013c-0.313,0.276-0.665,0.487-1.057,0.631c-0.392,0.145-0.816,0.217-1.273,0.217
			c-0.531,0-1.028-0.104-1.491-0.311c-0.462-0.208-0.864-0.493-1.206-0.855c-0.342-0.363-0.613-0.786-0.812-1.27
			c-0.2-0.484-0.3-1.002-0.3-1.554c0-0.404,0.05-0.795,0.15-1.171c0.099-0.376,0.24-0.727,0.422-1.053
			c0.182-0.326,0.399-0.623,0.655-0.891c0.255-0.268,0.537-0.498,0.848-0.69c0.31-0.192,0.643-0.34,0.998-0.445
			c0.355-0.105,0.724-0.158,1.108-0.158c0.321,0,0.629,0.037,0.923,0.111c0.294,0.073,0.565,0.177,0.812,0.311
			c0.247,0.134,0.466,0.299,0.655,0.497c0.189,0.197,0.336,0.417,0.441,0.659L159.352,57.796z"/>
		<path class="st4" d="M166.283,63.774c-0.62,0-1.191-0.108-1.712-0.323c-0.52-0.216-0.97-0.509-1.349-0.88
			c-0.379-0.371-0.675-0.805-0.887-1.301c-0.213-0.497-0.32-1.029-0.32-1.597c0-0.594,0.106-1.153,0.32-1.676
			c0.213-0.523,0.508-0.979,0.887-1.368c0.378-0.389,0.828-0.696,1.349-0.919c0.52-0.223,1.091-0.335,1.712-0.335
			c0.615,0,1.182,0.103,1.699,0.308c0.518,0.205,0.966,0.487,1.345,0.844s0.674,0.777,0.887,1.258
			c0.213,0.481,0.319,0.998,0.319,1.55c0,0.61-0.106,1.184-0.319,1.723c-0.213,0.539-0.509,1.01-0.887,1.412
			c-0.378,0.403-0.827,0.72-1.345,0.954C167.464,63.658,166.897,63.774,166.283,63.774z M166.59,63.183
			c0.316,0,0.605-0.082,0.868-0.245c0.263-0.163,0.489-0.383,0.678-0.659c0.189-0.276,0.336-0.596,0.442-0.958
			c0.105-0.363,0.157-0.747,0.157-1.152c0-0.583-0.05-1.13-0.15-1.64c-0.1-0.51-0.263-0.954-0.489-1.333
			c-0.226-0.378-0.52-0.676-0.883-0.895c-0.363-0.218-0.805-0.327-1.325-0.327c-0.268,0-0.529,0.078-0.781,0.233
			c-0.252,0.155-0.475,0.366-0.666,0.634c-0.192,0.268-0.346,0.582-0.462,0.943c-0.115,0.36-0.173,0.743-0.173,1.147
			c0,0.589,0.062,1.141,0.185,1.656c0.124,0.515,0.304,0.965,0.544,1.349c0.24,0.383,0.531,0.687,0.875,0.911
			C165.755,63.072,166.148,63.183,166.59,63.183z"/>
		<path class="st4" d="M173.695,55.375v1.672c0.205-0.221,0.436-0.433,0.694-0.635c0.257-0.202,0.523-0.381,0.796-0.536
			c0.274-0.155,0.547-0.277,0.82-0.366c0.273-0.089,0.534-0.134,0.781-0.134c0.236,0,0.477,0.042,0.722,0.126
			c0.245,0.085,0.47,0.203,0.678,0.355c0.208,0.152,0.386,0.333,0.536,0.54c0.15,0.208,0.248,0.435,0.296,0.682
			c0.131-0.237,0.314-0.459,0.548-0.667c0.234-0.208,0.493-0.387,0.777-0.54c0.284-0.152,0.585-0.273,0.903-0.362
			c0.318-0.089,0.629-0.134,0.934-0.134c0.304,0,0.59,0.068,0.855,0.201c0.266,0.134,0.498,0.315,0.698,0.544
			c0.199,0.229,0.357,0.497,0.473,0.805c0.115,0.308,0.173,0.635,0.173,0.982v5.694h-1.601v-5.474c0-0.225-0.038-0.44-0.115-0.643
			c-0.076-0.202-0.18-0.38-0.311-0.532c-0.131-0.153-0.285-0.274-0.461-0.363c-0.176-0.089-0.362-0.134-0.556-0.134
			c-0.221,0-0.446,0.03-0.675,0.09c-0.229,0.061-0.445,0.143-0.65,0.248s-0.392,0.227-0.56,0.367
			c-0.168,0.139-0.303,0.288-0.403,0.445v5.994h-1.601v-5.474c0-0.225-0.039-0.44-0.118-0.643c-0.079-0.202-0.184-0.38-0.315-0.532
			c-0.131-0.153-0.287-0.274-0.466-0.363c-0.178-0.089-0.365-0.134-0.56-0.134c-0.205,0-0.417,0.031-0.634,0.094
			c-0.218,0.063-0.431,0.147-0.639,0.252c-0.208,0.106-0.401,0.227-0.58,0.367c-0.179,0.139-0.326,0.285-0.442,0.438v5.994h-1.608
			v-7.776L173.695,55.375z"/>
	</g>
</g>
</svg>
