<?xml version="1.0" encoding="utf-8"?>
<!-- Generator: Adobe Illustrator 16.0.0, SVG Export Plug-In . SVG Version: 6.00 Build 0)  -->
<!DOCTYPE svg PUBLIC "-//W3C//DTD SVG 1.1//EN" "http://www.w3.org/Graphics/SVG/1.1/DTD/svg11.dtd">
<svg version="1.1" id="Layer_1" xmlns="http://www.w3.org/2000/svg" xmlns:xlink="http://www.w3.org/1999/xlink" x="0px" y="0px"
	 width="20.884px" height="18px" viewBox="0 0 20.884 18" enable-background="new 0 0 20.884 18" xml:space="preserve">
<g>
	<g>
		<path id="Facebook_Places_9_" fill="#323232" d="M11.697,4.641c-0.063-0.232-0.188-0.479-0.279-0.695
			C10.307,1.276,7.879,0.32,5.919,0.32c-2.624,0-5.514,1.759-5.899,5.386v0.741c0,0.031,0.011,0.309,0.025,0.447
			c0.217,1.728,1.58,3.565,2.599,5.293c1.097,1.853,2.233,3.674,3.36,5.494c0.693-1.188,1.387-2.393,2.064-3.551
			c0.186-0.34,0.399-0.679,0.584-1.003c0.125-0.216,0.361-0.433,0.469-0.632c1.096-2.007,2.859-4.028,2.859-6.019V5.659
			C11.98,5.443,11.712,4.687,11.697,4.641z M5.967,8.36c-0.771,0-1.615-0.386-2.032-1.451C3.873,6.74,3.877,6.4,3.877,6.369V5.89
			c0-1.357,1.153-1.975,2.156-1.975c1.234,0,2.189,0.988,2.189,2.223C8.223,7.372,7.201,8.36,5.967,8.36z"/>
	</g>
</g>
</svg>
