<?xml version="1.0" encoding="utf-8"?>
<!-- Generator: Adobe Illustrator 16.0.0, SVG Export Plug-In . SVG Version: 6.00 Build 0)  -->
<!DOCTYPE svg PUBLIC "-//W3C//DTD SVG 1.1//EN" "http://www.w3.org/Graphics/SVG/1.1/DTD/svg11.dtd">
<svg version="1.1" id="Layer_1" xmlns="http://www.w3.org/2000/svg" xmlns:xlink="http://www.w3.org/1999/xlink" x="0px" y="0px"
	 width="126px" height="93px" viewBox="0 0 126 93" enable-background="new 0 0 126 93" xml:space="preserve">
<g>
	<rect x="1" y="1" fill="#F6F6F6" width="126" height="93"/>
	<g opacity="0.25">
		<path d="M82.934,30.725H45.066c-1.521,0-2.753,1.227-2.753,2.739v28.073c0,1.512,1.233,2.738,2.753,2.738h37.868
			c1.521,0,2.754-1.228,2.754-2.739V33.464C85.688,31.952,84.455,30.725,82.934,30.725z M82.934,33.464v19.917l-5.428-4.904
			c-0.814-0.738-2.07-0.709-2.852,0.065l-5.491,5.461l-10.83-12.864c-0.819-0.972-2.318-0.982-3.149-0.02L45.066,52.811V33.464
			H82.934z M71.229,40.652c0-2.081,1.696-3.766,3.789-3.766c2.092,0,3.785,1.688,3.785,3.766c0,2.08-1.693,3.767-3.785,3.767
			C72.925,44.419,71.229,42.732,71.229,40.652z"/>
	</g>
</g>
</svg>
