<?xml version="1.0" encoding="utf-8"?>
<!-- Generator: Adobe Illustrator 16.0.0, SVG Export Plug-In . SVG Version: 6.00 Build 0)  -->
<!DOCTYPE svg PUBLIC "-//W3C//DTD SVG 1.1//EN" "http://www.w3.org/Graphics/SVG/1.1/DTD/svg11.dtd">
<svg version="1.1" id="Layer_1" xmlns="http://www.w3.org/2000/svg" xmlns:xlink="http://www.w3.org/1999/xlink" x="0px" y="0px"
	 width="20px" height="20px" viewBox="0 0 20 20" enable-background="new 0 0 20 20" xml:space="preserve">
<g>
	<path fill="#FFFFFF" d="M14.759,12.385c-0.781,0-1.481,0.328-1.981,0.854l-5.832-2.857c0.021-0.132,0.031-0.267,0.031-0.409
		c0-0.135-0.013-0.267-0.03-0.399l5.824-2.824c0.497,0.53,1.205,0.863,1.988,0.863c1.515,0,2.741-1.227,2.741-2.738
		c0-1.513-1.227-2.738-2.741-2.738c-1.513,0-2.736,1.227-2.736,2.738c0,0.137,0.015,0.267,0.027,0.398L6.229,8.097
		c-0.496-0.529-1.203-0.861-1.99-0.861C2.725,7.235,1.5,8.462,1.5,9.975s1.225,2.738,2.739,2.738c0.782,0,1.483-0.324,1.983-0.854
		l5.833,2.857c-0.022,0.135-0.035,0.269-0.035,0.41c0,1.513,1.226,2.737,2.737,2.737c1.515,0,2.741-1.225,2.741-2.737
		C17.499,13.613,16.273,12.385,14.759,12.385z"/>
</g>
</svg>
