<?xml version="1.0" encoding="utf-8"?>
<!-- Generator: Adobe Illustrator 16.0.0, SVG Export Plug-In . SVG Version: 6.00 Build 0)  -->
<!DOCTYPE svg PUBLIC "-//W3C//DTD SVG 1.1//EN" "http://www.w3.org/Graphics/SVG/1.1/DTD/svg11.dtd">
<svg version="1.1" id="Layer_1" xmlns="http://www.w3.org/2000/svg" xmlns:xlink="http://www.w3.org/1999/xlink" x="0px" y="0px"
	 width="16.2px" height="15.895px" viewBox="0 0 16.2 15.895" enable-background="new 0 0 16.2 15.895" xml:space="preserve">
<g opacity="0.75">
	<path d="M12.913,10.131c-0.715,0-1.356,0.3-1.813,0.781L5.762,8.298c0.02-0.12,0.029-0.244,0.029-0.374
		c0-0.123-0.012-0.244-0.028-0.365l5.329-2.584c0.455,0.485,1.102,0.79,1.82,0.79c1.385,0,2.508-1.123,2.508-2.505
		c0-1.386-1.123-2.507-2.508-2.507c-1.387,0-2.506,1.122-2.506,2.507c0,0.123,0.014,0.243,0.025,0.363L5.107,6.206
		C4.652,5.722,4.006,5.418,3.286,5.418c-1.385,0-2.506,1.121-2.506,2.506c0,1.384,1.121,2.507,2.506,2.507
		c0.715,0,1.357-0.298,1.815-0.782l5.339,2.615c-0.021,0.123-0.033,0.246-0.033,0.373c0,1.387,1.121,2.507,2.506,2.507
		s2.508-1.12,2.508-2.507C15.42,11.252,14.297,10.131,12.913,10.131z"/>
</g>
</svg>
