<?xml version="1.0" encoding="utf-8"?>
<!-- Generator: Adobe Illustrator 16.0.0, SVG Export Plug-In . SVG Version: 6.00 Build 0)  -->
<!DOCTYPE svg PUBLIC "-//W3C//DTD SVG 1.1//EN" "http://www.w3.org/Graphics/SVG/1.1/DTD/svg11.dtd">
<svg version="1.1" id="Layer_1" xmlns="http://www.w3.org/2000/svg" xmlns:xlink="http://www.w3.org/1999/xlink" x="0px" y="0px"
	 width="20px" height="20px" viewBox="0 0 20 20" enable-background="new 0 0 20 20" xml:space="preserve">
<g opacity="0.75">
	<path d="M15.259,12.383c-0.781,0-1.481,0.33-1.979,0.855L7.445,10.38c0.021-0.131,0.031-0.267,0.031-0.409
		c0-0.134-0.014-0.267-0.029-0.398l5.824-2.824c0.495,0.529,1.202,0.863,1.987,0.863C16.773,7.612,18,6.385,18,4.874
		c0-1.514-1.227-2.739-2.741-2.739c-1.517,0-2.737,1.227-2.737,2.739c0,0.135,0.015,0.267,0.026,0.398L6.729,8.096
		c-0.497-0.529-1.204-0.862-1.99-0.862C3.224,7.233,2,8.459,2,9.972c0,1.512,1.224,2.741,2.738,2.741
		c0.781,0,1.483-0.326,1.983-0.855l5.833,2.857c-0.021,0.137-0.035,0.27-0.035,0.41c0,1.516,1.225,2.74,2.737,2.74
		c1.515,0,2.741-1.225,2.741-2.74C17.998,13.611,16.771,12.383,15.259,12.383z"/>
</g>
</svg>
