<?xml version="1.0" encoding="utf-8"?>
<!-- Generator: Adobe Illustrator 16.0.0, SVG Export Plug-In . SVG Version: 6.00 Build 0)  -->
<!DOCTYPE svg PUBLIC "-//W3C//DTD SVG 1.1//EN" "http://www.w3.org/Graphics/SVG/1.1/DTD/svg11.dtd">
<svg version="1.1" id="Layer_1" xmlns="http://www.w3.org/2000/svg" xmlns:xlink="http://www.w3.org/1999/xlink" x="0px" y="0px"
	 width="250px" height="250px" viewBox="0 0 250 250" enable-background="new 0 0 250 250" xml:space="preserve">
<g>
	<rect fill="#C71919" width="250" height="189"/>
	<g>
		<g>
			<path fill="#191919" d="M23.2,215.423c-0.789,0.37-1.69,0.556-2.703,0.556c-0.722,0-1.378-0.127-1.968-0.381
				c-0.59-0.254-1.092-0.606-1.508-1.059s-0.737-0.988-0.963-1.611s-0.338-1.303-0.338-2.039c0-0.774,0.12-1.496,0.36-2.164
				c0.24-0.668,0.583-1.248,1.03-1.74c0.447-0.491,0.988-0.877,1.622-1.157c0.635-0.281,1.347-0.421,2.136-0.421
				c0.87,0,1.647,0.133,2.332,0.398v1.012c-0.732-0.364-1.514-0.549-2.346-0.549c-0.661,0-1.248,0.114-1.761,0.342
				c-0.514,0.229-0.946,0.548-1.298,0.953c-0.352,0.406-0.62,0.888-0.806,1.439c-0.186,0.555-0.278,1.158-0.278,1.814
				c0,0.59,0.083,1.145,0.25,1.666c0.166,0.52,0.412,0.975,0.738,1.365c0.326,0.389,0.731,0.697,1.216,0.926s1.048,0.343,1.69,0.343
				c0.984,0,1.849-0.206,2.595-0.62V215.423z"/>
			<path fill="#191919" d="M29.438,215.801v-1.298H29.41c-0.237,0.466-0.562,0.827-0.973,1.084s-0.876,0.386-1.394,0.386
				c-0.352,0-0.669-0.051-0.952-0.149c-0.283-0.099-0.523-0.241-0.72-0.425c-0.197-0.184-0.349-0.402-0.456-0.659
				s-0.161-0.539-0.161-0.849c0-0.66,0.204-1.188,0.613-1.58c0.409-0.393,1.027-0.646,1.854-0.767l2.218-0.321
				c0-1.4-0.544-2.104-1.633-2.104c-0.851,0-1.64,0.313-2.367,0.935v-0.997c0.152-0.109,0.324-0.209,0.517-0.297
				c0.192-0.088,0.396-0.164,0.609-0.229c0.213-0.065,0.434-0.113,0.66-0.149s0.445-0.054,0.66-0.054
				c0.813,0,1.427,0.229,1.843,0.685s0.624,1.136,0.624,2.04v4.748H29.438L29.438,215.801z M27.556,212.258
				c-0.328,0.047-0.608,0.106-0.841,0.178c-0.233,0.072-0.426,0.168-0.578,0.289c-0.152,0.121-0.264,0.271-0.335,0.449
				c-0.071,0.178-0.107,0.396-0.107,0.659c0,0.194,0.034,0.376,0.103,0.542c0.069,0.166,0.169,0.311,0.3,0.432
				c0.13,0.121,0.29,0.215,0.478,0.281s0.4,0.1,0.638,0.1c0.323,0,0.62-0.062,0.891-0.186c0.271-0.123,0.505-0.295,0.703-0.514
				c0.197-0.219,0.352-0.479,0.463-0.783c0.111-0.305,0.167-0.635,0.167-0.992v-0.72L27.556,212.258z"/>
			<path fill="#191919" d="M32.547,215.801v-10.809h0.913v10.809H32.547z"/>
			<path fill="#191919" d="M35.813,215.801v-10.809h0.913v10.809H35.813z"/>
			<path fill="#191919" d="M50.451,211.693c0,2.856-1.255,4.285-3.765,4.285c-2.391,0-3.586-1.375-3.586-4.129v-6.273h0.948v6.189
				c0,1.12,0.226,1.961,0.678,2.517c0.451,0.556,1.15,0.834,2.096,0.834c1.787,0,2.681-1.083,2.681-3.251v-6.289h0.948V211.693
				L50.451,211.693z"/>
			<path fill="#191919" d="M52.576,214.303c0.171,0.129,0.36,0.244,0.567,0.348c0.207,0.103,0.418,0.188,0.635,0.257
				c0.216,0.067,0.434,0.12,0.652,0.155c0.219,0.037,0.428,0.055,0.627,0.055c0.775,0,1.354-0.149,1.74-0.449
				c0.386-0.3,0.578-0.729,0.578-1.29c0-0.271-0.045-0.508-0.136-0.71c-0.091-0.202-0.23-0.391-0.42-0.566
				c-0.19-0.177-0.43-0.351-0.72-0.523s-0.632-0.369-1.027-0.588c-0.438-0.238-0.812-0.463-1.123-0.674
				c-0.311-0.213-0.565-0.428-0.763-0.648c-0.197-0.222-0.342-0.461-0.435-0.717c-0.093-0.258-0.139-0.549-0.139-0.877
				c0-0.414,0.088-0.785,0.264-1.113s0.414-0.607,0.713-0.838c0.299-0.23,0.65-0.406,1.052-0.531
				c0.401-0.123,0.831-0.185,1.287-0.185c0.804,0,1.476,0.11,2.018,0.335v1.048c-0.604-0.347-1.312-0.521-2.125-0.521
				c-0.304,0-0.59,0.037-0.859,0.11s-0.504,0.183-0.706,0.324c-0.202,0.142-0.361,0.319-0.478,0.53
				c-0.117,0.212-0.175,0.457-0.175,0.738c0,0.267,0.039,0.494,0.118,0.688c0.079,0.191,0.204,0.374,0.378,0.545
				c0.173,0.172,0.401,0.342,0.685,0.51c0.283,0.169,0.628,0.363,1.037,0.582c0.428,0.229,0.801,0.449,1.12,0.666
				s0.583,0.442,0.795,0.678c0.211,0.234,0.37,0.484,0.474,0.748s0.157,0.559,0.157,0.881c0,0.447-0.083,0.84-0.25,1.181
				c-0.166,0.34-0.399,0.622-0.699,0.846c-0.299,0.224-0.656,0.392-1.069,0.506s-0.868,0.171-1.362,0.171
				c-0.162,0-0.354-0.013-0.578-0.039c-0.224-0.025-0.449-0.063-0.677-0.113s-0.446-0.109-0.652-0.178
				c-0.207-0.069-0.375-0.146-0.503-0.226L52.576,214.303L52.576,214.303z"/>
			<path fill="#C71919" d="M23.642,229.865h-2.745v2.746h-1.44v-2.746h-2.76v-1.447h2.76v-2.76h1.44v2.76h2.745V229.865z"/>
			<path fill="#C71919" d="M31.256,222.871v10.453H29.01v-7.915c-0.124,0.108-0.27,0.213-0.438,0.31
				c-0.168,0.098-0.348,0.187-0.538,0.266c-0.19,0.078-0.388,0.146-0.592,0.199c-0.205,0.056-0.406,0.094-0.606,0.117v-1.896
				c0.584-0.173,1.136-0.392,1.654-0.656c0.518-0.265,0.986-0.56,1.405-0.877L31.256,222.871L31.256,222.871z"/>
			<path fill="#C71919" d="M35.677,233.502c-0.371,0-0.68-0.113-0.927-0.342c-0.248-0.229-0.371-0.51-0.371-0.842
				c0-0.342,0.127-0.623,0.382-0.842c0.254-0.22,0.571-0.328,0.952-0.328c0.385,0,0.7,0.11,0.945,0.332
				c0.245,0.221,0.367,0.5,0.367,0.838c0,0.348-0.125,0.631-0.375,0.852C36.401,233.393,36.077,233.502,35.677,233.502z"/>
			<path fill="#C71919" d="M45.481,224.396c-0.456,0.821-0.865,1.594-1.227,2.313c-0.361,0.72-0.68,1.431-0.955,2.131
				c-0.276,0.701-0.511,1.415-0.706,2.14c-0.195,0.727-0.354,1.506-0.478,2.344h-2.353c0.133-0.795,0.309-1.561,0.528-2.297
				c0.218-0.736,0.472-1.451,0.759-2.144c0.287-0.692,0.606-1.364,0.955-2.021c0.35-0.655,0.719-1.297,1.109-1.924h-4.749v-1.84
				h7.116L45.481,224.396L45.481,224.396z"/>
			<path fill="#C71919" d="M52.012,222.871v10.453h-2.246v-7.915c-0.124,0.108-0.27,0.213-0.438,0.31
				c-0.168,0.098-0.348,0.187-0.538,0.266c-0.19,0.078-0.388,0.146-0.592,0.199c-0.205,0.056-0.406,0.094-0.606,0.117v-1.896
				c0.584-0.173,1.136-0.392,1.654-0.656s0.986-0.56,1.405-0.877L52.012,222.871L52.012,222.871z"/>
			<path fill="#C71919" d="M55.313,232.988v-1.961c0.685,0.5,1.483,0.748,2.396,0.748c0.575,0,1.023-0.123,1.344-0.369
				c0.321-0.248,0.481-0.592,0.481-1.034c0-0.456-0.198-0.808-0.595-1.056s-0.942-0.371-1.636-0.371h-0.949v-1.726h0.877
				c1.331,0,1.996-0.442,1.996-1.325c0-0.832-0.511-1.248-1.533-1.248c-0.685,0-1.35,0.221-1.997,0.662v-1.84
				c0.718-0.359,1.554-0.542,2.51-0.542c1.046,0,1.86,0.235,2.442,0.706c0.583,0.471,0.874,1.081,0.874,1.833
				c0,1.336-0.677,2.172-2.032,2.511v0.034c0.722,0.091,1.292,0.354,1.711,0.788s0.627,0.969,0.627,1.602
				c0,0.955-0.349,1.711-1.048,2.268c-0.699,0.557-1.664,0.834-2.895,0.834C56.833,233.502,55.974,233.331,55.313,232.988z"/>
			<path fill="#C71919" d="M64.832,233.502c-0.371,0-0.68-0.113-0.927-0.342c-0.248-0.229-0.371-0.51-0.371-0.842
				c0-0.342,0.127-0.623,0.382-0.842c0.254-0.22,0.571-0.328,0.952-0.328c0.385,0,0.7,0.11,0.945,0.332
				c0.245,0.221,0.367,0.5,0.367,0.838c0,0.348-0.125,0.631-0.375,0.852C65.556,233.393,65.231,233.502,64.832,233.502z"/>
			<path fill="#C71919" d="M74.636,224.396c-0.456,0.821-0.865,1.594-1.227,2.313c-0.361,0.72-0.68,1.431-0.955,2.131
				c-0.276,0.701-0.511,1.415-0.706,2.14c-0.195,0.727-0.354,1.506-0.478,2.344h-2.353c0.133-0.795,0.309-1.561,0.528-2.297
				c0.218-0.736,0.472-1.451,0.759-2.144s0.606-1.364,0.955-2.021c0.35-0.655,0.719-1.297,1.109-1.924h-4.749v-1.84h7.116
				L74.636,224.396L74.636,224.396z"/>
			<path fill="#C71919" d="M76.069,232.988v-1.961c0.685,0.5,1.483,0.748,2.396,0.748c0.575,0,1.023-0.123,1.344-0.369
				c0.321-0.248,0.481-0.592,0.481-1.034c0-0.456-0.198-0.808-0.595-1.056s-0.942-0.371-1.636-0.371H77.11v-1.726h0.877
				c1.331,0,1.996-0.442,1.996-1.325c0-0.832-0.511-1.248-1.533-1.248c-0.685,0-1.35,0.221-1.997,0.662v-1.84
				c0.718-0.359,1.554-0.542,2.51-0.542c1.046,0,1.86,0.235,2.442,0.706c0.583,0.471,0.874,1.081,0.874,1.833
				c0,1.336-0.677,2.172-2.032,2.511v0.034c0.722,0.091,1.292,0.354,1.711,0.788s0.627,0.969,0.627,1.602
				c0,0.955-0.349,1.711-1.048,2.268c-0.699,0.557-1.664,0.834-2.895,0.834C77.588,233.502,76.729,233.331,76.069,232.988z"/>
			<path fill="#C71919" d="M91.435,224.396c-0.456,0.821-0.865,1.594-1.227,2.313c-0.361,0.72-0.68,1.431-0.955,2.131
				c-0.276,0.701-0.511,1.415-0.706,2.14c-0.195,0.727-0.354,1.506-0.478,2.344h-2.353c0.133-0.795,0.309-1.561,0.528-2.297
				c0.218-0.736,0.472-1.451,0.759-2.144s0.606-1.364,0.955-2.021c0.35-0.655,0.719-1.297,1.109-1.924h-4.749v-1.84h7.116
				L91.435,224.396L91.435,224.396z"/>
			<path fill="#C71919" d="M93.987,233.502c-0.371,0-0.68-0.113-0.927-0.342c-0.248-0.229-0.371-0.51-0.371-0.842
				c0-0.342,0.127-0.623,0.382-0.842c0.254-0.22,0.571-0.328,0.952-0.328c0.385,0,0.7,0.11,0.945,0.332
				c0.245,0.221,0.367,0.5,0.367,0.838c0,0.348-0.125,0.631-0.375,0.852C94.711,233.393,94.387,233.502,93.987,233.502z"/>
			<path fill="#C71919" d="M97.003,233.061v-1.926c0.699,0.428,1.442,0.643,2.231,0.643c0.594,0,1.059-0.143,1.394-0.426
				c0.335-0.281,0.502-0.666,0.502-1.149c0-1.013-0.715-1.521-2.146-1.521c-0.528,0-1.136,0.041-1.825,0.121l0.385-5.703h5.412v1.84
				h-3.693l-0.143,2.045c0.366-0.026,0.682-0.041,0.949-0.041c1.05,0,1.873,0.275,2.467,0.826c0.594,0.551,0.891,1.293,0.891,2.226
				c0,1.03-0.354,1.874-1.062,2.526c-0.708,0.654-1.668,0.98-2.881,0.98C98.5,233.502,97.673,233.354,97.003,233.061z"/>
			<path fill="#C71919" d="M108.533,233.502c-2.434,0-3.65-1.709-3.65-5.127c0-1.771,0.329-3.123,0.987-4.053
				c0.658-0.93,1.612-1.396,2.863-1.396c2.376,0,3.565,1.738,3.565,5.214c0,1.729-0.324,3.057-0.973,3.979
				C110.676,233.041,109.745,233.502,108.533,233.502z M108.632,224.646c-0.974,0-1.461,1.225-1.461,3.672
				c0,2.306,0.478,3.457,1.433,3.457c0.932,0,1.397-1.188,1.397-3.564C110.001,225.835,109.545,224.646,108.632,224.646z"/>
			<path fill="#C71919" d="M113.624,232.988v-1.961c0.685,0.5,1.483,0.748,2.396,0.748c0.575,0,1.023-0.123,1.344-0.369
				c0.321-0.248,0.481-0.592,0.481-1.034c0-0.456-0.198-0.808-0.595-1.056s-0.942-0.371-1.636-0.371h-0.949v-1.726h0.877
				c1.331,0,1.996-0.442,1.996-1.325c0-0.832-0.511-1.248-1.533-1.248c-0.685,0-1.35,0.221-1.997,0.662v-1.84
				c0.718-0.359,1.554-0.542,2.51-0.542c1.046,0,1.86,0.235,2.442,0.706c0.583,0.471,0.874,1.081,0.874,1.833
				c0,1.336-0.677,2.172-2.032,2.511v0.034c0.722,0.091,1.292,0.354,1.711,0.788s0.627,0.969,0.627,1.602
				c0,0.955-0.349,1.711-1.048,2.268c-0.699,0.557-1.664,0.834-2.895,0.834C115.143,233.502,114.284,233.331,113.624,232.988z"/>
			<path fill="#C71919" d="M129.104,229.923c0,0.504-0.088,0.974-0.265,1.411c-0.176,0.438-0.42,0.816-0.733,1.139
				c-0.313,0.32-0.688,0.572-1.119,0.756c-0.432,0.183-0.906,0.273-1.42,0.273c-0.574,0-1.089-0.107-1.543-0.32
				c-0.454-0.215-0.837-0.523-1.151-0.932c-0.313-0.406-0.554-0.904-0.72-1.493s-0.25-1.257-0.25-2.003
				c0-0.88,0.108-1.678,0.325-2.393c0.217-0.715,0.525-1.328,0.927-1.836c0.402-0.51,0.888-0.902,1.458-1.181
				c0.57-0.278,1.212-0.418,1.925-0.418c0.789,0,1.402,0.093,1.839,0.278v1.882c-0.519-0.294-1.083-0.44-1.696-0.44
				c-0.381,0-0.726,0.073-1.035,0.221c-0.309,0.146-0.574,0.357-0.794,0.627c-0.221,0.271-0.395,0.599-0.521,0.98
				c-0.126,0.383-0.193,0.811-0.203,1.279h0.043c0.485-0.67,1.2-1.005,2.146-1.005c0.424,0,0.807,0.076,1.148,0.229
				c0.342,0.15,0.635,0.366,0.877,0.645c0.243,0.277,0.43,0.611,0.563,1.002C129.036,229.016,129.104,229.447,129.104,229.923z
				 M126.9,230.064c0-1.099-0.449-1.646-1.349-1.646c-0.205,0-0.39,0.039-0.556,0.114c-0.167,0.075-0.309,0.183-0.428,0.321
				c-0.119,0.138-0.21,0.301-0.275,0.487c-0.064,0.188-0.096,0.396-0.096,0.623c0,0.252,0.033,0.488,0.1,0.707
				c0.066,0.22,0.16,0.41,0.281,0.573c0.122,0.164,0.265,0.294,0.432,0.389c0.167,0.096,0.352,0.143,0.557,0.143
				c0.203,0,0.389-0.041,0.553-0.123c0.164-0.084,0.304-0.2,0.42-0.351c0.117-0.149,0.206-0.329,0.268-0.543
				C126.869,230.549,126.9,230.316,126.9,230.064z"/>
		</g>
	</g>
	<g>
		<g>
			<path fill="#FFFFFF" d="M30.241,81.251H21.65V66.825h3.249v11.79h5.342V81.251z"/>
			<path fill="#FFFFFF" d="M37.766,81.503c-2.066,0-3.749-0.673-5.05-2.018c-1.301-1.345-1.951-3.097-1.951-5.256
				c0-2.28,0.66-4.125,1.981-5.533c1.321-1.408,3.072-2.112,5.251-2.112c2.059,0,3.724,0.674,4.995,2.021
				c1.271,1.349,1.906,3.126,1.906,5.332c0,2.267-0.659,4.095-1.977,5.482C41.604,80.809,39.885,81.503,37.766,81.503z
				 M37.906,69.381c-1.14,0-2.045,0.427-2.716,1.282s-1.006,1.986-1.006,3.396c0,1.428,0.335,2.559,1.006,3.39
				c0.67,0.832,1.549,1.247,2.636,1.247c1.12,0,2.008-0.403,2.666-1.212c0.657-0.808,0.986-1.93,0.986-3.365
				c0-1.495-0.318-2.658-0.956-3.49S39.013,69.381,37.906,69.381z"/>
			<path fill="#FFFFFF" d="M59.133,80.285c-1.408,0.812-3.159,1.218-5.251,1.218c-2.32,0-4.149-0.643-5.487-1.927
				c-1.338-1.284-2.007-3.054-2.007-5.307c0-2.267,0.73-4.114,2.193-5.543c1.462-1.429,3.407-2.143,5.834-2.143
				c1.529,0,2.877,0.211,4.044,0.634v3.048c-1.114-0.644-2.475-0.966-4.084-0.966c-1.348,0-2.446,0.438-3.294,1.313
				c-0.849,0.876-1.273,2.044-1.273,3.506c0,1.482,0.381,2.63,1.142,3.44c0.761,0.812,1.789,1.218,3.083,1.218
				c0.778,0,1.395-0.11,1.851-0.332v-2.816h-2.887v-2.596h6.137L59.133,80.285L59.133,80.285z"/>
			<path fill="#FFFFFF" d="M68.036,81.503c-2.066,0-3.749-0.673-5.05-2.018c-1.301-1.345-1.951-3.097-1.951-5.256
				c0-2.28,0.66-4.125,1.981-5.533c1.321-1.408,3.072-2.112,5.251-2.112c2.059,0,3.724,0.674,4.995,2.021
				c1.271,1.349,1.906,3.126,1.906,5.332c0,2.267-0.659,4.095-1.977,5.482C71.874,80.809,70.155,81.503,68.036,81.503z
				 M68.176,69.381c-1.14,0-2.045,0.427-2.716,1.282s-1.006,1.986-1.006,3.396c0,1.428,0.335,2.559,1.006,3.39
				c0.67,0.832,1.549,1.247,2.636,1.247c1.12,0,2.008-0.403,2.666-1.212c0.657-0.808,0.986-1.93,0.986-3.365
				c0-1.495-0.318-2.658-0.956-3.49S69.283,69.381,68.176,69.381z"/>
			<path fill="#FFFFFF" d="M77.321,83.826h-0.976l1.338-4.858h1.318L77.321,83.826z"/>
			<path fill="#FFFFFF" d="M87.944,81.251V66.825h3.943c0.597,0,1.135,0.08,1.615,0.241c0.48,0.161,0.889,0.388,1.227,0.68
				c0.339,0.291,0.599,0.642,0.78,1.051c0.181,0.409,0.271,0.858,0.271,1.348c0,0.416-0.057,0.806-0.171,1.167
				c-0.114,0.362-0.278,0.693-0.493,0.991c-0.215,0.299-0.478,0.557-0.79,0.774c-0.312,0.218-0.666,0.391-1.061,0.519v0.04
				c0.483,0.047,0.922,0.164,1.318,0.354c0.396,0.188,0.734,0.432,1.016,0.734c0.281,0.302,0.5,0.655,0.654,1.061
				c0.154,0.406,0.231,0.851,0.231,1.333c0,0.61-0.111,1.169-0.332,1.675c-0.222,0.507-0.532,0.942-0.931,1.309
				c-0.399,0.365-0.874,0.648-1.423,0.85c-0.55,0.201-1.157,0.302-1.821,0.302h-4.033V81.251z M89.282,68.053v5.12h1.871
				c0.49,0,0.932-0.063,1.328-0.191c0.396-0.127,0.734-0.312,1.016-0.553c0.281-0.241,0.498-0.533,0.648-0.875
				c0.151-0.343,0.227-0.728,0.227-1.157c0-1.563-0.973-2.344-2.917-2.344H89.282z M89.282,74.38v5.654h2.485
				c1.066,0,1.886-0.25,2.459-0.75c0.574-0.499,0.86-1.209,0.86-2.128c0-1.851-1.258-2.776-3.772-2.776H89.282z"/>
			<path fill="#FFFFFF" d="M109.643,75.456c0,4.031-1.771,6.047-5.312,6.047c-3.374,0-5.06-1.942-5.06-5.825v-8.853h1.338v8.732
				c0,1.582,0.319,2.766,0.956,3.551c0.637,0.784,1.623,1.177,2.958,1.177c2.521,0,3.782-1.529,3.782-4.587v-8.873h1.338V75.456z"/>
			<path fill="#FFFFFF" d="M112.641,79.139c0.242,0.181,0.508,0.344,0.8,0.487c0.292,0.145,0.59,0.266,0.896,0.362
				c0.305,0.098,0.612,0.171,0.92,0.222c0.309,0.05,0.604,0.075,0.885,0.075c1.093,0,1.911-0.211,2.455-0.634
				c0.544-0.423,0.815-1.029,0.815-1.82c0-0.383-0.064-0.716-0.191-1.001c-0.127-0.285-0.325-0.552-0.593-0.8
				c-0.269-0.248-0.607-0.495-1.016-0.739c-0.409-0.245-0.892-0.521-1.449-0.83c-0.617-0.336-1.145-0.652-1.584-0.951
				c-0.439-0.298-0.798-0.604-1.076-0.915c-0.278-0.313-0.483-0.649-0.614-1.011c-0.131-0.362-0.196-0.775-0.196-1.238
				c0-0.583,0.124-1.106,0.373-1.569c0.248-0.462,0.583-0.856,1.006-1.182c0.423-0.326,0.917-0.575,1.484-0.749
				c0.566-0.175,1.172-0.262,1.815-0.262c1.133,0,2.083,0.157,2.847,0.473v1.479c-0.852-0.489-1.851-0.734-2.998-0.734
				c-0.429,0-0.833,0.053-1.212,0.156c-0.379,0.103-0.711,0.257-0.996,0.458c-0.285,0.201-0.51,0.451-0.674,0.749
				c-0.165,0.299-0.247,0.646-0.247,1.041c0,0.376,0.055,0.699,0.166,0.971c0.111,0.272,0.288,0.528,0.533,0.77
				c0.245,0.242,0.566,0.481,0.966,0.72c0.399,0.238,0.887,0.512,1.463,0.819c0.604,0.322,1.13,0.636,1.58,0.941
				c0.449,0.305,0.823,0.623,1.122,0.955c0.299,0.332,0.521,0.685,0.669,1.057s0.222,0.786,0.222,1.242
				c0,0.631-0.118,1.186-0.353,1.665s-0.563,0.877-0.986,1.192c-0.422,0.314-0.925,0.553-1.509,0.714s-1.224,0.241-1.921,0.241
				c-0.228,0-0.5-0.019-0.815-0.055c-0.315-0.037-0.634-0.091-0.956-0.161c-0.322-0.07-0.629-0.154-0.92-0.252
				c-0.292-0.097-0.528-0.202-0.709-0.316v-1.57H112.641z"/>
			<path fill="#FFFFFF" d="M125.135,81.251h-1.338V66.825h1.338V81.251z"/>
			<path fill="#FFFFFF" d="M138.768,81.251l-8.009-11.579c-0.101-0.147-0.2-0.298-0.297-0.452c-0.097-0.154-0.176-0.306-0.235-0.453
				h-0.051c0.014,0.121,0.025,0.289,0.035,0.503c0.01,0.215,0.016,0.483,0.016,0.805v11.177h-1.338V66.825h1.479l7.876,11.438
				c0.121,0.181,0.229,0.35,0.327,0.508c0.097,0.157,0.186,0.304,0.267,0.438h0.05c-0.027-0.222-0.047-0.47-0.061-0.744
				c-0.014-0.275-0.02-0.58-0.02-0.916V66.825h1.348v14.426H138.768z"/>
			<path fill="#FFFFFF" d="M143.896,81.251V66.825h7.033v1.228h-5.695v5.291h5.271v1.207h-5.271v5.483h6.017v1.217H143.896z"/>
			<path fill="#FFFFFF" d="M153.695,79.139c0.242,0.181,0.508,0.344,0.8,0.487c0.292,0.145,0.59,0.266,0.896,0.362
				c0.305,0.098,0.612,0.171,0.92,0.222c0.31,0.05,0.604,0.075,0.885,0.075c1.094,0,1.912-0.211,2.455-0.634
				c0.545-0.423,0.815-1.029,0.815-1.82c0-0.383-0.063-0.716-0.19-1.001s-0.325-0.552-0.594-0.8
				c-0.269-0.248-0.606-0.495-1.016-0.739c-0.409-0.245-0.893-0.521-1.449-0.83c-0.617-0.336-1.145-0.652-1.584-0.951
				c-0.439-0.298-0.798-0.604-1.076-0.915c-0.277-0.313-0.482-0.649-0.613-1.011s-0.196-0.775-0.196-1.238
				c0-0.583,0.124-1.106,0.373-1.569c0.248-0.462,0.583-0.856,1.006-1.182c0.423-0.326,0.917-0.575,1.483-0.749
				c0.566-0.175,1.173-0.262,1.815-0.262c1.134,0,2.083,0.157,2.847,0.473v1.479c-0.852-0.489-1.851-0.734-2.998-0.734
				c-0.429,0-0.832,0.053-1.211,0.156s-0.711,0.257-0.996,0.458s-0.51,0.451-0.674,0.749c-0.166,0.299-0.248,0.646-0.248,1.041
				c0,0.376,0.056,0.699,0.166,0.971c0.111,0.272,0.289,0.528,0.533,0.77c0.245,0.242,0.566,0.481,0.967,0.72
				c0.398,0.238,0.887,0.512,1.463,0.819c0.604,0.322,1.129,0.636,1.58,0.941c0.448,0.305,0.822,0.623,1.121,0.955
				s0.521,0.685,0.67,1.057c0.147,0.372,0.222,0.786,0.222,1.242c0,0.631-0.118,1.186-0.353,1.665
				c-0.236,0.479-0.563,0.877-0.986,1.192c-0.422,0.314-0.926,0.553-1.51,0.714s-1.224,0.241-1.92,0.241
				c-0.229,0-0.5-0.019-0.815-0.055c-0.315-0.037-0.634-0.091-0.956-0.161c-0.322-0.07-0.629-0.154-0.92-0.252
				c-0.292-0.097-0.528-0.202-0.709-0.316v-1.57H153.695z"/>
			<path fill="#FFFFFF" d="M164.288,79.139c0.241,0.181,0.508,0.344,0.8,0.487c0.292,0.145,0.59,0.266,0.896,0.362
				c0.305,0.098,0.611,0.171,0.92,0.222c0.309,0.05,0.604,0.075,0.885,0.075c1.093,0,1.911-0.211,2.455-0.634
				c0.544-0.423,0.814-1.029,0.814-1.82c0-0.383-0.063-0.716-0.19-1.001s-0.325-0.552-0.593-0.8
				c-0.27-0.248-0.607-0.495-1.017-0.739c-0.409-0.245-0.892-0.521-1.448-0.83c-0.617-0.336-1.146-0.652-1.584-0.951
				c-0.439-0.298-0.799-0.604-1.076-0.915c-0.278-0.313-0.483-0.649-0.614-1.011c-0.132-0.362-0.196-0.775-0.196-1.238
				c0-0.583,0.124-1.106,0.373-1.569c0.248-0.462,0.583-0.856,1.006-1.182c0.424-0.326,0.917-0.575,1.484-0.749
				c0.566-0.175,1.172-0.262,1.814-0.262c1.133,0,2.084,0.157,2.848,0.473v1.479c-0.853-0.489-1.852-0.734-2.998-0.734
				c-0.43,0-0.833,0.053-1.213,0.156c-0.379,0.103-0.711,0.257-0.995,0.458c-0.285,0.201-0.511,0.451-0.675,0.749
				c-0.164,0.299-0.246,0.646-0.246,1.041c0,0.376,0.055,0.699,0.166,0.971c0.111,0.272,0.287,0.528,0.533,0.77
				c0.244,0.242,0.565,0.481,0.965,0.72c0.399,0.238,0.888,0.512,1.464,0.819c0.604,0.322,1.13,0.636,1.579,0.941
				c0.449,0.305,0.824,0.623,1.123,0.955s0.521,0.685,0.668,1.057c0.148,0.372,0.223,0.786,0.223,1.242
				c0,0.631-0.118,1.186-0.354,1.665c-0.234,0.479-0.563,0.877-0.985,1.192c-0.422,0.314-0.925,0.553-1.509,0.714
				s-1.225,0.241-1.922,0.241c-0.228,0-0.5-0.019-0.814-0.055c-0.314-0.037-0.634-0.091-0.956-0.161
				c-0.321-0.07-0.629-0.154-0.92-0.252c-0.292-0.097-0.528-0.202-0.709-0.316v-1.57H164.288z"/>
			<path fill="#FFFFFF" d="M190.786,80.718c-1.113,0.523-2.384,0.785-3.813,0.785c-1.019,0-1.945-0.18-2.775-0.539
				c-0.832-0.358-1.541-0.856-2.127-1.493c-0.588-0.638-1.04-1.396-1.358-2.273c-0.317-0.879-0.478-1.838-0.478-2.878
				c0-1.093,0.168-2.11,0.508-3.053c0.339-0.942,0.822-1.761,1.453-2.454c0.631-0.694,1.395-1.239,2.289-1.635
				c0.896-0.396,1.9-0.594,3.014-0.594c1.227,0,2.324,0.188,3.29,0.563v1.428c-1.033-0.516-2.136-0.774-3.31-0.774
				c-0.934,0-1.762,0.161-2.485,0.483c-0.726,0.321-1.335,0.77-1.831,1.343c-0.496,0.573-0.875,1.251-1.137,2.032
				c-0.262,0.781-0.393,1.635-0.393,2.56c0,0.832,0.117,1.615,0.352,2.35c0.234,0.734,0.582,1.376,1.041,1.926
				c0.459,0.551,1.031,0.986,1.716,1.309c0.684,0.321,1.479,0.482,2.384,0.482c1.389,0,2.607-0.292,3.662-0.875L190.786,80.718
				L190.786,80.718z"/>
			<path fill="#FFFFFF" d="M203.209,81.251l-1.589-4.266h-6.187l-1.55,4.266h-1.489l5.494-14.426h1.348l5.462,14.426H203.209z
				 M198.813,69.351c-0.047-0.128-0.095-0.275-0.146-0.443c-0.05-0.167-0.092-0.358-0.126-0.573h-0.04
				c-0.041,0.215-0.085,0.406-0.136,0.573c-0.051,0.168-0.1,0.315-0.146,0.443l-2.334,6.418h5.281L198.813,69.351z"/>
			<path fill="#FFFFFF" d="M214.829,81.251l-2.173-4.135c-0.215-0.409-0.422-0.751-0.624-1.026
				c-0.201-0.274-0.409-0.494-0.624-0.658s-0.444-0.282-0.689-0.353c-0.244-0.07-0.518-0.105-0.82-0.105h-1.588v6.277h-1.338V66.825
				h4.154c0.543,0,1.068,0.08,1.574,0.241c0.506,0.161,0.958,0.399,1.354,0.715c0.395,0.316,0.711,0.711,0.95,1.187
				c0.238,0.477,0.356,1.029,0.356,1.66c0,0.51-0.077,0.979-0.23,1.408c-0.154,0.43-0.374,0.81-0.658,1.142
				c-0.285,0.332-0.631,0.614-1.037,0.846c-0.405,0.23-0.862,0.403-1.373,0.518v0.04c0.194,0.081,0.373,0.185,0.533,0.313
				c0.161,0.127,0.317,0.281,0.469,0.462c0.15,0.182,0.3,0.39,0.447,0.624c0.147,0.235,0.303,0.503,0.463,0.805l2.424,4.467h-1.569
				V81.251z M208.311,68.053v5.704h2.395c0.482,0,0.925-0.071,1.328-0.212c0.402-0.141,0.746-0.342,1.031-0.604
				c0.285-0.262,0.506-0.576,0.664-0.945c0.156-0.369,0.235-0.785,0.235-1.247c0-0.839-0.271-1.498-0.81-1.978
				c-0.54-0.48-1.319-0.719-2.34-0.719L208.311,68.053L208.311,68.053z"/>
			<path fill="#FFFFFF" d="M218.854,81.251V66.825h3.791c2.469,0,4.334,0.592,5.594,1.775s1.891,2.933,1.891,5.246
				c0,1.113-0.176,2.126-0.527,3.038c-0.353,0.912-0.86,1.692-1.524,2.339s-1.47,1.147-2.415,1.499
				c-0.946,0.353-2.012,0.528-3.199,0.528L218.854,81.251L218.854,81.251z M220.189,68.053v11.981h2.213
				c0.992,0,1.88-0.135,2.662-0.402c0.78-0.269,1.443-0.663,1.986-1.183c0.543-0.52,0.958-1.162,1.242-1.927
				c0.285-0.764,0.428-1.643,0.428-2.635c0-3.891-2.056-5.835-6.167-5.835L220.189,68.053L220.189,68.053z"/>
			<path fill="#FFFFFF" d="M21.871,109.251V94.825h1.338v13.209h5.794v1.217H21.871z"/>
			<path fill="#FFFFFF" d="M31.438,109.251V94.825h7.032v1.228h-5.694v5.291h5.271v1.207h-5.271v5.483h6.016v1.217H31.438z"/>
			<path fill="#FFFFFF" d="M45.964,96.053v13.198h-1.338V96.053h-4.155v-1.228h9.657v1.228H45.964z"/>
			<path fill="#FFFFFF" d="M57.021,96.053v13.198h-1.338V96.053h-4.155v-1.228h9.657v1.228H57.021z"/>
			<path fill="#FFFFFF" d="M63.56,109.251V94.825h7.032v1.228h-5.694v5.291h5.271v1.207h-5.271v5.483h6.016v1.217H63.56z"/>
			<path fill="#FFFFFF" d="M81.778,109.251l-2.173-4.135c-0.214-0.409-0.422-0.751-0.624-1.026
				c-0.201-0.274-0.409-0.494-0.624-0.658c-0.215-0.164-0.444-0.282-0.689-0.353c-0.245-0.07-0.518-0.105-0.82-0.105h-1.589v6.277
				h-1.338V94.825h4.155c0.543,0,1.068,0.08,1.574,0.241c0.506,0.161,0.958,0.399,1.353,0.715c0.395,0.316,0.712,0.711,0.951,1.187
				c0.238,0.477,0.357,1.029,0.357,1.66c0,0.51-0.078,0.979-0.231,1.408c-0.154,0.43-0.374,0.81-0.659,1.142
				c-0.285,0.332-0.63,0.614-1.036,0.846c-0.406,0.23-0.863,0.403-1.373,0.518v0.04c0.194,0.081,0.372,0.185,0.533,0.313
				c0.161,0.127,0.317,0.281,0.468,0.462c0.151,0.182,0.3,0.39,0.448,0.624c0.147,0.235,0.302,0.503,0.462,0.805l2.425,4.467h-1.57
				V109.251z M75.259,96.053v5.704h2.395c0.482,0,0.925-0.071,1.328-0.212s0.746-0.342,1.031-0.604
				c0.285-0.262,0.506-0.576,0.664-0.945c0.157-0.369,0.236-0.785,0.236-1.247c0-0.839-0.27-1.498-0.81-1.978
				s-1.319-0.719-2.339-0.719L75.259,96.053L75.259,96.053z"/>
			<path fill="#FFFFFF" d="M100.65,109.251v-6.75h-7.867v6.75h-1.338V94.825h1.338v6.469h7.867v-6.469h1.338v14.426H100.65z"/>
			<path fill="#FFFFFF" d="M105.73,109.251V94.825h7.032v1.228h-5.694v5.291h5.271v1.207h-5.271v5.483h6.016v1.217H105.73z"/>
			<path fill="#FFFFFF" d="M125.538,109.251l-1.589-4.266h-6.187l-1.549,4.266h-1.489l5.493-14.426h1.348l5.462,14.426H125.538z
				 M121.142,97.351c-0.047-0.128-0.095-0.275-0.146-0.443c-0.05-0.167-0.092-0.358-0.126-0.573h-0.04
				c-0.041,0.215-0.085,0.406-0.136,0.573c-0.05,0.168-0.099,0.315-0.146,0.443l-2.334,6.418h5.281L121.142,97.351z"/>
			<path fill="#FFFFFF" d="M129.3,109.251V94.825h3.792c2.469,0,4.333,0.592,5.594,1.775c1.26,1.183,1.891,2.933,1.891,5.246
				c0,1.113-0.176,2.126-0.528,3.038c-0.353,0.912-0.86,1.692-1.524,2.339s-1.469,1.147-2.414,1.499
				c-0.946,0.353-2.012,0.528-3.199,0.528L129.3,109.251L129.3,109.251z M130.639,96.053v11.981h2.213
				c0.991,0,1.879-0.135,2.66-0.402c0.781-0.269,1.444-0.663,1.987-1.183c0.543-0.52,0.958-1.162,1.242-1.927
				c0.284-0.764,0.428-1.643,0.428-2.635c0-3.891-2.056-5.835-6.167-5.835L130.639,96.053L130.639,96.053z"/>
			<path fill="#FFFFFF" d="M141.704,111.826h-0.976l1.338-4.858h1.317L141.704,111.826z"/>
			<path fill="#FFFFFF" d="M151.764,107.139c0.242,0.181,0.508,0.344,0.801,0.487c0.291,0.145,0.59,0.266,0.896,0.362
				c0.306,0.098,0.612,0.171,0.92,0.222c0.31,0.05,0.604,0.075,0.886,0.075c1.092,0,1.91-0.211,2.455-0.634
				c0.543-0.423,0.814-1.029,0.814-1.82c0-0.383-0.064-0.716-0.191-1.001s-0.324-0.552-0.593-0.8
				c-0.269-0.248-0.606-0.495-1.017-0.739c-0.408-0.245-0.892-0.521-1.448-0.83c-0.617-0.336-1.146-0.652-1.584-0.951
				c-0.438-0.298-0.798-0.604-1.076-0.915c-0.278-0.313-0.483-0.649-0.614-1.011s-0.195-0.775-0.195-1.238
				c0-0.583,0.123-1.106,0.373-1.569c0.248-0.462,0.582-0.856,1.006-1.182c0.423-0.326,0.916-0.575,1.484-0.749
				c0.565-0.175,1.172-0.262,1.814-0.262c1.133,0,2.083,0.157,2.847,0.473v1.479c-0.853-0.489-1.851-0.734-2.998-0.734
				c-0.429,0-0.833,0.053-1.212,0.156s-0.711,0.257-0.996,0.458s-0.51,0.451-0.674,0.749c-0.165,0.299-0.247,0.646-0.247,1.041
				c0,0.376,0.056,0.699,0.166,0.971c0.111,0.272,0.288,0.528,0.533,0.77c0.245,0.242,0.565,0.481,0.966,0.72
				c0.398,0.238,0.887,0.512,1.463,0.819c0.604,0.322,1.131,0.636,1.58,0.941c0.449,0.305,0.823,0.623,1.122,0.955
				s0.521,0.685,0.669,1.057s0.223,0.786,0.223,1.242c0,0.631-0.119,1.186-0.354,1.665s-0.563,0.877-0.986,1.192
				c-0.422,0.314-0.925,0.553-1.509,0.714s-1.224,0.241-1.921,0.241c-0.229,0-0.5-0.019-0.814-0.055
				c-0.315-0.037-0.635-0.091-0.957-0.161c-0.321-0.07-0.629-0.154-0.92-0.252c-0.291-0.097-0.527-0.202-0.709-0.316v-1.57H151.764z
				"/>
			<path fill="#FFFFFF" d="M167.044,96.053v13.198h-1.338V96.053h-4.155v-1.228h9.657v1.228H167.044z"/>
			<path fill="#FFFFFF" d="M181.38,109.251l-1.589-4.266h-6.188l-1.549,4.266h-1.488l5.492-14.426h1.349l5.462,14.426H181.38z
				 M176.982,97.351c-0.047-0.128-0.094-0.275-0.146-0.443c-0.05-0.167-0.092-0.358-0.126-0.573h-0.04
				c-0.041,0.215-0.085,0.406-0.136,0.573c-0.051,0.168-0.1,0.315-0.146,0.443l-2.334,6.418h5.281L176.982,97.351z"/>
			<path fill="#FFFFFF" d="M195.021,109.251l-8.008-11.579c-0.102-0.147-0.201-0.298-0.298-0.452
				c-0.097-0.154-0.176-0.306-0.235-0.453h-0.051c0.014,0.121,0.025,0.289,0.035,0.503c0.01,0.215,0.016,0.483,0.016,0.805v11.177
				h-1.338V94.825h1.479l7.876,11.438c0.121,0.181,0.229,0.35,0.327,0.508c0.097,0.157,0.186,0.304,0.267,0.438h0.05
				c-0.026-0.222-0.047-0.47-0.061-0.744c-0.014-0.275-0.02-0.58-0.02-0.916V94.825h1.348v14.426H195.021z"/>
			<path fill="#FFFFFF" d="M200.15,109.251V94.825h3.793c2.468,0,4.332,0.592,5.593,1.775c1.26,1.183,1.891,2.933,1.891,5.246
				c0,1.113-0.176,2.126-0.528,3.038c-0.352,0.912-0.859,1.692-1.523,2.339s-1.469,1.147-2.415,1.499
				c-0.946,0.353-2.012,0.528-3.199,0.528L200.15,109.251L200.15,109.251z M201.489,96.053v11.981h2.213
				c0.991,0,1.879-0.135,2.661-0.402c0.781-0.269,1.443-0.663,1.986-1.183c0.543-0.52,0.959-1.162,1.242-1.927
				c0.285-0.764,0.428-1.643,0.428-2.635c0-3.891-2.056-5.835-6.166-5.835L201.489,96.053L201.489,96.053z"/>
			<path fill="#FFFFFF" d="M214.314,109.251V94.825h7.033v1.228h-5.695v5.291h5.271v1.207h-5.271v5.483h6.017v1.217H214.314z"/>
			<path fill="#FFFFFF" d="M224.677,109.251V94.825h7.032v1.228h-5.693v5.291h5.271v1.207h-5.271v5.483h6.016v1.217H224.677z"/>
			<path fill="#FFFFFF" d="M34.637,137.251v-9.959c0-0.51,0.04-1.331,0.121-2.465h-0.041c-0.094,0.302-0.179,0.563-0.256,0.784
				c-0.077,0.222-0.149,0.402-0.216,0.544l-5.03,11.096h-0.573l-5.04-11.024c-0.148-0.336-0.299-0.81-0.453-1.419h-0.041
				c0.027,0.309,0.045,0.661,0.055,1.057c0.01,0.396,0.015,0.835,0.015,1.317v10.069H21.87v-14.426h1.58l4.899,10.845
				c0.101,0.229,0.2,0.461,0.297,0.699s0.186,0.49,0.267,0.759h0.06c0.094-0.269,0.18-0.513,0.257-0.733
				c0.077-0.222,0.172-0.459,0.287-0.715l4.939-10.854h1.499v14.426L34.637,137.251L34.637,137.251z"/>
			<path fill="#FFFFFF" d="M49.043,137.251l-1.589-4.267h-6.187l-1.549,4.267h-1.489l5.493-14.426h1.348l5.462,14.426H49.043z
				 M44.646,125.351c-0.047-0.128-0.095-0.275-0.146-0.443c-0.05-0.167-0.092-0.358-0.126-0.573h-0.04
				c-0.041,0.215-0.085,0.406-0.136,0.573c-0.05,0.168-0.099,0.315-0.146,0.443l-2.334,6.418H47L44.646,125.351z"/>
			<path fill="#FFFFFF" d="M63.137,136.255c-1.482,0.832-3.052,1.248-4.708,1.248c-1.046,0-1.985-0.18-2.817-0.539
				c-0.832-0.358-1.539-0.858-2.123-1.498c-0.583-0.641-1.031-1.405-1.343-2.294s-0.468-1.865-0.468-2.933
				c0-0.704,0.075-1.382,0.226-2.032c0.151-0.65,0.373-1.262,0.664-1.831c0.292-0.569,0.649-1.086,1.071-1.549
				c0.423-0.463,0.907-0.861,1.454-1.197c0.547-0.335,1.148-0.594,1.806-0.774c0.657-0.181,1.364-0.271,2.123-0.271
				c1.428,0,2.703,0.255,3.823,0.765v1.479c-1.234-0.685-2.562-1.026-3.984-1.026c-0.878,0-1.673,0.161-2.384,0.483
				c-0.711,0.321-1.316,0.765-1.816,1.327s-0.887,1.229-1.162,1.996c-0.275,0.77-0.416,1.603-0.422,2.5
				c-0.007,0.894,0.109,1.716,0.347,2.471c0.238,0.755,0.592,1.406,1.062,1.957c0.469,0.55,1.049,0.979,1.74,1.287
				c0.691,0.308,1.489,0.463,2.395,0.463c1.22,0,2.28-0.255,3.179-0.766v-4.396h-3.28v-1.218h4.617V136.255z"/>
			<path fill="#FFFFFF" d="M75.822,137.251l-1.589-4.267h-6.187l-1.549,4.267h-1.489l5.493-14.426h1.348l5.462,14.426H75.822z
				 M71.426,125.351c-0.047-0.128-0.095-0.275-0.146-0.443c-0.05-0.167-0.092-0.358-0.126-0.573h-0.04
				c-0.041,0.215-0.085,0.406-0.136,0.573c-0.05,0.168-0.099,0.315-0.146,0.443l-2.334,6.418h5.281L71.426,125.351z"/>
			<path fill="#FFFFFF" d="M80.812,136.034h8.44v1.217H78.8v-0.394l8.561-12.806h-7.877v-1.228h9.939v0.342L80.812,136.034z"/>
			<path fill="#FFFFFF" d="M93.255,137.251h-1.338v-14.426h1.338V137.251z"/>
			<path fill="#FFFFFF" d="M106.887,137.251l-8.008-11.579c-0.101-0.146-0.2-0.298-0.297-0.452
				c-0.097-0.154-0.176-0.306-0.236-0.453h-0.05c0.014,0.121,0.025,0.289,0.035,0.503c0.01,0.215,0.015,0.483,0.015,0.805v11.177
				h-1.338v-14.426h1.479l7.876,11.438c0.121,0.182,0.23,0.351,0.327,0.508s0.186,0.305,0.267,0.438h0.05
				c-0.027-0.222-0.047-0.47-0.061-0.744c-0.013-0.274-0.02-0.58-0.02-0.916v-10.724h1.348v14.426L106.887,137.251L106.887,137.251z
				"/>
			<path fill="#FFFFFF" d="M112.017,137.251v-14.426h7.032v1.228h-5.694v5.291h5.271v1.207h-5.271v5.483h6.016v1.217H112.017z"/>
			<path fill="#FFFFFF" d="M121.916,139.826h-0.976l1.338-4.858h1.318L121.916,139.826z"/>
			<path fill="#FFFFFF" d="M132.54,137.251v-14.426h3.942c0.598,0,1.136,0.08,1.615,0.241c0.48,0.161,0.889,0.388,1.228,0.68
				c0.339,0.291,0.599,0.642,0.78,1.051c0.181,0.409,0.271,0.858,0.271,1.348c0,0.416-0.058,0.807-0.171,1.168
				c-0.114,0.361-0.278,0.692-0.493,0.99c-0.215,0.299-0.478,0.557-0.79,0.774s-0.666,0.391-1.061,0.519v0.04
				c0.482,0.048,0.922,0.164,1.318,0.354c0.396,0.188,0.733,0.432,1.016,0.733c0.281,0.303,0.5,0.655,0.654,1.062
				c0.153,0.405,0.23,0.851,0.23,1.333c0,0.609-0.111,1.169-0.332,1.675c-0.223,0.507-0.532,0.942-0.932,1.31
				c-0.398,0.364-0.873,0.647-1.422,0.85c-0.551,0.201-1.158,0.302-1.821,0.302h-4.033V137.251z M133.877,124.053v5.12h1.871
				c0.49,0,0.932-0.063,1.328-0.19s0.734-0.313,1.016-0.553c0.281-0.242,0.498-0.533,0.648-0.875
				c0.15-0.344,0.227-0.729,0.227-1.158c0-1.563-0.973-2.343-2.917-2.343L133.877,124.053L133.877,124.053z M133.877,130.38v5.654
				h2.484c1.066,0,1.887-0.25,2.459-0.75c0.574-0.499,0.861-1.209,0.861-2.128c0-1.852-1.259-2.776-3.772-2.776H133.877z"/>
			<path fill="#FFFFFF" d="M151.904,137.251l-2.172-4.135c-0.215-0.409-0.422-0.751-0.625-1.026c-0.2-0.273-0.408-0.494-0.623-0.658
				s-0.444-0.281-0.689-0.353c-0.245-0.07-0.518-0.104-0.82-0.104h-1.589v6.276h-1.338v-14.426h4.155
				c0.543,0,1.068,0.08,1.574,0.241c0.506,0.161,0.957,0.399,1.353,0.715c0.396,0.316,0.712,0.711,0.951,1.187
				c0.237,0.477,0.356,1.029,0.356,1.66c0,0.511-0.078,0.979-0.23,1.408c-0.154,0.43-0.374,0.81-0.659,1.142
				c-0.284,0.332-0.63,0.614-1.036,0.846c-0.406,0.23-0.863,0.403-1.373,0.519v0.04c0.194,0.081,0.372,0.186,0.533,0.313
				s0.317,0.281,0.469,0.463c0.15,0.182,0.299,0.39,0.447,0.623c0.146,0.235,0.303,0.504,0.462,0.806l2.425,4.467h-1.57V137.251z
				 M145.386,124.053v5.704h2.396c0.482,0,0.925-0.071,1.328-0.212c0.402-0.141,0.746-0.342,1.031-0.604
				c0.284-0.262,0.506-0.576,0.664-0.945c0.156-0.369,0.235-0.785,0.235-1.247c0-0.839-0.271-1.498-0.81-1.978
				c-0.541-0.48-1.319-0.719-2.34-0.719L145.386,124.053L145.386,124.053z"/>
			<path fill="#FFFFFF" d="M161.602,137.503c-1.039,0-1.975-0.19-2.807-0.567c-0.832-0.379-1.538-0.897-2.118-1.556
				c-0.579-0.657-1.026-1.43-1.338-2.317c-0.312-0.889-0.468-1.844-0.468-2.862c0-1.127,0.156-2.158,0.468-3.095
				c0.312-0.936,0.767-1.735,1.363-2.403c0.597-0.667,1.328-1.187,2.192-1.559c0.865-0.373,1.852-0.559,2.959-0.559
				c1.02,0,1.935,0.183,2.746,0.548c0.812,0.366,1.502,0.872,2.072,1.52c0.57,0.647,1.008,1.413,1.313,2.299
				c0.306,0.885,0.459,1.848,0.459,2.887c0,1.094-0.149,2.107-0.448,3.043c-0.3,0.936-0.738,1.745-1.318,2.43
				c-0.579,0.685-1.294,1.222-2.143,1.609C163.686,137.309,162.708,137.503,161.602,137.503z M161.713,123.801
				c-0.872,0-1.645,0.166-2.318,0.498s-1.244,0.781-1.705,1.35c-0.463,0.565-0.813,1.229-1.051,1.99
				c-0.238,0.762-0.361,1.571-0.367,2.43c-0.008,0.818,0.099,1.603,0.316,2.35c0.219,0.748,0.546,1.408,0.986,1.982
				c0.439,0.572,0.994,1.029,1.664,1.373c0.672,0.342,1.457,0.513,2.354,0.513c0.899,0,1.688-0.156,2.369-0.468
				c0.681-0.313,1.249-0.744,1.705-1.299c0.456-0.553,0.8-1.211,1.031-1.977s0.347-1.6,0.347-2.505c0-0.845-0.104-1.646-0.307-2.404
				c-0.204-0.758-0.523-1.42-0.956-1.985c-0.433-0.567-0.984-1.018-1.655-1.35S162.65,123.801,161.713,123.801z"/>
			<path fill="#FFFFFF" d="M181.027,136.718c-1.113,0.523-2.385,0.785-3.813,0.785c-1.019,0-1.944-0.18-2.776-0.539
				c-0.832-0.358-1.541-0.856-2.127-1.493c-0.586-0.638-1.039-1.396-1.357-2.272c-0.318-0.88-0.479-1.839-0.479-2.878
				c0-1.094,0.17-2.11,0.508-3.053c0.34-0.942,0.824-1.762,1.455-2.455c0.629-0.694,1.394-1.239,2.289-1.635
				c0.896-0.396,1.899-0.594,3.013-0.594c1.227,0,2.323,0.188,3.29,0.563v1.428c-1.033-0.516-2.137-0.774-3.311-0.774
				c-0.933,0-1.761,0.161-2.484,0.483c-0.726,0.321-1.336,0.77-1.832,1.343c-0.495,0.573-0.875,1.251-1.137,2.032
				c-0.262,0.78-0.392,1.635-0.392,2.56c0,0.832,0.117,1.615,0.353,2.35c0.233,0.734,0.582,1.377,1.041,1.927
				c0.459,0.551,1.03,0.985,1.715,1.31c0.684,0.32,1.479,0.481,2.384,0.481c1.388,0,2.608-0.292,3.661-0.875V136.718
				L181.027,136.718z"/>
			<path fill="#FFFFFF" d="M193.311,137.251v-6.75h-7.867v6.75h-1.338v-14.426h1.338v6.469h7.867v-6.469h1.338v14.426H193.311z"/>
			<path fill="#FFFFFF" d="M208.581,131.456c0,4.03-1.771,6.047-5.312,6.047c-3.375,0-5.061-1.942-5.061-5.825v-8.853h1.338v8.731
				c0,1.582,0.319,2.767,0.956,3.551c0.638,0.785,1.623,1.178,2.958,1.178c2.521,0,3.782-1.529,3.782-4.587v-8.873h1.338V131.456z"
				/>
			<path fill="#FFFFFF" d="M219.999,137.251l-2.173-4.135c-0.215-0.409-0.422-0.751-0.624-1.026
				c-0.201-0.273-0.409-0.494-0.624-0.658s-0.444-0.281-0.689-0.353c-0.244-0.07-0.518-0.104-0.82-0.104h-1.588v6.276h-1.338
				v-14.426h4.154c0.543,0,1.068,0.08,1.574,0.241c0.506,0.161,0.958,0.399,1.354,0.715c0.395,0.316,0.711,0.711,0.95,1.187
				c0.238,0.477,0.357,1.029,0.357,1.66c0,0.511-0.078,0.979-0.231,1.408c-0.154,0.43-0.374,0.81-0.658,1.142
				c-0.285,0.332-0.631,0.614-1.037,0.846c-0.405,0.23-0.862,0.403-1.373,0.519v0.04c0.194,0.081,0.373,0.186,0.533,0.313
				c0.161,0.127,0.317,0.281,0.469,0.463c0.15,0.182,0.3,0.39,0.447,0.623c0.147,0.235,0.303,0.504,0.463,0.806l2.424,4.467h-1.569
				V137.251z M213.48,124.053v5.704h2.395c0.482,0,0.925-0.071,1.328-0.212c0.402-0.141,0.746-0.342,1.031-0.604
				s0.506-0.576,0.664-0.945c0.156-0.369,0.235-0.785,0.235-1.247c0-0.839-0.27-1.498-0.81-1.978s-1.319-0.719-2.34-0.719
				L213.48,124.053L213.48,124.053z"/>
			<path fill="#FFFFFF" d="M224.023,137.251v-14.426h7.031v1.228h-5.693v5.291h5.271v1.207h-5.271v5.483h6.016v1.217H224.023z"/>
			<path fill="#FFFFFF" d="M23.209,152.053v5.432h5.271v1.219h-5.271v6.549h-1.338v-14.426h7.032v1.229h-5.694V152.053z"/>
			<path fill="#FFFFFF" d="M31.689,165.251v-14.426h1.338v13.209h5.794v1.217H31.689z"/>
			<path fill="#FFFFFF" d="M44.294,159.85v5.401h-1.338v-5.372l-4.527-9.054h1.519l3.3,6.739c0.04,0.08,0.094,0.201,0.161,0.362
				c0.067,0.161,0.147,0.365,0.241,0.613h0.03c0.04-0.121,0.097-0.263,0.171-0.423c0.074-0.16,0.165-0.342,0.271-0.543l3.451-6.75
				h1.429L44.294,159.85z"/>
			<path fill="#FFFFFF" d="M51.215,165.251v-14.426h7.032v1.228h-5.694v5.291h5.271v1.207h-5.271v5.483h6.016v1.217H51.215z"/>
			<path fill="#FFFFFF" d="M69.434,165.251l-2.173-4.135c-0.214-0.409-0.422-0.751-0.624-1.026
				c-0.201-0.273-0.409-0.494-0.624-0.658c-0.215-0.164-0.444-0.281-0.689-0.353c-0.245-0.07-0.518-0.104-0.82-0.104h-1.589v6.276
				h-1.338v-14.426h4.155c0.543,0,1.068,0.08,1.574,0.241c0.506,0.16,0.958,0.398,1.353,0.715s0.712,0.711,0.951,1.187
				c0.238,0.478,0.357,1.029,0.357,1.66c0,0.511-0.078,0.979-0.231,1.408c-0.154,0.43-0.374,0.81-0.659,1.142
				c-0.285,0.332-0.63,0.614-1.036,0.846c-0.406,0.23-0.863,0.403-1.373,0.519v0.04c0.194,0.081,0.372,0.186,0.533,0.313
				c0.161,0.127,0.317,0.281,0.468,0.463s0.3,0.39,0.448,0.623c0.147,0.235,0.302,0.504,0.462,0.806l2.425,4.467h-1.57V165.251z
				 M62.915,152.053v5.704h2.395c0.482,0,0.925-0.071,1.328-0.212c0.403-0.141,0.746-0.342,1.031-0.604
				c0.285-0.263,0.506-0.576,0.664-0.945c0.157-0.369,0.236-0.785,0.236-1.247c0-0.839-0.27-1.498-0.81-1.978
				c-0.54-0.48-1.319-0.72-2.339-0.72L62.915,152.053L62.915,152.053z"/>
			<path fill="#FFFFFF" d="M72.995,167.826H72.02l1.338-4.858h1.318L72.995,167.826z"/>
			<path fill="#FFFFFF" d="M93.738,164.738c-1.053,0.51-2.428,0.765-4.125,0.765c-2.213,0-3.954-0.651-5.221-1.952
				s-1.901-3.033-1.901-5.201c0-2.307,0.712-4.178,2.138-5.613c1.425-1.435,3.274-2.151,5.548-2.151
				c1.408,0,2.595,0.179,3.561,0.533v3.128c-0.966-0.576-2.065-0.864-3.299-0.864c-1.355,0-2.448,0.427-3.28,1.277
				s-1.248,2.005-1.248,3.46c0,1.396,0.393,2.507,1.177,3.335c0.785,0.829,1.841,1.242,3.169,1.242c1.268,0,2.428-0.308,3.48-0.925
				L93.738,164.738L93.738,164.738z"/>
			<path fill="#FFFFFF" d="M108.939,165.251h-3.542l-1.026-3.209h-5.13l-1.016,3.209h-3.521l5.251-14.426h3.853L108.939,165.251z
				 M103.627,159.547l-1.549-4.849c-0.114-0.362-0.195-0.796-0.242-1.298h-0.081c-0.034,0.423-0.117,0.842-0.251,1.258l-1.569,4.889
				H103.627z"/>
			<path fill="#FFFFFF" d="M119.431,153.471h-4.114v11.78h-3.259v-11.78h-4.094v-2.646h11.468L119.431,153.471L119.431,153.471z"/>
			<path fill="#FFFFFF" d="M132.62,165.251h-3.542l-1.026-3.209h-5.13l-1.016,3.209h-3.521l5.251-14.426h3.853L132.62,165.251z
				 M127.309,159.547l-1.55-4.849c-0.114-0.362-0.194-0.796-0.241-1.298h-0.082c-0.034,0.423-0.117,0.842-0.251,1.258l-1.569,4.889
				H127.309z"/>
			<path fill="#FFFFFF" d="M143.012,165.251h-8.591v-14.426h3.249v11.79h5.342V165.251L143.012,165.251z"/>
			<path fill="#FFFFFF" d="M150.537,165.503c-2.066,0-3.749-0.673-5.051-2.019c-1.301-1.344-1.95-3.096-1.95-5.256
				c0-2.279,0.659-4.125,1.981-5.533c1.32-1.407,3.071-2.111,5.25-2.111c2.06,0,3.725,0.674,4.996,2.021
				c1.271,1.349,1.905,3.125,1.905,5.332c0,2.267-0.659,4.095-1.978,5.481C154.375,164.809,152.656,165.503,150.537,165.503z
				 M150.677,153.381c-1.14,0-2.045,0.428-2.716,1.282s-1.006,1.985-1.006,3.396c0,1.428,0.335,2.56,1.006,3.391
				c0.67,0.832,1.549,1.246,2.637,1.246c1.119,0,2.008-0.402,2.666-1.211c0.656-0.809,0.985-1.931,0.985-3.365
				c0-1.495-0.317-2.658-0.956-3.49S151.784,153.381,150.677,153.381z"/>
			<path fill="#FFFFFF" d="M171.904,164.285c-1.408,0.813-3.159,1.218-5.252,1.218c-2.319,0-4.148-0.644-5.486-1.927
				c-1.338-1.284-2.007-3.055-2.007-5.307c0-2.268,0.729-4.114,2.192-5.543c1.463-1.43,3.407-2.144,5.834-2.144
				c1.529,0,2.877,0.211,4.045,0.634v3.049c-1.114-0.645-2.476-0.967-4.084-0.967c-1.349,0-2.446,0.438-3.295,1.313
				c-0.849,0.877-1.272,2.045-1.272,3.507c0,1.481,0.381,2.63,1.142,3.44c0.762,0.812,1.789,1.217,3.084,1.217
				c0.777,0,1.395-0.109,1.85-0.332v-2.815h-2.887v-2.596h6.137V164.285L171.904,164.285z"/>
		</g>
	</g>
	<g>
		<g>
			<rect x="20" y="19.377" fill="#FFFFFF" width="5.106" height="15.321"/>
			<rect x="20" y="29.59" fill="#FFFFFF" width="15.32" height="5.108"/>
			<rect x="29.012" y="19.377" fill="#FFFFFF" width="6.308" height="6.309"/>
		</g>
	</g>
</g>
</svg>
