<?xml version="1.0" encoding="utf-8"?>
<!-- Generator: Adobe Illustrator 16.0.0, SVG Export Plug-In . SVG Version: 6.00 Build 0)  -->
<!DOCTYPE svg PUBLIC "-//W3C//DTD SVG 1.1//EN" "http://www.w3.org/Graphics/SVG/1.1/DTD/svg11.dtd">
<svg version="1.1" id="Layer_1" xmlns="http://www.w3.org/2000/svg" xmlns:xlink="http://www.w3.org/1999/xlink" x="0px" y="0px"
	 width="728px" height="90px" viewBox="0 0 728 90" enable-background="new 0 0 728 90" xml:space="preserve">
<g>
	<rect fill="#FAFAFA" width="728" height="90"/>
	<g>
		<g enable-background="new    ">
			<path fill="#191919" d="M26.225,39.665l-4.56-13.958h-1.688V22.89h7.202v2.816h-1.654l2.596,8.003l2.435-8.003h-1.447V22.89
				h5.743v2.816h-1.482l2.619,8.003l2.516-8.003h-1.597V22.89h6.397v2.816H41.57l-4.41,13.958h-2.986l-2.516-7.608l-2.377,7.608
				H26.225z"/>
			<path fill="#191919" d="M44.074,39.557v-2.816h1.918V25.706h-1.918V22.89h14.081v5.284H55.1v-2.468h-4.95v3.846h3.997v2.816
				H50.15v4.373h4.95v-2.492h3.055v5.308H44.074z"/>
			<path fill="#191919" d="M59.763,39.557v-2.816h1.964V25.706h-1.964V22.89h7.293c1.616,0,2.818,0.098,3.606,0.293
				c0.789,0.196,1.47,0.671,2.044,1.426c0.575,0.755,0.862,1.64,0.862,2.654c0,1.622-0.75,2.768-2.251,3.438
				c1.914,0.743,2.872,2.073,2.872,3.99c0,1.103-0.297,2.047-0.89,2.834c-0.594,0.787-1.359,1.322-2.297,1.605
				s-2.253,0.425-3.945,0.425H59.763z M65.885,29.468h1.171c0.812,0,1.409-0.144,1.792-0.432s0.574-0.794,0.574-1.521
				c0-0.663-0.186-1.13-0.557-1.402s-1.021-0.407-1.947-0.407h-1.034V29.468z M65.885,36.741h1.171c1.064,0,1.807-0.16,2.229-0.479
				c0.421-0.319,0.631-0.882,0.631-1.689c0-0.847-0.228-1.439-0.683-1.779c-0.456-0.339-1.181-0.509-2.177-0.509h-1.171V36.741z"/>
			<path fill="#191919" d="M81.838,39.557v-2.816h2.423V25.706h-2.423V22.89h7.569c1.593,0,2.875,0.102,3.848,0.306
				c0.973,0.204,1.903,0.655,2.791,1.354c0.888,0.699,1.601,1.635,2.137,2.81c0.536,1.174,0.804,2.476,0.804,3.906
				c0,1.159-0.188,2.263-0.563,3.313c-0.375,1.051-0.841,1.897-1.396,2.54c-0.556,0.643-1.22,1.155-1.993,1.534
				c-0.773,0.38-1.483,0.625-2.13,0.737c-0.647,0.112-1.648,0.168-3.003,0.168H81.838z M88.408,36.741h0.999
				c1.21,0,2.169-0.164,2.877-0.491c0.708-0.327,1.276-0.904,1.706-1.731c0.429-0.827,0.643-1.907,0.643-3.241
				c0-1.27-0.216-2.349-0.649-3.235c-0.433-0.887-1.019-1.498-1.757-1.833s-1.679-0.503-2.82-0.503h-0.999V36.741z"/>
			<path fill="#191919" d="M100.928,39.557v-2.816h1.918V25.706h-1.918V22.89h14.081v5.284h-3.055v-2.468h-4.95v3.846H111v2.816
				h-3.997v4.373h4.95v-2.492h3.055v5.308H100.928z"/>
			<path fill="#191919" d="M116.95,39.557v-5.679h2.71c0.03,1.039,0.291,1.803,0.781,2.294c0.49,0.491,1.049,0.737,1.677,0.737
				c0.49,0,0.903-0.178,1.24-0.533s0.505-0.773,0.505-1.252c0-0.511-0.165-0.94-0.494-1.288c-0.33-0.348-0.931-0.743-1.805-1.188
				c-1.849-0.928-3.103-1.748-3.763-2.46c-0.66-0.712-0.99-1.672-0.99-2.881c0-1.456,0.437-2.584,1.31-3.384
				c0.873-0.8,1.864-1.2,2.975-1.2c1.271,0,2.255,0.517,2.952,1.551V22.89h2.699v5.068h-2.699c-0.084-0.783-0.343-1.388-0.775-1.815
				c-0.433-0.427-0.936-0.641-1.51-0.641c-0.444,0-0.82,0.124-1.126,0.372s-0.459,0.571-0.459,0.971
				c0,0.343,0.126,0.669,0.379,0.977c0.252,0.308,0.992,0.743,2.219,1.308c1.18,0.548,2.086,1.044,2.717,1.488
				c0.631,0.443,1.13,1.019,1.497,1.727c0.367,0.708,0.55,1.525,0.55,2.452c0,1.647-0.459,2.887-1.378,3.718
				c-0.919,0.832-2.006,1.247-3.262,1.247c-1.401,0-2.481-0.541-3.239-1.624v1.42H116.95z"/>
			<path fill="#191919" d="M128.838,39.557v-2.816h2.423V25.706h-2.423V22.89h9.027v2.816h-2.446v11.035h2.446v2.816H128.838z"/>
			<path fill="#191919" d="M149.638,33.961v-2.816h7.489c0,2.021-0.351,3.623-1.051,4.805c-0.7,1.182-1.719,2.113-3.055,2.792
				c-1.336,0.679-2.835,1.019-4.497,1.019c-2.887,0-5.102-0.807-6.644-2.42c-1.543-1.613-2.314-3.662-2.314-6.146
				c0-1.725,0.383-3.249,1.148-4.571s1.795-2.318,3.09-2.99c1.294-0.671,2.699-1.006,4.215-1.006c2.144,0,3.813,0.543,5.008,1.629
				V22.89h2.711v5.919h-2.711c-0.283-0.999-0.846-1.785-1.688-2.36s-1.746-0.863-2.71-0.863c-1.271,0-2.354,0.469-3.25,1.408
				c-0.896,0.939-1.344,2.239-1.344,3.9c0,1.901,0.456,3.349,1.367,4.343s2.021,1.492,3.331,1.492c0.965,0,1.765-0.244,2.4-0.731
				c0.635-0.487,1.076-1.166,1.321-2.037H149.638z"/>
			<path fill="#191919" d="M158.85,39.557v-2.816h2.136V25.706h-2.136V22.89h6.711l5.877,10.393v-7.577h-2.079V22.89h7.167v2.816
				h-2.24v13.97h-3.561l-6.891-12.353v9.417h2.01v2.816H158.85z"/>
			<path fill="#191919" d="M177.364,39.557v-2.816h2.423V25.706h-2.423V22.89h9.027v2.816h-2.446v11.035h2.446v2.816H177.364z"/>
			<path fill="#191919" d="M187.518,39.557v-2.816h2.136V25.706h-2.136V22.89h6.711l5.877,10.393v-7.577h-2.079V22.89h7.167v2.816
				h-2.24v13.97h-3.561l-6.891-12.353v9.417h2.01v2.816H187.518z"/>
			<path fill="#191919" d="M216.794,33.961v-2.816h7.489c0,2.021-0.351,3.623-1.051,4.805c-0.7,1.182-1.719,2.113-3.055,2.792
				c-1.336,0.679-2.835,1.019-4.497,1.019c-2.887,0-5.102-0.807-6.644-2.42c-1.543-1.613-2.314-3.662-2.314-6.146
				c0-1.725,0.383-3.249,1.148-4.571s1.795-2.318,3.09-2.99c1.294-0.671,2.699-1.006,4.215-1.006c2.144,0,3.813,0.543,5.008,1.629
				V22.89h2.711v5.919h-2.711c-0.283-0.999-0.846-1.785-1.688-2.36s-1.746-0.863-2.71-0.863c-1.271,0-2.354,0.469-3.25,1.408
				c-0.896,0.939-1.344,2.239-1.344,3.9c0,1.901,0.456,3.349,1.367,4.343s2.021,1.492,3.331,1.492c0.965,0,1.765-0.244,2.4-0.731
				c0.635-0.487,1.076-1.166,1.321-2.037H216.794z"/>
		</g>
		<g enable-background="new    ">
			<path fill="#646464" d="M37.906,61.675v2.672h-4.732l-1.447-1.845c-1.523,1.422-3.243,2.133-5.157,2.133
				c-1.738,0-3.123-0.508-4.152-1.521c-1.03-1.016-1.544-2.213-1.544-3.596c0-1.062,0.327-2.021,0.982-2.875
				s1.797-1.689,3.428-2.504c-0.834-1.007-1.252-2.018-1.252-3.031c0-1.183,0.423-2.094,1.27-2.732
				c0.846-0.639,1.874-0.959,3.083-0.959c1.225,0,2.244,0.32,3.055,0.959s1.218,1.454,1.218,2.444c0,1.542-0.927,2.804-2.78,3.786
				l2.274,3.008c0.857-1.215,1.516-2.369,1.976-3.463h3.779v2.672h-1.953c-0.582,1.262-1.225,2.309-1.93,3.139l1.31,1.714H37.906z
				 M26.903,56.188c-1.585,0.687-2.377,1.617-2.377,2.791c0,0.664,0.25,1.248,0.752,1.756c0.501,0.508,1.146,0.761,1.935,0.761
				c0.919,0,1.83-0.436,2.733-1.306L26.903,56.188z M28.281,52.509c1.026-0.479,1.539-1.034,1.539-1.665
				c0-0.328-0.128-0.611-0.385-0.852c-0.257-0.239-0.565-0.359-0.925-0.359c-0.344,0-0.645,0.102-0.901,0.307
				c-0.257,0.203-0.385,0.453-0.385,0.748C27.225,50.991,27.577,51.598,28.281,52.509z"/>
			<path fill="#646464" d="M45.291,64.347v-2.815h2.423V50.496h-2.423V47.68h7.569c1.593,0,2.875,0.103,3.848,0.307
				c0.973,0.203,1.903,0.654,2.791,1.354s1.601,1.635,2.137,2.81c0.536,1.175,0.804,2.476,0.804,3.905
				c0,1.159-0.188,2.264-0.563,3.313c-0.375,1.051-0.841,1.897-1.396,2.54c-0.556,0.643-1.22,1.154-1.993,1.533
				c-0.773,0.381-1.483,0.626-2.13,0.737c-0.647,0.112-1.648,0.168-3.003,0.168H45.291z M51.861,61.531h0.999
				c1.21,0,2.169-0.164,2.877-0.492c0.708-0.326,1.276-0.904,1.706-1.73c0.429-0.827,0.643-1.907,0.643-3.241
				c0-1.271-0.216-2.349-0.649-3.235s-1.019-1.498-1.757-1.833s-1.679-0.503-2.82-0.503h-0.999V61.531z"/>
			<path fill="#646464" d="M64.38,64.347v-2.815h1.918V50.496H64.38V47.68h14.081v5.285h-3.055v-2.469h-4.95v3.846h3.997v2.816
				h-3.997v4.373h4.95v-2.492h3.055v5.308H64.38z"/>
			<path fill="#646464" d="M85.916,64.455l-4.755-13.959h-1.907V47.68h8.155v2.816h-2.067l2.687,8.352l2.694-8.352h-2.039V47.68
				h7.075v2.816h-1.941l-4.583,13.959H85.916z"/>
			<path fill="#646464" d="M96.494,64.347v-2.815h1.918V50.496h-1.918V47.68h14.081v5.285h-3.055v-2.469h-4.95v3.846h3.997v2.816
				h-3.997v4.373h4.95v-2.492h3.055v5.308H96.494z"/>
			<path fill="#646464" d="M112.057,64.347v-2.815h2.286V50.496h-2.286V47.68h8.775v2.816H118.5v11.035h4.721v-5.152h3.112v7.968
				H112.057z"/>
			<path fill="#646464" d="M136.636,47.416c2.756,0,4.925,0.832,6.506,2.492c1.581,1.662,2.372,3.688,2.372,6.075
				c0,2.396-0.792,4.423-2.378,6.081c-1.585,1.657-3.752,2.486-6.5,2.486c-2.856,0-5.05-0.854-6.582-2.559s-2.297-3.708-2.297-6.009
				c0-2.38,0.787-4.403,2.36-6.069C131.691,48.25,133.864,47.416,136.636,47.416z M136.636,50.46c-1.226,0-2.265,0.479-3.119,1.438
				c-0.854,0.958-1.28,2.363-1.28,4.217c0,1.638,0.421,2.947,1.263,3.93s1.887,1.475,3.136,1.475c1.225,0,2.266-0.481,3.124-1.444
				c0.857-0.962,1.286-2.351,1.286-4.163c0-1.622-0.41-2.936-1.229-3.942S137.938,50.46,136.636,50.46z"/>
			<path fill="#646464" d="M155.806,61.531v2.815h-8.419v-2.815h2.033V50.496h-2.033V47.68h8.419c1.96,0,3.474,0.48,4.542,1.438
				s1.602,2.249,1.602,3.87c0,0.926-0.188,1.768-0.563,2.521c-0.375,0.756-0.856,1.334-1.441,1.738
				c-0.586,0.402-1.256,0.679-2.01,0.826c-0.754,0.148-1.698,0.222-2.831,0.222h-1.527v3.235H155.806z M153.578,55.516h0.62
				c1.424,0,2.341-0.24,2.75-0.725c0.41-0.482,0.615-1.084,0.615-1.803c0-0.607-0.142-1.125-0.425-1.552s-0.608-0.69-0.976-0.791
				c-0.368-0.1-0.969-0.149-1.803-0.149h-0.781V55.516z"/>
			<path fill="#646464" d="M163.019,64.347v-2.815h2.067V50.496h-2.067V47.68h8.014l3.505,9.764l3.526-9.764h8.167v2.816h-2.067
				v11.035h2.067v2.815h-8.04v-2.815h1.93V50.496h-0.379l-4.95,13.851h-1.723l-5.007-13.851h-0.379v11.035h2.09v2.815H163.019z"/>
			<path fill="#646464" d="M187.667,64.347v-2.815h1.918V50.496h-1.918V47.68h14.081v5.285h-3.055v-2.469h-4.95v3.846h3.997v2.816
				h-3.997v4.373h4.95v-2.492h3.055v5.308H187.667z"/>
			<path fill="#646464" d="M203.207,64.347v-2.815h2.136V50.496h-2.136V47.68h6.711l5.877,10.393v-7.576h-2.079V47.68h7.167v2.816
				h-2.24v13.971h-3.561l-6.891-12.354v9.418h2.01v2.815H203.207z"/>
			<path fill="#646464" d="M224.673,64.347v-2.815h2.4V50.496h-2.4v3.882h-2.745V47.68h14.483v6.698h-2.711v-3.882h-2.469v11.035
				h2.4v2.815H224.673z"/>
		</g>
		<g>
			<g>
				<g enable-background="new    ">
					<path fill="#191919" d="M275.748,30.817h-0.991l-2.189-7.579c-0.052-0.181-0.094-0.354-0.125-0.521
						c-0.031-0.167-0.048-0.328-0.053-0.485h-0.028c-0.019,0.276-0.088,0.606-0.207,0.991l-2.267,7.594h-0.991l-3.016-10.225h1.055
						l2.253,8.021c0.052,0.176,0.094,0.344,0.125,0.503s0.056,0.313,0.075,0.46h0.029c0.028-0.214,0.107-0.535,0.235-0.963
						l2.396-8.021h0.749l2.246,8.05c0.043,0.162,0.081,0.32,0.114,0.475s0.059,0.305,0.078,0.452h0.029
						c0.009-0.095,0.028-0.202,0.057-0.32c0.028-0.119,0.062-0.252,0.1-0.399l2.239-8.257h1.034L275.748,30.817z"/>
					<path fill="#191919" d="M280.226,27.331c0.005,0.446,0.064,0.849,0.178,1.205c0.114,0.356,0.278,0.658,0.492,0.905
						s0.474,0.436,0.781,0.566s0.652,0.196,1.037,0.196c0.823,0,1.6-0.287,2.332-0.862v0.898c-0.699,0.499-1.544,0.748-2.538,0.748
						c-0.49,0-0.934-0.085-1.333-0.257c-0.399-0.171-0.739-0.419-1.02-0.745c-0.28-0.325-0.497-0.726-0.649-1.201
						c-0.152-0.476-0.228-1.017-0.228-1.626c0-0.546,0.083-1.053,0.25-1.519s0.397-0.868,0.692-1.208
						c0.294-0.34,0.644-0.606,1.048-0.799s0.846-0.289,1.326-0.289c0.471,0,0.887,0.082,1.248,0.246
						c0.361,0.164,0.664,0.398,0.909,0.702c0.245,0.305,0.432,0.676,0.56,1.112c0.128,0.438,0.192,0.928,0.192,1.469v0.457H280.226z
						 M284.561,26.532c-0.014-0.761-0.195-1.35-0.542-1.769c-0.347-0.418-0.83-0.627-1.448-0.627c-0.309,0-0.595,0.055-0.859,0.164
						c-0.264,0.109-0.496,0.267-0.695,0.474s-0.365,0.459-0.496,0.756s-0.222,0.631-0.274,1.002H284.561z"/>
					<path fill="#191919" d="M295.591,30.817l-3.358-3.558h-0.028v3.558h-0.913v-10.81h0.913v6.909h0.028l3.187-3.4h1.191
						l-3.422,3.529l3.693,3.771H295.591z"/>
					<path fill="#191919" d="M303.085,30.817V26.61c0-1.649-0.599-2.474-1.797-2.474c-0.318,0-0.613,0.063-0.884,0.188
						s-0.505,0.301-0.702,0.524s-0.352,0.488-0.463,0.795c-0.112,0.307-0.167,0.638-0.167,0.994v4.179h-0.913v-7.301h0.913v1.269
						h0.028c0.542-0.96,1.357-1.44,2.446-1.44c0.798,0,1.407,0.26,1.825,0.777c0.418,0.519,0.627,1.267,0.627,2.246v4.449H303.085z"
						/>
					<path fill="#191919" d="M309.181,30.988c-0.542,0-1.028-0.09-1.458-0.271c-0.431-0.181-0.798-0.437-1.102-0.767
						c-0.305-0.33-0.538-0.727-0.699-1.188c-0.162-0.461-0.243-0.972-0.243-1.533c0-0.608,0.085-1.152,0.257-1.633
						c0.171-0.479,0.415-0.888,0.73-1.223c0.316-0.335,0.698-0.59,1.145-0.767c0.447-0.176,0.946-0.264,1.498-0.264
						c0.527,0,1.003,0.087,1.426,0.261c0.423,0.174,0.782,0.424,1.077,0.752s0.521,0.728,0.677,1.198
						c0.157,0.471,0.235,1.005,0.235,1.604c0,0.571-0.082,1.09-0.246,1.559c-0.164,0.468-0.398,0.871-0.703,1.208
						c-0.304,0.338-0.675,0.6-1.112,0.784C310.227,30.896,309.732,30.988,309.181,30.988z M309.252,24.137
						c-0.399,0-0.761,0.068-1.084,0.206c-0.323,0.139-0.6,0.339-0.831,0.603c-0.23,0.265-0.408,0.588-0.531,0.97
						c-0.124,0.383-0.185,0.816-0.185,1.302c0,0.456,0.062,0.867,0.185,1.233s0.298,0.68,0.524,0.941
						c0.226,0.262,0.5,0.462,0.823,0.603c0.323,0.14,0.685,0.21,1.084,0.21c0.409,0,0.77-0.067,1.083-0.203
						c0.314-0.136,0.58-0.333,0.799-0.592c0.218-0.259,0.384-0.576,0.496-0.952c0.111-0.375,0.167-0.803,0.167-1.283
						c0-0.984-0.219-1.736-0.656-2.257C310.69,24.396,310.065,24.137,309.252,24.137z"/>
					<path fill="#191919" d="M321.16,30.817h-0.913l-1.547-5.362c-0.048-0.166-0.085-0.382-0.114-0.648h-0.028
						c-0.01,0.071-0.025,0.159-0.046,0.264s-0.056,0.229-0.104,0.371l-1.704,5.376h-0.891l-2.21-7.301h0.977l1.604,5.661
						c0.047,0.166,0.081,0.378,0.1,0.635h0.057c0.01-0.086,0.025-0.184,0.046-0.293c0.021-0.109,0.051-0.226,0.089-0.35l1.768-5.653
						h0.756l1.583,5.668c0.043,0.162,0.079,0.373,0.107,0.635h0.057c-0.005-0.081,0.004-0.175,0.028-0.282
						c0.024-0.106,0.055-0.225,0.093-0.353l1.604-5.668h0.919L321.16,30.817z"/>
					<path fill="#191919" d="M331.919,30.731c-0.314,0.157-0.656,0.235-1.027,0.235c-1.179,0-1.769-0.68-1.769-2.039v-4.613h-1.283
						v-0.798h1.283v-1.84l0.913-0.3v2.14h1.883v0.798h-1.883v4.471c0,0.494,0.081,0.852,0.243,1.069
						c0.162,0.219,0.435,0.328,0.82,0.328c0.285,0,0.559-0.085,0.82-0.257V30.731z"/>
					<path fill="#191919" d="M338.351,30.817v-4.292c0-0.817-0.147-1.42-0.442-1.808c-0.294-0.388-0.753-0.581-1.376-0.581
						c-0.295,0-0.575,0.06-0.841,0.178c-0.266,0.119-0.499,0.29-0.699,0.514s-0.359,0.495-0.478,0.816
						c-0.119,0.32-0.178,0.684-0.178,1.087v4.086h-0.913v-10.81h0.913v4.771h0.028c0.57-0.956,1.388-1.434,2.453-1.434
						c0.813,0,1.424,0.25,1.833,0.749s0.613,1.236,0.613,2.21v4.514H338.351z"/>
					<path fill="#191919" d="M341.894,27.331c0.005,0.446,0.064,0.849,0.178,1.205c0.114,0.356,0.278,0.658,0.492,0.905
						s0.474,0.436,0.781,0.566s0.652,0.196,1.037,0.196c0.823,0,1.6-0.287,2.332-0.862v0.898c-0.699,0.499-1.544,0.748-2.538,0.748
						c-0.49,0-0.934-0.085-1.333-0.257c-0.399-0.171-0.739-0.419-1.02-0.745c-0.28-0.325-0.497-0.726-0.649-1.201
						c-0.152-0.476-0.228-1.017-0.228-1.626c0-0.546,0.083-1.053,0.25-1.519s0.397-0.868,0.692-1.208
						c0.294-0.34,0.644-0.606,1.048-0.799s0.846-0.289,1.326-0.289c0.471,0,0.887,0.082,1.248,0.246
						c0.361,0.164,0.664,0.398,0.909,0.702c0.245,0.305,0.432,0.676,0.56,1.112c0.128,0.438,0.192,0.928,0.192,1.469v0.457H341.894z
						 M346.229,26.532c-0.014-0.761-0.195-1.35-0.542-1.769c-0.347-0.418-0.83-0.627-1.448-0.627c-0.309,0-0.595,0.055-0.859,0.164
						c-0.264,0.109-0.496,0.267-0.695,0.474s-0.365,0.459-0.496,0.756s-0.222,0.631-0.274,1.002H346.229z"/>
					<path fill="#191919" d="M355.563,30.817h-0.87l-2.795-7.301h1.005l2.018,5.561c0.124,0.338,0.202,0.635,0.235,0.892h0.028
						c0.057-0.342,0.131-0.63,0.221-0.862l2.089-5.59h0.977L355.563,30.817z"/>
					<path fill="#191919" d="M363.705,30.817V29.52h-0.029c-0.237,0.466-0.562,0.827-0.973,1.084s-0.876,0.385-1.394,0.385
						c-0.352,0-0.669-0.05-0.952-0.149s-0.523-0.241-0.72-0.425c-0.197-0.183-0.349-0.402-0.456-0.659s-0.161-0.539-0.161-0.849
						c0-0.66,0.204-1.187,0.613-1.579c0.409-0.393,1.027-0.647,1.854-0.767l2.217-0.32c0-1.402-0.544-2.104-1.633-2.104
						c-0.851,0-1.64,0.312-2.367,0.934v-0.998c0.152-0.109,0.324-0.208,0.517-0.296c0.192-0.088,0.396-0.164,0.609-0.229
						c0.214-0.063,0.434-0.113,0.66-0.149c0.226-0.035,0.445-0.054,0.66-0.054c0.813,0,1.427,0.229,1.843,0.685
						s0.624,1.137,0.624,2.039v4.749H363.705z M361.823,27.273c-0.328,0.048-0.608,0.107-0.841,0.179s-0.426,0.167-0.578,0.289
						c-0.152,0.121-0.264,0.271-0.335,0.448c-0.071,0.179-0.107,0.398-0.107,0.66c0,0.194,0.034,0.375,0.103,0.542
						c0.069,0.166,0.169,0.31,0.3,0.431c0.13,0.122,0.29,0.216,0.478,0.282c0.188,0.066,0.4,0.1,0.638,0.1
						c0.323,0,0.62-0.062,0.891-0.186c0.271-0.123,0.505-0.294,0.703-0.513c0.197-0.219,0.352-0.48,0.463-0.785
						c0.111-0.304,0.167-0.634,0.167-0.99V27.01L361.823,27.273z"/>
					<path fill="#191919" d="M366.813,30.817v-10.81h0.913v10.81H366.813z"/>
					<path fill="#191919" d="M374.856,30.817v-1.24h-0.028c-0.494,0.94-1.262,1.411-2.303,1.411c-1.735,0-2.604-1.06-2.604-3.18
						v-4.292h0.913v4.121c0,0.874,0.155,1.521,0.468,1.939c0.311,0.418,0.787,0.627,1.43,0.627c0.313,0,0.6-0.061,0.858-0.182
						s0.482-0.292,0.671-0.514c0.188-0.221,0.334-0.485,0.438-0.795c0.105-0.309,0.157-0.651,0.157-1.026v-4.171h0.913v7.301
						H374.856z"/>
					<path fill="#191919" d="M378.557,27.331c0.006,0.446,0.064,0.849,0.179,1.205s0.278,0.658,0.492,0.905s0.474,0.436,0.78,0.566
						s0.652,0.196,1.037,0.196c0.823,0,1.6-0.287,2.332-0.862v0.898c-0.699,0.499-1.545,0.748-2.538,0.748
						c-0.489,0-0.935-0.085-1.333-0.257c-0.399-0.171-0.74-0.419-1.02-0.745c-0.281-0.325-0.497-0.726-0.649-1.201
						c-0.151-0.476-0.228-1.017-0.228-1.626c0-0.546,0.082-1.053,0.249-1.519s0.397-0.868,0.692-1.208
						c0.294-0.34,0.644-0.606,1.047-0.799c0.404-0.192,0.847-0.289,1.326-0.289c0.471,0,0.887,0.082,1.248,0.246
						s0.664,0.398,0.909,0.702c0.245,0.305,0.432,0.676,0.56,1.112c0.129,0.438,0.193,0.928,0.193,1.469v0.457H378.557z
						 M382.893,26.532c-0.015-0.761-0.195-1.35-0.542-1.769c-0.347-0.418-0.829-0.627-1.448-0.627c-0.309,0-0.595,0.055-0.858,0.164
						c-0.265,0.109-0.495,0.267-0.695,0.474s-0.364,0.459-0.495,0.756s-0.223,0.631-0.275,1.002H382.893z"/>
					<path fill="#191919" d="M392.611,30.988c-0.543,0-1.028-0.09-1.459-0.271c-0.43-0.181-0.797-0.437-1.102-0.767
						s-0.537-0.727-0.698-1.188c-0.162-0.461-0.243-0.972-0.243-1.533c0-0.608,0.086-1.152,0.258-1.633
						c0.17-0.479,0.414-0.888,0.73-1.223s0.697-0.59,1.145-0.767c0.446-0.176,0.945-0.264,1.497-0.264
						c0.527,0,1.003,0.087,1.426,0.261s0.782,0.424,1.077,0.752s0.52,0.728,0.677,1.198s0.235,1.005,0.235,1.604
						c0,0.571-0.082,1.09-0.246,1.559c-0.164,0.468-0.398,0.871-0.702,1.208c-0.304,0.338-0.675,0.6-1.112,0.784
						C393.656,30.896,393.162,30.988,392.611,30.988z M392.682,24.137c-0.398,0-0.76,0.068-1.084,0.206
						c-0.322,0.139-0.6,0.339-0.83,0.603c-0.23,0.265-0.408,0.588-0.531,0.97c-0.123,0.383-0.186,0.816-0.186,1.302
						c0,0.456,0.063,0.867,0.186,1.233s0.299,0.68,0.524,0.941s0.5,0.462,0.823,0.603c0.323,0.14,0.685,0.21,1.084,0.21
						c0.408,0,0.77-0.067,1.084-0.203c0.313-0.136,0.58-0.333,0.799-0.592c0.218-0.259,0.383-0.576,0.495-0.952
						c0.111-0.375,0.167-0.803,0.167-1.283c0-0.984-0.219-1.736-0.656-2.257C394.12,24.396,393.495,24.137,392.682,24.137z"/>
					<path fill="#191919" d="M401.131,20.871c-0.204-0.133-0.468-0.2-0.791-0.2c-0.855,0-1.283,0.559-1.283,1.676v1.17h1.818v0.798
						h-1.818v6.503h-0.913v-6.503h-1.276v-0.798h1.276V22.29c0-0.366,0.046-0.698,0.14-0.995c0.092-0.297,0.229-0.551,0.41-0.763
						c0.18-0.212,0.406-0.374,0.68-0.488s0.589-0.171,0.945-0.171c0.342,0,0.613,0.045,0.813,0.135V20.871z"/>
					<path fill="#191919" d="M408.146,32.144c-0.285,0.713-0.612,1.242-0.983,1.587c-0.37,0.344-0.819,0.517-1.348,0.517
						c-0.261,0-0.482-0.031-0.663-0.093v-0.855c0.104,0.038,0.211,0.066,0.317,0.085c0.106,0.02,0.215,0.029,0.325,0.029
						c0.299,0,0.559-0.095,0.78-0.282c0.221-0.188,0.412-0.472,0.573-0.852l0.635-1.498l-2.809-7.265h1.012l2.09,5.782
						c0.028,0.076,0.056,0.163,0.082,0.26c0.025,0.098,0.051,0.194,0.074,0.289h0.036c0.023-0.081,0.046-0.163,0.067-0.246
						s0.051-0.175,0.09-0.274l2.217-5.811h0.963L408.146,32.144z"/>
					<path fill="#191919" d="M415.783,30.988c-0.541,0-1.027-0.09-1.457-0.271c-0.432-0.181-0.799-0.437-1.102-0.767
						c-0.305-0.33-0.538-0.727-0.699-1.188c-0.162-0.461-0.242-0.972-0.242-1.533c0-0.608,0.085-1.152,0.256-1.633
						c0.172-0.479,0.415-0.888,0.73-1.223c0.316-0.335,0.698-0.59,1.145-0.767c0.447-0.176,0.946-0.264,1.498-0.264
						c0.527,0,1.003,0.087,1.426,0.261c0.424,0.174,0.781,0.424,1.076,0.752s0.521,0.728,0.678,1.198
						c0.157,0.471,0.235,1.005,0.235,1.604c0,0.571-0.082,1.09-0.245,1.559c-0.164,0.468-0.398,0.871-0.703,1.208
						c-0.305,0.338-0.675,0.6-1.112,0.784C416.829,30.896,416.335,30.988,415.783,30.988z M415.855,24.137
						c-0.4,0-0.762,0.068-1.084,0.206c-0.324,0.139-0.601,0.339-0.831,0.603c-0.23,0.265-0.407,0.588-0.531,0.97
						c-0.124,0.383-0.185,0.816-0.185,1.302c0,0.456,0.061,0.867,0.185,1.233s0.298,0.68,0.524,0.941
						c0.226,0.262,0.5,0.462,0.823,0.603c0.323,0.14,0.685,0.21,1.084,0.21c0.409,0,0.771-0.067,1.083-0.203
						c0.314-0.136,0.58-0.333,0.799-0.592s0.385-0.576,0.496-0.952c0.111-0.375,0.168-0.803,0.168-1.283
						c0-0.984-0.219-1.736-0.656-2.257S416.668,24.137,415.855,24.137z"/>
					<path fill="#191919" d="M425.943,30.817v-1.24h-0.027c-0.495,0.94-1.263,1.411-2.304,1.411c-1.735,0-2.603-1.06-2.603-3.18
						v-4.292h0.912v4.121c0,0.874,0.156,1.521,0.468,1.939c0.312,0.418,0.788,0.627,1.43,0.627c0.313,0,0.6-0.061,0.858-0.182
						c0.26-0.121,0.482-0.292,0.671-0.514c0.188-0.221,0.334-0.485,0.438-0.795c0.104-0.309,0.156-0.651,0.156-1.026v-4.171h0.913
						v7.301H425.943z"/>
					<path fill="#191919" d="M432.831,24.45c-0.214-0.157-0.489-0.235-0.827-0.235c-0.242,0-0.456,0.047-0.642,0.139
						c-0.185,0.093-0.349,0.218-0.488,0.375c-0.14,0.156-0.259,0.339-0.356,0.545c-0.098,0.207-0.176,0.422-0.235,0.646
						s-0.103,0.449-0.128,0.678c-0.026,0.228-0.039,0.444-0.039,0.648v3.572h-0.906v-7.301h0.906v1.561h0.027
						c0.086-0.266,0.194-0.505,0.325-0.716c0.13-0.212,0.282-0.39,0.452-0.535c0.172-0.145,0.357-0.255,0.561-0.331
						c0.201-0.076,0.414-0.114,0.638-0.114c0.147,0,0.279,0.01,0.396,0.028c0.117,0.02,0.223,0.048,0.317,0.086V24.45z"/>
					<path fill="#191919" d="M439.07,29.641v1.177h-0.912v-10.81h0.912v4.906h0.029c0.271-0.509,0.633-0.897,1.087-1.166
						s0.966-0.403,1.536-0.403c0.467,0,0.883,0.085,1.252,0.253c0.368,0.169,0.68,0.41,0.934,0.725
						c0.254,0.313,0.449,0.691,0.585,1.133c0.136,0.442,0.203,0.935,0.203,1.477c0,0.604-0.077,1.153-0.231,1.65
						s-0.375,0.924-0.66,1.28s-0.631,0.633-1.037,0.83s-0.861,0.296-1.365,0.296c-1.031,0-1.799-0.449-2.303-1.348H439.07z
						 M439.07,27.78c0,0.332,0.057,0.645,0.168,0.938c0.111,0.292,0.268,0.549,0.467,0.77c0.199,0.222,0.441,0.396,0.724,0.524
						s0.596,0.192,0.938,0.192c0.365,0,0.695-0.077,0.99-0.231s0.545-0.375,0.752-0.66s0.366-0.629,0.479-1.033
						c0.111-0.404,0.167-0.855,0.167-1.354c0-0.429-0.052-0.814-0.157-1.159c-0.104-0.345-0.252-0.638-0.445-0.881
						c-0.192-0.242-0.426-0.428-0.699-0.556c-0.272-0.129-0.578-0.192-0.916-0.192c-0.38,0-0.723,0.07-1.026,0.21
						c-0.304,0.141-0.563,0.332-0.776,0.574c-0.215,0.242-0.379,0.526-0.492,0.852c-0.115,0.326-0.172,0.672-0.172,1.038V27.78z"/>
					<path fill="#191919" d="M451.313,30.817v-1.24h-0.028c-0.495,0.94-1.263,1.411-2.304,1.411c-1.734,0-2.602-1.06-2.602-3.18
						v-4.292h0.912v4.121c0,0.874,0.156,1.521,0.467,1.939c0.312,0.418,0.788,0.627,1.43,0.627c0.314,0,0.6-0.061,0.859-0.182
						s0.482-0.292,0.67-0.514c0.188-0.221,0.334-0.485,0.439-0.795c0.104-0.309,0.156-0.651,0.156-1.026v-4.171h0.912v7.301H451.313
						z"/>
					<path fill="#191919" d="M454.164,29.506c0.139,0.109,0.288,0.206,0.449,0.292c0.162,0.086,0.328,0.159,0.5,0.221
						c0.171,0.063,0.344,0.108,0.517,0.14c0.174,0.03,0.339,0.046,0.495,0.046c1.084,0,1.627-0.406,1.627-1.219
						c0-0.186-0.039-0.347-0.115-0.481c-0.076-0.136-0.186-0.259-0.328-0.371c-0.143-0.111-0.313-0.215-0.513-0.311
						c-0.2-0.095-0.426-0.194-0.677-0.299c-0.338-0.138-0.628-0.278-0.871-0.421c-0.242-0.143-0.441-0.298-0.599-0.467
						s-0.272-0.354-0.349-0.557s-0.115-0.431-0.115-0.688c0-0.323,0.07-0.611,0.211-0.863s0.329-0.466,0.566-0.642
						c0.238-0.176,0.513-0.31,0.824-0.402c0.311-0.093,0.638-0.14,0.98-0.14c0.632,0,1.184,0.119,1.654,0.356v0.963
						c-0.547-0.352-1.137-0.527-1.769-0.527c-0.229,0-0.437,0.028-0.624,0.085c-0.188,0.058-0.348,0.139-0.481,0.243
						c-0.133,0.104-0.236,0.229-0.31,0.374c-0.074,0.145-0.111,0.306-0.111,0.481c0,0.181,0.029,0.339,0.086,0.474
						c0.057,0.136,0.146,0.258,0.268,0.367s0.277,0.214,0.471,0.314c0.192,0.1,0.426,0.206,0.702,0.32
						c0.352,0.143,0.655,0.284,0.913,0.425c0.256,0.14,0.468,0.292,0.634,0.456c0.167,0.164,0.29,0.347,0.371,0.549
						s0.121,0.437,0.121,0.702c0,0.328-0.067,0.62-0.203,0.877s-0.323,0.474-0.563,0.649s-0.521,0.309-0.845,0.399
						c-0.323,0.09-0.675,0.135-1.056,0.135c-0.736,0-1.357-0.154-1.861-0.463V29.506z"/>
					<path fill="#191919" d="M460.959,21.669c-0.176,0-0.327-0.062-0.455-0.185c-0.129-0.124-0.193-0.28-0.193-0.471
						c0-0.186,0.064-0.339,0.193-0.46c0.128-0.121,0.279-0.182,0.455-0.182c0.091,0,0.176,0.016,0.258,0.046
						c0.08,0.031,0.15,0.075,0.21,0.132c0.06,0.058,0.106,0.125,0.143,0.203c0.036,0.079,0.054,0.165,0.054,0.261
						c0,0.09-0.018,0.176-0.051,0.257c-0.033,0.08-0.08,0.15-0.143,0.21c-0.061,0.06-0.131,0.105-0.21,0.139
						C461.142,21.652,461.055,21.669,460.959,21.669z M460.51,30.817v-7.301h0.914v7.301H460.51z"/>
					<path fill="#191919" d="M468.703,30.817V26.61c0-1.649-0.6-2.474-1.797-2.474c-0.318,0-0.613,0.063-0.885,0.188
						c-0.271,0.126-0.504,0.301-0.701,0.524s-0.353,0.488-0.464,0.795c-0.112,0.307-0.167,0.638-0.167,0.994v4.179h-0.914v-7.301
						h0.914v1.269h0.027c0.543-0.96,1.357-1.44,2.446-1.44c0.798,0,1.407,0.26,1.825,0.777c0.418,0.519,0.627,1.267,0.627,2.246
						v4.449H468.703z"/>
					<path fill="#191919" d="M472.246,27.331c0.006,0.446,0.064,0.849,0.179,1.205s0.278,0.658,0.492,0.905s0.474,0.436,0.78,0.566
						s0.652,0.196,1.037,0.196c0.823,0,1.6-0.287,2.332-0.862v0.898c-0.699,0.499-1.545,0.748-2.538,0.748
						c-0.489,0-0.935-0.085-1.333-0.257c-0.399-0.171-0.74-0.419-1.02-0.745c-0.281-0.325-0.497-0.726-0.649-1.201
						c-0.151-0.476-0.228-1.017-0.228-1.626c0-0.546,0.082-1.053,0.249-1.519s0.397-0.868,0.692-1.208
						c0.294-0.34,0.644-0.606,1.047-0.799c0.404-0.192,0.847-0.289,1.326-0.289c0.471,0,0.887,0.082,1.248,0.246
						s0.664,0.398,0.909,0.702c0.245,0.305,0.432,0.676,0.56,1.112c0.129,0.438,0.193,0.928,0.193,1.469v0.457H472.246z
						 M476.582,26.532c-0.015-0.761-0.195-1.35-0.542-1.769c-0.347-0.418-0.829-0.627-1.448-0.627c-0.309,0-0.595,0.055-0.858,0.164
						c-0.265,0.109-0.495,0.267-0.695,0.474s-0.364,0.459-0.495,0.756s-0.223,0.631-0.275,1.002H476.582z"/>
					<path fill="#191919" d="M478.898,29.506c0.139,0.109,0.288,0.206,0.449,0.292c0.162,0.086,0.328,0.159,0.5,0.221
						c0.171,0.063,0.344,0.108,0.517,0.14c0.174,0.03,0.339,0.046,0.495,0.046c1.084,0,1.627-0.406,1.627-1.219
						c0-0.186-0.039-0.347-0.115-0.481c-0.076-0.136-0.186-0.259-0.328-0.371c-0.143-0.111-0.313-0.215-0.513-0.311
						c-0.2-0.095-0.426-0.194-0.677-0.299c-0.338-0.138-0.628-0.278-0.871-0.421c-0.242-0.143-0.441-0.298-0.599-0.467
						s-0.272-0.354-0.349-0.557s-0.115-0.431-0.115-0.688c0-0.323,0.07-0.611,0.211-0.863s0.329-0.466,0.566-0.642
						c0.238-0.176,0.513-0.31,0.824-0.402c0.311-0.093,0.638-0.14,0.98-0.14c0.632,0,1.184,0.119,1.654,0.356v0.963
						c-0.547-0.352-1.137-0.527-1.769-0.527c-0.229,0-0.437,0.028-0.624,0.085c-0.188,0.058-0.348,0.139-0.481,0.243
						c-0.133,0.104-0.236,0.229-0.31,0.374c-0.074,0.145-0.111,0.306-0.111,0.481c0,0.181,0.029,0.339,0.086,0.474
						c0.057,0.136,0.146,0.258,0.268,0.367s0.277,0.214,0.471,0.314c0.192,0.1,0.426,0.206,0.702,0.32
						c0.352,0.143,0.655,0.284,0.913,0.425c0.256,0.14,0.468,0.292,0.634,0.456c0.167,0.164,0.29,0.347,0.371,0.549
						s0.121,0.437,0.121,0.702c0,0.328-0.067,0.62-0.203,0.877s-0.323,0.474-0.563,0.649s-0.521,0.309-0.845,0.399
						c-0.323,0.09-0.675,0.135-1.056,0.135c-0.736,0-1.357-0.154-1.861-0.463V29.506z"/>
					<path fill="#191919" d="M484.831,29.506c0.138,0.109,0.288,0.206,0.449,0.292s0.328,0.159,0.499,0.221
						c0.172,0.063,0.344,0.108,0.518,0.14c0.174,0.03,0.338,0.046,0.495,0.046c1.084,0,1.626-0.406,1.626-1.219
						c0-0.186-0.039-0.347-0.114-0.481c-0.076-0.136-0.186-0.259-0.328-0.371c-0.143-0.111-0.313-0.215-0.513-0.311
						c-0.2-0.095-0.426-0.194-0.678-0.299c-0.338-0.138-0.627-0.278-0.87-0.421c-0.242-0.143-0.442-0.298-0.599-0.467
						c-0.157-0.169-0.273-0.354-0.35-0.557s-0.114-0.431-0.114-0.688c0-0.323,0.07-0.611,0.21-0.863
						c0.141-0.252,0.33-0.466,0.567-0.642s0.513-0.31,0.823-0.402c0.312-0.093,0.639-0.14,0.98-0.14
						c0.633,0,1.184,0.119,1.654,0.356v0.963c-0.547-0.352-1.137-0.527-1.768-0.527c-0.229,0-0.438,0.028-0.625,0.085
						c-0.188,0.058-0.348,0.139-0.48,0.243s-0.236,0.229-0.311,0.374c-0.074,0.145-0.11,0.306-0.11,0.481
						c0,0.181,0.028,0.339,0.085,0.474c0.058,0.136,0.146,0.258,0.268,0.367s0.278,0.214,0.471,0.314
						c0.193,0.1,0.427,0.206,0.703,0.32c0.352,0.143,0.655,0.284,0.912,0.425c0.257,0.14,0.469,0.292,0.635,0.456
						s0.289,0.347,0.371,0.549c0.08,0.202,0.121,0.437,0.121,0.702c0,0.328-0.068,0.62-0.203,0.877
						c-0.137,0.257-0.324,0.474-0.564,0.649c-0.239,0.176-0.521,0.309-0.844,0.399c-0.324,0.09-0.676,0.135-1.056,0.135
						c-0.737,0-1.357-0.154-1.861-0.463V29.506z"/>
				</g>
				<g enable-background="new    ">
					<path fill="#191919" d="M273.381,48.339h-0.913l-1.547-5.362c-0.048-0.166-0.085-0.382-0.114-0.648h-0.028
						c-0.01,0.071-0.025,0.159-0.046,0.264s-0.056,0.229-0.104,0.371l-1.704,5.376h-0.891l-2.21-7.301h0.977l1.604,5.661
						c0.047,0.166,0.081,0.378,0.1,0.635h0.057c0.01-0.086,0.025-0.184,0.046-0.293c0.021-0.109,0.051-0.226,0.089-0.35l1.768-5.653
						h0.756l1.583,5.668c0.043,0.162,0.079,0.373,0.107,0.635h0.057c-0.005-0.081,0.004-0.175,0.028-0.282
						c0.024-0.106,0.055-0.225,0.093-0.353l1.604-5.668h0.919L273.381,48.339z"/>
					<path fill="#191919" d="M277.366,44.853c0.005,0.446,0.064,0.849,0.178,1.205c0.114,0.356,0.278,0.658,0.492,0.905
						s0.474,0.436,0.781,0.566s0.652,0.196,1.037,0.196c0.823,0,1.6-0.287,2.332-0.862v0.898c-0.699,0.499-1.544,0.748-2.538,0.748
						c-0.49,0-0.934-0.085-1.333-0.257c-0.399-0.171-0.739-0.419-1.02-0.745c-0.28-0.325-0.497-0.726-0.649-1.201
						c-0.152-0.476-0.228-1.017-0.228-1.626c0-0.546,0.083-1.053,0.25-1.519s0.397-0.868,0.692-1.208
						c0.294-0.34,0.644-0.606,1.048-0.799s0.846-0.289,1.326-0.289c0.471,0,0.887,0.082,1.248,0.246
						c0.361,0.164,0.664,0.398,0.909,0.702c0.245,0.305,0.432,0.676,0.56,1.112c0.128,0.438,0.192,0.928,0.192,1.469v0.457H277.366z
						 M281.701,44.054c-0.014-0.761-0.195-1.35-0.542-1.769c-0.347-0.418-0.83-0.627-1.448-0.627c-0.309,0-0.595,0.055-0.859,0.164
						c-0.264,0.109-0.496,0.267-0.695,0.474s-0.365,0.459-0.496,0.756s-0.222,0.631-0.274,1.002H281.701z"/>
					<path fill="#191919" d="M293.359,48.339v-4.292c0-0.817-0.147-1.42-0.442-1.808c-0.294-0.388-0.753-0.581-1.376-0.581
						c-0.295,0-0.575,0.06-0.841,0.178c-0.266,0.119-0.499,0.29-0.699,0.514s-0.359,0.495-0.478,0.816
						c-0.119,0.32-0.178,0.684-0.178,1.087v4.086h-0.913v-10.81h0.913V42.3h0.028c0.57-0.956,1.388-1.434,2.453-1.434
						c0.813,0,1.424,0.25,1.833,0.749s0.613,1.236,0.613,2.21v4.514H293.359z"/>
					<path fill="#191919" d="M296.903,44.853c0.005,0.446,0.064,0.849,0.178,1.205c0.114,0.356,0.278,0.658,0.492,0.905
						s0.474,0.436,0.781,0.566s0.652,0.196,1.037,0.196c0.823,0,1.6-0.287,2.332-0.862v0.898c-0.699,0.499-1.544,0.748-2.538,0.748
						c-0.49,0-0.934-0.085-1.333-0.257c-0.399-0.171-0.739-0.419-1.02-0.745c-0.28-0.325-0.497-0.726-0.649-1.201
						c-0.152-0.476-0.228-1.017-0.228-1.626c0-0.546,0.083-1.053,0.25-1.519s0.397-0.868,0.692-1.208
						c0.294-0.34,0.644-0.606,1.048-0.799s0.846-0.289,1.326-0.289c0.471,0,0.887,0.082,1.248,0.246
						c0.361,0.164,0.664,0.398,0.909,0.702c0.245,0.305,0.432,0.676,0.56,1.112c0.128,0.438,0.192,0.928,0.192,1.469v0.457H296.903z
						 M301.238,44.054c-0.014-0.761-0.195-1.35-0.542-1.769c-0.347-0.418-0.83-0.627-1.448-0.627c-0.309,0-0.595,0.055-0.859,0.164
						c-0.264,0.109-0.496,0.267-0.695,0.474s-0.365,0.459-0.496,0.756s-0.222,0.631-0.274,1.002H301.238z"/>
					<path fill="#191919" d="M303.969,48.339v-10.81h0.913v10.81H303.969z"/>
					<path fill="#191919" d="M308.147,47.162v4.535h-0.913V41.038h0.913v1.397h0.028c0.271-0.509,0.633-0.897,1.087-1.166
						c0.454-0.269,0.966-0.403,1.537-0.403c0.466,0,0.883,0.085,1.251,0.253c0.369,0.169,0.68,0.408,0.934,0.717
						c0.254,0.31,0.449,0.685,0.585,1.127c0.135,0.442,0.203,0.938,0.203,1.49c0,0.604-0.076,1.153-0.228,1.65
						c-0.152,0.497-0.371,0.924-0.656,1.28s-0.631,0.633-1.037,0.83c-0.407,0.197-0.864,0.296-1.373,0.296
						c-1.027,0-1.794-0.449-2.303-1.348H308.147z M308.147,45.302c0,0.332,0.056,0.645,0.167,0.938
						c0.111,0.292,0.267,0.549,0.467,0.77c0.2,0.222,0.441,0.396,0.724,0.524s0.596,0.192,0.938,0.192
						c0.366,0,0.696-0.077,0.991-0.231c0.295-0.154,0.545-0.375,0.752-0.66c0.207-0.285,0.366-0.629,0.478-1.033
						s0.167-0.855,0.167-1.354c0-0.429-0.052-0.814-0.157-1.159s-0.253-0.638-0.446-0.881c-0.192-0.242-0.425-0.428-0.699-0.556
						c-0.273-0.129-0.579-0.192-0.916-0.192c-0.38,0-0.723,0.07-1.027,0.21c-0.304,0.141-0.563,0.332-0.777,0.574
						c-0.214,0.242-0.378,0.526-0.492,0.852c-0.114,0.326-0.171,0.672-0.171,1.038V45.302z"/>
					<path fill="#191919" d="M321.73,49.665c-0.285,0.713-0.613,1.242-0.984,1.587c-0.371,0.344-0.82,0.517-1.348,0.517
						c-0.261,0-0.482-0.031-0.663-0.093V50.82c0.104,0.038,0.21,0.066,0.317,0.085c0.107,0.02,0.215,0.029,0.325,0.029
						c0.299,0,0.56-0.095,0.781-0.282c0.221-0.188,0.412-0.472,0.574-0.852l0.635-1.498l-2.81-7.265h1.013l2.089,5.782
						c0.029,0.076,0.056,0.163,0.082,0.26c0.026,0.098,0.051,0.194,0.075,0.289h0.036c0.023-0.081,0.046-0.163,0.067-0.246
						c0.021-0.083,0.051-0.175,0.089-0.274l2.217-5.811h0.963L321.73,49.665z"/>
					<path fill="#191919" d="M329.367,48.51c-0.542,0-1.028-0.09-1.458-0.271c-0.431-0.181-0.798-0.437-1.102-0.767
						c-0.305-0.33-0.538-0.727-0.699-1.188c-0.162-0.461-0.243-0.972-0.243-1.533c0-0.608,0.085-1.152,0.257-1.633
						c0.171-0.479,0.415-0.888,0.73-1.223c0.316-0.335,0.698-0.59,1.145-0.767c0.447-0.176,0.946-0.264,1.498-0.264
						c0.527,0,1.003,0.087,1.426,0.261c0.423,0.174,0.782,0.424,1.077,0.752s0.521,0.728,0.677,1.198
						c0.157,0.471,0.235,1.005,0.235,1.604c0,0.571-0.082,1.09-0.246,1.559c-0.164,0.468-0.398,0.871-0.703,1.208
						c-0.304,0.338-0.675,0.6-1.112,0.784C330.412,48.417,329.918,48.51,329.367,48.51z M329.438,41.658
						c-0.399,0-0.761,0.068-1.084,0.206c-0.323,0.139-0.6,0.339-0.831,0.603c-0.23,0.265-0.408,0.588-0.531,0.97
						c-0.124,0.383-0.185,0.816-0.185,1.302c0,0.456,0.062,0.867,0.185,1.233s0.298,0.68,0.524,0.941
						c0.226,0.262,0.5,0.462,0.823,0.603c0.323,0.14,0.685,0.21,1.084,0.21c0.409,0,0.77-0.067,1.083-0.203
						c0.314-0.136,0.58-0.333,0.799-0.592c0.218-0.259,0.384-0.576,0.496-0.952c0.111-0.375,0.167-0.803,0.167-1.283
						c0-0.984-0.219-1.736-0.656-2.257C330.876,41.918,330.251,41.658,329.438,41.658z"/>
					<path fill="#191919" d="M339.527,48.339v-1.24h-0.028c-0.495,0.94-1.262,1.411-2.303,1.411c-1.735,0-2.603-1.06-2.603-3.18
						v-4.292h0.913v4.121c0,0.874,0.156,1.521,0.467,1.939c0.311,0.418,0.788,0.627,1.43,0.627c0.313,0,0.6-0.061,0.859-0.182
						s0.482-0.292,0.67-0.514c0.188-0.221,0.334-0.485,0.438-0.795c0.104-0.309,0.157-0.651,0.157-1.026v-4.171h0.913v7.301H339.527
						z"/>
					<path fill="#191919" d="M347.241,39.19c-0.176,0-0.328-0.062-0.456-0.185c-0.128-0.124-0.192-0.28-0.192-0.471
						c0-0.186,0.064-0.339,0.192-0.46s0.28-0.182,0.456-0.182c0.09,0,0.176,0.016,0.257,0.046c0.081,0.031,0.151,0.075,0.21,0.132
						c0.059,0.058,0.107,0.125,0.143,0.203c0.036,0.079,0.053,0.165,0.053,0.261c0,0.09-0.017,0.176-0.05,0.257
						c-0.033,0.08-0.081,0.15-0.143,0.21c-0.062,0.06-0.132,0.105-0.21,0.139C347.423,39.174,347.336,39.19,347.241,39.19z
						 M346.792,48.339v-7.301h0.913v7.301H346.792z"/>
					<path fill="#191919" d="M354.985,48.339v-4.207c0-1.649-0.599-2.474-1.797-2.474c-0.318,0-0.613,0.063-0.884,0.188
						s-0.505,0.301-0.702,0.524s-0.352,0.488-0.463,0.795c-0.112,0.307-0.167,0.638-0.167,0.994v4.179h-0.913v-7.301h0.913v1.269
						h0.028c0.542-0.96,1.357-1.44,2.446-1.44c0.798,0,1.407,0.26,1.825,0.777c0.418,0.519,0.627,1.267,0.627,2.246v4.449H354.985z"
						/>
					<path fill="#191919" d="M371.27,48.339v-4.292c0-0.438-0.033-0.808-0.1-1.109S371,42.39,370.859,42.2
						c-0.14-0.19-0.318-0.328-0.534-0.414c-0.216-0.085-0.474-0.128-0.773-0.128c-0.267,0-0.519,0.063-0.756,0.188
						s-0.446,0.3-0.624,0.521c-0.178,0.222-0.318,0.481-0.421,0.781c-0.103,0.299-0.153,0.622-0.153,0.97v4.221h-0.912v-4.385
						c0-1.531-0.588-2.296-1.762-2.296c-0.271,0-0.522,0.061-0.755,0.182s-0.437,0.291-0.61,0.51s-0.309,0.481-0.406,0.788
						c-0.098,0.307-0.146,0.646-0.146,1.016v4.186h-0.913v-7.301h0.913v1.184h0.028c0.513-0.903,1.262-1.355,2.247-1.355
						c0.256,0,0.498,0.039,0.727,0.118c0.229,0.078,0.433,0.188,0.613,0.328c0.181,0.14,0.336,0.308,0.467,0.502
						c0.131,0.195,0.229,0.409,0.296,0.642c0.257-0.518,0.591-0.912,1.002-1.184c0.411-0.271,0.876-0.406,1.394-0.406
						c1.602,0,2.403,0.989,2.403,2.967v4.506H371.27z"/>
					<path fill="#191919" d="M378.586,48.339v-1.298h-0.029c-0.237,0.466-0.563,0.827-0.973,1.084
						c-0.412,0.257-0.877,0.385-1.395,0.385c-0.352,0-0.669-0.05-0.951-0.149c-0.283-0.1-0.523-0.241-0.721-0.425
						c-0.197-0.183-0.35-0.402-0.456-0.659s-0.161-0.539-0.161-0.849c0-0.66,0.205-1.187,0.613-1.579
						c0.409-0.393,1.027-0.647,1.854-0.767l2.218-0.32c0-1.402-0.545-2.104-1.633-2.104c-0.852,0-1.641,0.312-2.367,0.934v-0.998
						c0.151-0.109,0.324-0.208,0.517-0.296s0.396-0.164,0.609-0.229c0.214-0.063,0.434-0.113,0.659-0.149
						c0.227-0.035,0.445-0.054,0.66-0.054c0.813,0,1.427,0.229,1.843,0.685s0.624,1.137,0.624,2.039v4.749H378.586z M376.703,44.795
						c-0.328,0.048-0.608,0.107-0.842,0.179c-0.232,0.071-0.426,0.167-0.577,0.289c-0.152,0.121-0.264,0.271-0.335,0.448
						c-0.071,0.179-0.107,0.398-0.107,0.66c0,0.194,0.035,0.375,0.104,0.542c0.068,0.166,0.169,0.31,0.3,0.431
						c0.13,0.122,0.29,0.216,0.478,0.282s0.4,0.1,0.639,0.1c0.322,0,0.619-0.062,0.891-0.186c0.271-0.123,0.505-0.294,0.703-0.513
						c0.196-0.219,0.352-0.48,0.463-0.785c0.111-0.304,0.168-0.634,0.168-0.99v-0.721L376.703,44.795z"/>
					<path fill="#191919" d="M385.994,48.339l-3.358-3.558h-0.028v3.558h-0.913v-10.81h0.913v6.909h0.028l3.187-3.4h1.191
						l-3.422,3.529l3.693,3.771H385.994z"/>
					<path fill="#191919" d="M389.01,39.19c-0.176,0-0.328-0.062-0.456-0.185c-0.128-0.124-0.192-0.28-0.192-0.471
						c0-0.186,0.064-0.339,0.192-0.46s0.28-0.182,0.456-0.182c0.09,0,0.176,0.016,0.257,0.046c0.081,0.031,0.151,0.075,0.21,0.132
						c0.06,0.058,0.107,0.125,0.143,0.203c0.036,0.079,0.054,0.165,0.054,0.261c0,0.09-0.017,0.176-0.05,0.257
						c-0.033,0.08-0.08,0.15-0.143,0.21c-0.062,0.06-0.132,0.105-0.211,0.139C389.191,39.174,389.105,39.19,389.01,39.19z
						 M388.561,48.339v-7.301h0.913v7.301H388.561z"/>
					<path fill="#191919" d="M396.754,48.339v-4.207c0-1.649-0.6-2.474-1.797-2.474c-0.318,0-0.613,0.063-0.885,0.188
						s-0.505,0.301-0.702,0.524s-0.353,0.488-0.464,0.795s-0.167,0.638-0.167,0.994v4.179h-0.913v-7.301h0.913v1.269h0.028
						c0.542-0.96,1.357-1.44,2.445-1.44c0.799,0,1.407,0.26,1.826,0.777c0.418,0.519,0.627,1.267,0.627,2.246v4.449H396.754z"/>
					<path fill="#191919" d="M405.895,47.775c0,1.354-0.309,2.359-0.924,3.013s-1.564,0.98-2.849,0.98
						c-0.798,0-1.554-0.179-2.267-0.535v-0.927c0.793,0.442,1.549,0.663,2.267,0.663c1.906,0,2.859-1.008,2.859-3.023v-0.877h-0.028
						c-0.561,0.961-1.417,1.44-2.566,1.44c-0.452,0-0.865-0.083-1.238-0.249c-0.373-0.167-0.692-0.406-0.959-0.721
						c-0.266-0.313-0.473-0.695-0.619-1.145c-0.148-0.449-0.222-0.956-0.222-1.521c0-0.6,0.079-1.145,0.235-1.637
						s0.381-0.914,0.67-1.266c0.29-0.352,0.641-0.624,1.052-0.816s0.874-0.289,1.388-0.289c1.031,0,1.784,0.419,2.26,1.255h0.028
						v-1.083h0.913V47.775z M404.981,43.904c0-0.305-0.055-0.592-0.164-0.863c-0.109-0.271-0.261-0.509-0.456-0.713
						s-0.427-0.367-0.695-0.488s-0.564-0.182-0.888-0.182c-0.38,0-0.724,0.073-1.03,0.221s-0.568,0.356-0.785,0.628
						c-0.216,0.271-0.382,0.6-0.498,0.987c-0.117,0.388-0.175,0.823-0.175,1.309c0,0.446,0.054,0.851,0.163,1.212
						s0.265,0.668,0.465,0.92c0.199,0.252,0.439,0.446,0.723,0.584c0.283,0.139,0.598,0.207,0.945,0.207
						c0.361,0,0.689-0.065,0.984-0.196c0.294-0.131,0.546-0.311,0.756-0.542c0.209-0.23,0.37-0.501,0.484-0.813
						c0.113-0.312,0.171-0.647,0.171-1.009V43.904z"/>
					<path fill="#191919" d="M414.364,49.665c-0.285,0.713-0.612,1.242-0.983,1.587c-0.371,0.344-0.82,0.517-1.348,0.517
						c-0.262,0-0.482-0.031-0.664-0.093V50.82c0.105,0.038,0.211,0.066,0.318,0.085c0.106,0.02,0.215,0.029,0.324,0.029
						c0.299,0,0.56-0.095,0.781-0.282c0.221-0.188,0.412-0.472,0.573-0.852l0.635-1.498l-2.81-7.265h1.013l2.089,5.782
						c0.029,0.076,0.057,0.163,0.082,0.26c0.026,0.098,0.051,0.194,0.075,0.289h0.036c0.023-0.081,0.046-0.163,0.066-0.246
						c0.021-0.083,0.052-0.175,0.09-0.274l2.217-5.811h0.963L414.364,49.665z"/>
					<path fill="#191919" d="M422.001,48.51c-0.542,0-1.028-0.09-1.458-0.271c-0.431-0.181-0.798-0.437-1.102-0.767
						c-0.305-0.33-0.537-0.727-0.699-1.188s-0.242-0.972-0.242-1.533c0-0.608,0.086-1.152,0.257-1.633
						c0.171-0.479,0.415-0.888,0.73-1.223c0.316-0.335,0.698-0.59,1.145-0.767c0.446-0.176,0.946-0.264,1.497-0.264
						c0.527,0,1.004,0.087,1.426,0.261c0.424,0.174,0.782,0.424,1.077,0.752s0.521,0.728,0.677,1.198
						c0.158,0.471,0.236,1.005,0.236,1.604c0,0.571-0.082,1.09-0.246,1.559c-0.164,0.468-0.398,0.871-0.703,1.208
						c-0.304,0.338-0.674,0.6-1.111,0.784C423.047,48.417,422.553,48.51,422.001,48.51z M422.072,41.658
						c-0.399,0-0.761,0.068-1.084,0.206c-0.323,0.139-0.6,0.339-0.83,0.603c-0.23,0.265-0.408,0.588-0.531,0.97
						c-0.124,0.383-0.186,0.816-0.186,1.302c0,0.456,0.062,0.867,0.186,1.233c0.123,0.366,0.298,0.68,0.523,0.941
						c0.227,0.262,0.5,0.462,0.824,0.603c0.322,0.14,0.684,0.21,1.084,0.21c0.408,0,0.77-0.067,1.083-0.203s0.58-0.333,0.799-0.592
						c0.218-0.259,0.384-0.576,0.495-0.952c0.111-0.375,0.168-0.803,0.168-1.283c0-0.984-0.219-1.736-0.656-2.257
						S422.885,41.658,422.072,41.658z"/>
					<path fill="#191919" d="M432.161,48.339v-1.24h-0.028c-0.494,0.94-1.262,1.411-2.303,1.411c-1.735,0-2.604-1.06-2.604-3.18
						v-4.292h0.913v4.121c0,0.874,0.155,1.521,0.468,1.939c0.311,0.418,0.787,0.627,1.43,0.627c0.313,0,0.6-0.061,0.858-0.182
						s0.482-0.292,0.671-0.514c0.188-0.221,0.334-0.485,0.438-0.795c0.105-0.309,0.157-0.651,0.157-1.026v-4.171h0.913v7.301
						H432.161z"/>
					<path fill="#191919" d="M439.049,41.972c-0.214-0.157-0.489-0.235-0.826-0.235c-0.243,0-0.457,0.047-0.643,0.139
						c-0.186,0.093-0.348,0.218-0.488,0.375c-0.141,0.156-0.26,0.339-0.356,0.545c-0.098,0.207-0.176,0.422-0.235,0.646
						s-0.102,0.449-0.129,0.678c-0.025,0.228-0.039,0.444-0.039,0.648v3.572h-0.905v-7.301h0.905v1.561h0.029
						c0.086-0.266,0.193-0.505,0.324-0.716c0.131-0.212,0.281-0.39,0.453-0.535c0.17-0.145,0.357-0.255,0.559-0.331
						c0.203-0.076,0.416-0.114,0.639-0.114c0.147,0,0.279,0.01,0.396,0.028c0.115,0.02,0.222,0.048,0.316,0.086V41.972z"/>
				</g>
				<g enable-background="new    ">
					<path fill="#191919" d="M271.905,65.863V64.58h-0.028c-0.243,0.461-0.588,0.818-1.038,1.073
						c-0.449,0.254-0.959,0.381-1.529,0.381c-0.457,0-0.871-0.084-1.244-0.253c-0.374-0.169-0.693-0.412-0.959-0.73
						c-0.267-0.318-0.472-0.704-0.617-1.155c-0.145-0.452-0.217-0.963-0.217-1.533c0-0.589,0.08-1.128,0.239-1.615
						s0.385-0.905,0.677-1.255c0.292-0.349,0.644-0.62,1.056-0.813c0.411-0.192,0.869-0.289,1.373-0.289
						c1.05,0,1.804,0.421,2.26,1.263h0.028v-4.6h0.913v10.81H271.905z M271.905,61.457c0-0.318-0.055-0.615-0.164-0.892
						c-0.109-0.275-0.261-0.516-0.456-0.72c-0.195-0.204-0.429-0.366-0.703-0.485c-0.273-0.118-0.574-0.178-0.902-0.178
						c-0.361,0-0.694,0.071-0.998,0.214s-0.564,0.348-0.781,0.616s-0.385,0.596-0.506,0.98c-0.121,0.386-0.182,0.822-0.182,1.313
						c0,0.461,0.054,0.874,0.164,1.24s0.265,0.675,0.467,0.927s0.443,0.444,0.724,0.578c0.28,0.133,0.592,0.199,0.934,0.199
						c0.371,0,0.705-0.066,1.002-0.199c0.297-0.134,0.549-0.316,0.755-0.55c0.207-0.232,0.366-0.506,0.478-0.819
						c0.111-0.313,0.167-0.649,0.167-1.006V61.457z"/>
					<path fill="#191919" d="M278.792,59.496c-0.214-0.157-0.489-0.235-0.827-0.235c-0.243,0-0.457,0.047-0.642,0.139
						c-0.185,0.093-0.348,0.218-0.488,0.375c-0.14,0.156-0.259,0.339-0.356,0.545c-0.098,0.207-0.176,0.422-0.235,0.646
						s-0.102,0.449-0.128,0.678c-0.026,0.228-0.039,0.444-0.039,0.648v3.572h-0.906v-7.301h0.906v1.561h0.028
						c0.086-0.266,0.194-0.505,0.325-0.716c0.13-0.212,0.282-0.39,0.453-0.535c0.171-0.145,0.357-0.255,0.56-0.331
						s0.415-0.114,0.638-0.114c0.147,0,0.279,0.01,0.396,0.028c0.116,0.02,0.222,0.048,0.317,0.086V59.496z"/>
					<path fill="#191919" d="M280.361,62.377c0.005,0.446,0.064,0.849,0.178,1.205c0.114,0.356,0.278,0.658,0.492,0.905
						s0.474,0.436,0.781,0.566s0.652,0.196,1.037,0.196c0.823,0,1.6-0.287,2.332-0.862v0.898c-0.699,0.499-1.544,0.748-2.538,0.748
						c-0.49,0-0.934-0.085-1.333-0.257c-0.399-0.171-0.739-0.419-1.02-0.745c-0.28-0.325-0.497-0.726-0.649-1.201
						c-0.152-0.476-0.228-1.017-0.228-1.626c0-0.546,0.083-1.053,0.25-1.519s0.397-0.868,0.692-1.208
						c0.294-0.34,0.644-0.606,1.048-0.799s0.846-0.289,1.326-0.289c0.471,0,0.887,0.082,1.248,0.246
						c0.361,0.164,0.664,0.398,0.909,0.702c0.245,0.305,0.432,0.676,0.56,1.112c0.128,0.438,0.192,0.928,0.192,1.469v0.457H280.361z
						 M284.696,61.578c-0.014-0.761-0.195-1.35-0.542-1.769c-0.347-0.418-0.83-0.627-1.448-0.627c-0.309,0-0.595,0.055-0.859,0.164
						c-0.264,0.109-0.496,0.267-0.695,0.474s-0.365,0.459-0.496,0.756s-0.222,0.631-0.274,1.002H284.696z"/>
					<path fill="#191919" d="M291.634,65.863v-1.298h-0.029c-0.237,0.466-0.562,0.827-0.973,1.084s-0.876,0.385-1.394,0.385
						c-0.352,0-0.669-0.05-0.952-0.149s-0.523-0.241-0.72-0.425c-0.197-0.183-0.349-0.402-0.456-0.659s-0.161-0.539-0.161-0.849
						c0-0.66,0.204-1.187,0.613-1.579c0.409-0.393,1.027-0.647,1.854-0.767l2.217-0.32c0-1.402-0.544-2.104-1.633-2.104
						c-0.851,0-1.64,0.312-2.367,0.934v-0.998c0.152-0.109,0.324-0.208,0.517-0.296c0.192-0.088,0.396-0.164,0.609-0.229
						c0.214-0.063,0.434-0.113,0.66-0.149c0.226-0.035,0.445-0.054,0.66-0.054c0.813,0,1.427,0.229,1.843,0.685
						s0.624,1.137,0.624,2.039v4.749H291.634z M289.751,62.319c-0.328,0.048-0.608,0.107-0.841,0.179s-0.426,0.167-0.578,0.289
						c-0.152,0.121-0.264,0.271-0.335,0.448c-0.071,0.179-0.107,0.398-0.107,0.66c0,0.194,0.034,0.375,0.103,0.542
						c0.069,0.166,0.169,0.31,0.3,0.431c0.13,0.122,0.29,0.216,0.478,0.282c0.188,0.066,0.4,0.1,0.638,0.1
						c0.323,0,0.62-0.062,0.891-0.186c0.271-0.123,0.505-0.294,0.703-0.513c0.197-0.219,0.352-0.48,0.463-0.785
						c0.111-0.304,0.167-0.634,0.167-0.99v-0.721L289.751,62.319z"/>
					<path fill="#191919" d="M303.919,65.863v-4.292c0-0.438-0.033-0.808-0.1-1.109c-0.066-0.302-0.17-0.548-0.31-0.737
						c-0.14-0.19-0.318-0.328-0.535-0.414c-0.216-0.085-0.474-0.128-0.773-0.128c-0.267,0-0.519,0.063-0.756,0.188
						c-0.238,0.126-0.446,0.3-0.624,0.521c-0.178,0.222-0.318,0.481-0.421,0.781c-0.102,0.299-0.153,0.622-0.153,0.97v4.221h-0.913
						v-4.385c0-1.531-0.587-2.296-1.761-2.296c-0.271,0-0.523,0.061-0.756,0.182s-0.437,0.291-0.61,0.51s-0.309,0.481-0.406,0.788
						c-0.098,0.307-0.146,0.646-0.146,1.016v4.186h-0.913v-7.301h0.913v1.184h0.028c0.513-0.903,1.262-1.355,2.246-1.355
						c0.256,0,0.499,0.039,0.727,0.118c0.228,0.078,0.433,0.188,0.613,0.328c0.181,0.14,0.336,0.308,0.467,0.502
						c0.131,0.195,0.229,0.409,0.296,0.642c0.257-0.518,0.591-0.912,1.002-1.184c0.411-0.271,0.876-0.406,1.394-0.406
						c1.602,0,2.403,0.989,2.403,2.967v4.506H303.919z"/>
					<path fill="#191919" d="M306.614,64.552c0.138,0.109,0.288,0.206,0.449,0.292s0.328,0.159,0.5,0.221
						c0.171,0.063,0.343,0.108,0.517,0.14c0.174,0.03,0.339,0.046,0.496,0.046c1.084,0,1.626-0.406,1.626-1.219
						c0-0.186-0.039-0.347-0.114-0.481c-0.076-0.136-0.186-0.259-0.328-0.371c-0.143-0.111-0.313-0.215-0.513-0.311
						c-0.2-0.095-0.426-0.194-0.677-0.299c-0.338-0.138-0.627-0.278-0.87-0.421c-0.242-0.143-0.442-0.298-0.599-0.467
						c-0.157-0.169-0.273-0.354-0.349-0.557s-0.114-0.431-0.114-0.688c0-0.323,0.07-0.611,0.21-0.863s0.329-0.466,0.567-0.642
						s0.512-0.31,0.824-0.402c0.311-0.093,0.638-0.14,0.98-0.14c0.632,0,1.184,0.119,1.654,0.356v0.963
						c-0.546-0.352-1.136-0.527-1.768-0.527c-0.229,0-0.437,0.028-0.624,0.085c-0.188,0.058-0.348,0.139-0.481,0.243
						c-0.133,0.104-0.236,0.229-0.31,0.374c-0.074,0.145-0.11,0.306-0.11,0.481c0,0.181,0.028,0.339,0.085,0.474
						c0.057,0.136,0.146,0.258,0.268,0.367c0.121,0.109,0.278,0.214,0.47,0.314c0.193,0.1,0.427,0.206,0.703,0.32
						c0.352,0.143,0.656,0.284,0.913,0.425c0.257,0.14,0.468,0.292,0.634,0.456c0.167,0.164,0.29,0.347,0.371,0.549
						c0.081,0.202,0.121,0.437,0.121,0.702c0,0.328-0.068,0.62-0.203,0.877c-0.136,0.257-0.323,0.474-0.563,0.649
						c-0.24,0.176-0.521,0.309-0.845,0.399c-0.323,0.09-0.675,0.135-1.055,0.135c-0.737,0-1.357-0.154-1.861-0.463V64.552z"/>
					<path fill="#191919" d="M321.816,65.535c-0.542,0.328-1.198,0.497-1.968,0.507c-0.523,0.004-0.993-0.086-1.412-0.271
						s-0.775-0.443-1.069-0.773c-0.295-0.33-0.521-0.721-0.677-1.17c-0.157-0.448-0.235-0.938-0.235-1.465
						c0-0.547,0.083-1.062,0.25-1.544c0.166-0.482,0.409-0.902,0.727-1.262c0.318-0.358,0.708-0.643,1.169-0.852
						c0.461-0.21,0.989-0.314,1.583-0.314c0.604,0,1.155,0.117,1.654,0.35v0.97c-0.533-0.352-1.108-0.527-1.726-0.527
						c-0.433,0-0.818,0.082-1.155,0.246s-0.622,0.387-0.852,0.67s-0.406,0.613-0.527,0.991c-0.122,0.378-0.182,0.778-0.182,1.201
						c0,0.39,0.051,0.763,0.153,1.119s0.259,0.672,0.471,0.945s0.479,0.49,0.802,0.652c0.323,0.161,0.703,0.242,1.141,0.242
						c0.685,0,1.302-0.204,1.854-0.613V65.535z"/>
					<path fill="#191919" d="M326.557,66.034c-0.542,0-1.028-0.09-1.458-0.271c-0.431-0.181-0.798-0.437-1.102-0.767
						c-0.305-0.33-0.538-0.727-0.699-1.188c-0.162-0.461-0.243-0.972-0.243-1.533c0-0.608,0.085-1.152,0.257-1.633
						c0.171-0.479,0.415-0.888,0.73-1.223c0.316-0.335,0.698-0.59,1.145-0.767c0.447-0.176,0.946-0.264,1.498-0.264
						c0.527,0,1.003,0.087,1.426,0.261c0.423,0.174,0.782,0.424,1.077,0.752s0.521,0.728,0.677,1.198
						c0.157,0.471,0.235,1.005,0.235,1.604c0,0.571-0.082,1.09-0.246,1.559c-0.164,0.468-0.398,0.871-0.703,1.208
						c-0.304,0.338-0.675,0.6-1.112,0.784C327.603,65.941,327.108,66.034,326.557,66.034z M326.628,59.183
						c-0.399,0-0.761,0.068-1.084,0.206c-0.323,0.139-0.6,0.339-0.831,0.603c-0.23,0.265-0.408,0.588-0.531,0.97
						c-0.124,0.383-0.185,0.816-0.185,1.302c0,0.456,0.062,0.867,0.185,1.233s0.298,0.68,0.524,0.941
						c0.226,0.262,0.5,0.462,0.823,0.603c0.323,0.14,0.685,0.21,1.084,0.21c0.409,0,0.77-0.067,1.083-0.203
						c0.314-0.136,0.58-0.333,0.799-0.592c0.218-0.259,0.384-0.576,0.496-0.952c0.111-0.375,0.167-0.803,0.167-1.283
						c0-0.984-0.219-1.736-0.656-2.257C328.066,59.442,327.441,59.183,326.628,59.183z"/>
					<path fill="#191919" d="M341.117,65.863v-4.292c0-0.438-0.033-0.808-0.1-1.109c-0.066-0.302-0.17-0.548-0.31-0.737
						c-0.14-0.19-0.318-0.328-0.535-0.414c-0.216-0.085-0.474-0.128-0.773-0.128c-0.267,0-0.519,0.063-0.756,0.188
						c-0.238,0.126-0.446,0.3-0.624,0.521c-0.178,0.222-0.318,0.481-0.421,0.781c-0.102,0.299-0.153,0.622-0.153,0.97v4.221h-0.913
						v-4.385c0-1.531-0.587-2.296-1.761-2.296c-0.271,0-0.523,0.061-0.756,0.182s-0.437,0.291-0.61,0.51s-0.309,0.481-0.406,0.788
						c-0.098,0.307-0.146,0.646-0.146,1.016v4.186h-0.913v-7.301h0.913v1.184h0.028c0.513-0.903,1.262-1.355,2.246-1.355
						c0.256,0,0.499,0.039,0.727,0.118c0.228,0.078,0.433,0.188,0.613,0.328c0.181,0.14,0.336,0.308,0.467,0.502
						c0.131,0.195,0.229,0.409,0.296,0.642c0.257-0.518,0.591-0.912,1.002-1.184c0.411-0.271,0.876-0.406,1.394-0.406
						c1.602,0,2.403,0.989,2.403,2.967v4.506H341.117z"/>
					<path fill="#191919" d="M344.661,62.377c0.005,0.446,0.064,0.849,0.178,1.205c0.114,0.356,0.278,0.658,0.492,0.905
						s0.474,0.436,0.781,0.566s0.652,0.196,1.037,0.196c0.823,0,1.6-0.287,2.332-0.862v0.898c-0.699,0.499-1.544,0.748-2.538,0.748
						c-0.49,0-0.934-0.085-1.333-0.257c-0.399-0.171-0.739-0.419-1.02-0.745c-0.28-0.325-0.497-0.726-0.649-1.201
						c-0.152-0.476-0.228-1.017-0.228-1.626c0-0.546,0.083-1.053,0.25-1.519s0.397-0.868,0.692-1.208
						c0.294-0.34,0.644-0.606,1.048-0.799s0.846-0.289,1.326-0.289c0.471,0,0.887,0.082,1.248,0.246
						c0.361,0.164,0.664,0.398,0.909,0.702c0.245,0.305,0.432,0.676,0.56,1.112c0.128,0.438,0.192,0.928,0.192,1.469v0.457H344.661z
						 M348.996,61.578c-0.014-0.761-0.195-1.35-0.542-1.769c-0.347-0.418-0.83-0.627-1.448-0.627c-0.309,0-0.595,0.055-0.859,0.164
						c-0.264,0.109-0.496,0.267-0.695,0.474s-0.365,0.459-0.496,0.756s-0.222,0.631-0.274,1.002H348.996z"/>
					<path fill="#191919" d="M358.864,65.777c-0.314,0.157-0.656,0.235-1.027,0.235c-1.179,0-1.769-0.68-1.769-2.039V59.36h-1.283
						v-0.798h1.283v-1.84l0.913-0.3v2.14h1.883v0.798h-1.883v4.471c0,0.494,0.081,0.852,0.243,1.069
						c0.162,0.219,0.435,0.328,0.82,0.328c0.285,0,0.559-0.085,0.82-0.257V65.777z"/>
					<path fill="#191919" d="M363.99,59.496c-0.214-0.157-0.489-0.235-0.827-0.235c-0.243,0-0.457,0.047-0.642,0.139
						c-0.185,0.093-0.348,0.218-0.488,0.375c-0.14,0.156-0.259,0.339-0.356,0.545c-0.098,0.207-0.176,0.422-0.235,0.646
						s-0.102,0.449-0.128,0.678c-0.026,0.228-0.039,0.444-0.039,0.648v3.572h-0.906v-7.301h0.906v1.561h0.028
						c0.086-0.266,0.194-0.505,0.325-0.716c0.13-0.212,0.282-0.39,0.453-0.535c0.171-0.145,0.357-0.255,0.56-0.331
						s0.415-0.114,0.638-0.114c0.147,0,0.279,0.01,0.396,0.028c0.116,0.02,0.222,0.048,0.317,0.086V59.496z"/>
					<path fill="#191919" d="M370.094,65.863v-1.24h-0.028c-0.495,0.94-1.263,1.411-2.304,1.411c-1.734,0-2.602-1.06-2.602-3.18
						v-4.292h0.912v4.121c0,0.874,0.156,1.521,0.467,1.939c0.312,0.418,0.788,0.627,1.43,0.627c0.314,0,0.6-0.061,0.859-0.182
						s0.482-0.292,0.67-0.514c0.188-0.221,0.334-0.485,0.439-0.795c0.104-0.309,0.156-0.651,0.156-1.026v-4.171h0.912v7.301H370.094
						z"/>
					<path fill="#191919" d="M373.794,62.377c0.005,0.446,0.064,0.849,0.179,1.205c0.113,0.356,0.277,0.658,0.492,0.905
						c0.213,0.247,0.474,0.436,0.78,0.566s0.652,0.196,1.037,0.196c0.823,0,1.6-0.287,2.331-0.862v0.898
						c-0.698,0.499-1.544,0.748-2.537,0.748c-0.49,0-0.935-0.085-1.334-0.257c-0.398-0.171-0.739-0.419-1.02-0.745
						c-0.28-0.325-0.496-0.726-0.648-1.201s-0.229-1.017-0.229-1.626c0-0.546,0.083-1.053,0.25-1.519
						c0.166-0.466,0.396-0.868,0.691-1.208s0.645-0.606,1.048-0.799s0.847-0.289,1.326-0.289c0.471,0,0.887,0.082,1.248,0.246
						c0.36,0.164,0.664,0.398,0.909,0.702c0.244,0.305,0.432,0.676,0.56,1.112c0.128,0.438,0.192,0.928,0.192,1.469v0.457H373.794z
						 M378.129,61.578c-0.014-0.761-0.195-1.35-0.541-1.769c-0.348-0.418-0.83-0.627-1.448-0.627c-0.31,0-0.595,0.055-0.858,0.164
						c-0.265,0.109-0.496,0.267-0.695,0.474c-0.2,0.207-0.365,0.459-0.496,0.756s-0.223,0.631-0.274,1.002H378.129z"/>
					<path fill="#191919" d="M381.281,66.006c-0.191,0-0.353-0.066-0.485-0.199c-0.134-0.134-0.2-0.295-0.2-0.485
						c0-0.194,0.066-0.358,0.197-0.492c0.13-0.133,0.293-0.199,0.488-0.199c0.095,0,0.184,0.018,0.268,0.054
						c0.082,0.035,0.154,0.083,0.217,0.143c0.062,0.06,0.111,0.132,0.15,0.217c0.037,0.086,0.057,0.179,0.057,0.278
						c0,0.096-0.02,0.185-0.057,0.268c-0.039,0.083-0.089,0.155-0.15,0.218c-0.063,0.062-0.135,0.11-0.217,0.146
						C381.465,65.988,381.376,66.006,381.281,66.006z"/>
				</g>
			</g>
		</g>
	</g>
	<g>
		<g enable-background="new    ">
			<path fill="#191919" d="M672.043,38.923c-0.789,0.371-1.689,0.557-2.701,0.557c-0.723,0-1.379-0.128-1.969-0.382
				s-1.092-0.607-1.508-1.059c-0.416-0.452-0.736-0.989-0.963-1.611c-0.226-0.623-0.338-1.303-0.338-2.04
				c0-0.774,0.119-1.496,0.359-2.163c0.24-0.668,0.584-1.248,1.03-1.74s0.987-0.878,1.622-1.158
				c0.635-0.281,1.347-0.421,2.136-0.421c0.87,0,1.647,0.133,2.331,0.399v1.012c-0.731-0.365-1.514-0.549-2.346-0.549
				c-0.66,0-1.248,0.114-1.761,0.343c-0.514,0.228-0.946,0.545-1.298,0.951c-0.352,0.407-0.62,0.887-0.806,1.44
				s-0.278,1.159-0.278,1.814c0,0.59,0.084,1.145,0.25,1.665s0.412,0.976,0.738,1.365c0.325,0.391,0.73,0.699,1.215,0.928
				c0.485,0.228,1.049,0.342,1.69,0.342c0.983,0,1.849-0.207,2.595-0.62V38.923z"/>
			<path fill="#191919" d="M678.282,39.301v-1.298h-0.028c-0.238,0.466-0.563,0.827-0.974,1.084s-0.876,0.385-1.394,0.385
				c-0.352,0-0.67-0.05-0.952-0.149s-0.522-0.241-0.72-0.425c-0.197-0.183-0.35-0.402-0.457-0.659
				c-0.106-0.257-0.16-0.539-0.16-0.849c0-0.66,0.204-1.187,0.613-1.579c0.408-0.393,1.027-0.647,1.854-0.767l2.218-0.32
				c0-1.402-0.544-2.104-1.633-2.104c-0.851,0-1.64,0.312-2.367,0.934v-0.998c0.151-0.109,0.324-0.208,0.517-0.296
				c0.193-0.088,0.396-0.164,0.609-0.229c0.215-0.063,0.434-0.113,0.66-0.149c0.226-0.035,0.445-0.054,0.66-0.054
				c0.813,0,1.426,0.229,1.842,0.685s0.625,1.137,0.625,2.039v4.749H678.282z M676.4,35.757c-0.328,0.048-0.609,0.107-0.842,0.179
				s-0.426,0.167-0.578,0.289c-0.152,0.121-0.264,0.271-0.334,0.448c-0.072,0.179-0.107,0.398-0.107,0.66
				c0,0.194,0.034,0.375,0.104,0.542c0.068,0.166,0.168,0.31,0.299,0.431c0.131,0.122,0.29,0.216,0.479,0.282
				c0.188,0.066,0.4,0.1,0.638,0.1c0.323,0,0.62-0.062,0.892-0.186c0.271-0.123,0.504-0.294,0.702-0.513
				c0.196-0.219,0.352-0.48,0.464-0.785c0.111-0.304,0.167-0.634,0.167-0.99v-0.721L676.4,35.757z"/>
			<path fill="#191919" d="M681.391,39.301v-10.81h0.913v10.81H681.391z"/>
			<path fill="#191919" d="M684.656,39.301v-10.81h0.913v10.81H684.656z"/>
			<path fill="#191919" d="M699.295,35.193c0,2.857-1.256,4.286-3.766,4.286c-2.391,0-3.586-1.377-3.586-4.129v-6.274h0.948v6.188
				c0,1.122,0.226,1.961,0.678,2.518c0.451,0.556,1.149,0.834,2.097,0.834c1.787,0,2.68-1.084,2.68-3.251v-6.289h0.949V35.193z"/>
			<path fill="#191919" d="M701.42,37.804c0.171,0.128,0.359,0.243,0.566,0.346s0.418,0.188,0.635,0.257
				c0.217,0.068,0.434,0.121,0.652,0.156c0.219,0.036,0.428,0.054,0.627,0.054c0.775,0,1.355-0.149,1.74-0.449
				s0.578-0.729,0.578-1.29c0-0.271-0.046-0.508-0.137-0.71c-0.09-0.202-0.23-0.391-0.42-0.566c-0.19-0.176-0.43-0.351-0.721-0.524
				c-0.289-0.174-0.632-0.369-1.026-0.588c-0.438-0.238-0.812-0.463-1.123-0.674c-0.312-0.212-0.565-0.428-0.763-0.649
				c-0.197-0.221-0.342-0.46-0.436-0.717c-0.092-0.256-0.139-0.549-0.139-0.877c0-0.413,0.088-0.784,0.264-1.112
				c0.176-0.327,0.414-0.606,0.713-0.837c0.3-0.23,0.65-0.408,1.053-0.531c0.4-0.124,0.83-0.186,1.287-0.186
				c0.803,0,1.475,0.111,2.018,0.335v1.048c-0.604-0.347-1.313-0.521-2.125-0.521c-0.305,0-0.591,0.037-0.859,0.11
				c-0.269,0.074-0.504,0.183-0.706,0.325s-0.361,0.319-0.478,0.531c-0.117,0.211-0.175,0.457-0.175,0.737
				c0,0.267,0.039,0.496,0.118,0.688c0.078,0.192,0.203,0.374,0.377,0.545c0.174,0.172,0.402,0.342,0.686,0.51
				c0.282,0.169,0.628,0.363,1.037,0.581c0.428,0.229,0.801,0.451,1.119,0.667c0.318,0.217,0.584,0.442,0.795,0.678
				s0.369,0.484,0.475,0.748c0.104,0.264,0.156,0.558,0.156,0.881c0,0.447-0.083,0.84-0.25,1.18
				c-0.166,0.34-0.398,0.622-0.698,0.846c-0.3,0.223-0.655,0.392-1.069,0.506s-0.867,0.171-1.361,0.171
				c-0.162,0-0.354-0.013-0.578-0.039s-0.449-0.064-0.678-0.114c-0.228-0.05-0.445-0.109-0.652-0.178
				c-0.207-0.069-0.374-0.144-0.502-0.225V37.804z"/>
		</g>
		<g enable-background="new    ">
			<path fill="#C71919" d="M602.053,53.366h-2.744v2.745h-1.44v-2.745h-2.76v-1.447h2.76v-2.76h1.44v2.76h2.744V53.366z"/>
			<path fill="#C71919" d="M609.668,46.371v10.453h-2.246V48.91c-0.123,0.109-0.27,0.213-0.438,0.31
				c-0.169,0.098-0.349,0.186-0.538,0.264c-0.19,0.079-0.388,0.146-0.592,0.2c-0.205,0.055-0.406,0.094-0.605,0.117v-1.896
				c0.584-0.171,1.135-0.39,1.654-0.656c0.518-0.266,0.985-0.558,1.404-0.877H609.668z"/>
			<path fill="#C71919" d="M614.089,57.003c-0.37,0-0.68-0.114-0.927-0.343c-0.248-0.229-0.371-0.509-0.371-0.841
				c0-0.343,0.127-0.623,0.382-0.842c0.254-0.219,0.571-0.328,0.952-0.328c0.385,0,0.699,0.11,0.944,0.332
				c0.245,0.221,0.367,0.5,0.367,0.838c0,0.347-0.125,0.631-0.374,0.852C614.813,56.892,614.488,57.003,614.089,57.003z"/>
			<path fill="#C71919" d="M623.893,47.897c-0.456,0.822-0.865,1.594-1.227,2.313c-0.361,0.721-0.68,1.431-0.955,2.132
				s-0.512,1.414-0.706,2.14c-0.194,0.725-0.354,1.505-0.478,2.342h-2.354c0.133-0.794,0.31-1.559,0.528-2.296
				c0.218-0.736,0.472-1.451,0.759-2.143c0.288-0.691,0.606-1.365,0.955-2.021c0.35-0.656,0.72-1.298,1.109-1.925h-4.748V46.6h7.115
				V47.897z"/>
			<path fill="#C71919" d="M630.424,46.371v10.453h-2.246V48.91c-0.123,0.109-0.27,0.213-0.438,0.31
				c-0.169,0.098-0.349,0.186-0.538,0.264c-0.19,0.079-0.388,0.146-0.592,0.2c-0.205,0.055-0.406,0.094-0.605,0.117v-1.896
				c0.584-0.171,1.135-0.39,1.654-0.656c0.518-0.266,0.985-0.558,1.404-0.877H630.424z"/>
			<path fill="#C71919" d="M633.725,56.489v-1.961c0.686,0.499,1.484,0.749,2.396,0.749c0.575,0,1.023-0.124,1.344-0.371
				c0.321-0.247,0.481-0.592,0.481-1.034c0-0.456-0.198-0.808-0.595-1.055c-0.397-0.247-0.943-0.371-1.637-0.371h-0.949v-1.726
				h0.878c1.331,0,1.996-0.442,1.996-1.326c0-0.832-0.511-1.248-1.532-1.248c-0.686,0-1.351,0.222-1.997,0.663v-1.839
				c0.718-0.361,1.554-0.542,2.51-0.542c1.046,0,1.86,0.235,2.442,0.706c0.582,0.47,0.873,1.081,0.873,1.832
				c0,1.336-0.678,2.173-2.031,2.51v0.036c0.722,0.09,1.292,0.353,1.711,0.787c0.418,0.436,0.627,0.969,0.627,1.601
				c0,0.956-0.35,1.712-1.048,2.268c-0.698,0.557-1.664,0.835-2.896,0.835C635.244,57.003,634.387,56.831,633.725,56.489z"/>
			<path fill="#C71919" d="M643.244,57.003c-0.371,0-0.68-0.114-0.927-0.343s-0.371-0.509-0.371-0.841
				c0-0.343,0.128-0.623,0.382-0.842s0.571-0.328,0.951-0.328c0.386,0,0.7,0.11,0.945,0.332c0.244,0.221,0.367,0.5,0.367,0.838
				c0,0.347-0.125,0.631-0.375,0.852C643.968,56.892,643.644,57.003,643.244,57.003z"/>
			<path fill="#C71919" d="M653.048,47.897c-0.456,0.822-0.865,1.594-1.226,2.313c-0.361,0.721-0.681,1.431-0.956,2.132
				c-0.276,0.701-0.511,1.414-0.706,2.14c-0.195,0.725-0.354,1.505-0.478,2.342h-2.353c0.133-0.794,0.309-1.559,0.527-2.296
				c0.219-0.736,0.472-1.451,0.76-2.143c0.287-0.691,0.605-1.365,0.955-2.021s0.719-1.298,1.108-1.925h-4.749V46.6h7.116V47.897z"/>
			<path fill="#C71919" d="M654.48,56.489v-1.961c0.686,0.499,1.484,0.749,2.396,0.749c0.575,0,1.023-0.124,1.344-0.371
				c0.321-0.247,0.481-0.592,0.481-1.034c0-0.456-0.198-0.808-0.595-1.055c-0.397-0.247-0.943-0.371-1.637-0.371h-0.949v-1.726
				h0.878c1.331,0,1.996-0.442,1.996-1.326c0-0.832-0.511-1.248-1.532-1.248c-0.686,0-1.351,0.222-1.997,0.663v-1.839
				c0.718-0.361,1.554-0.542,2.51-0.542c1.046,0,1.86,0.235,2.442,0.706c0.582,0.47,0.873,1.081,0.873,1.832
				c0,1.336-0.678,2.173-2.031,2.51v0.036c0.722,0.09,1.292,0.353,1.711,0.787c0.418,0.436,0.627,0.969,0.627,1.601
				c0,0.956-0.35,1.712-1.048,2.268c-0.698,0.557-1.664,0.835-2.896,0.835C656,57.003,655.143,56.831,654.48,56.489z"/>
			<path fill="#C71919" d="M669.846,47.897c-0.455,0.822-0.865,1.594-1.226,2.313c-0.361,0.721-0.681,1.431-0.956,2.132
				s-0.511,1.414-0.705,2.14c-0.195,0.725-0.354,1.505-0.479,2.342h-2.353c0.133-0.794,0.31-1.559,0.528-2.296
				c0.218-0.736,0.471-1.451,0.759-2.143s0.606-1.365,0.955-2.021c0.35-0.656,0.72-1.298,1.108-1.925h-4.748V46.6h7.115V47.897z"/>
			<path fill="#C71919" d="M672.398,57.003c-0.37,0-0.68-0.114-0.926-0.343c-0.248-0.229-0.371-0.509-0.371-0.841
				c0-0.343,0.127-0.623,0.381-0.842s0.572-0.328,0.952-0.328c0.386,0,0.7,0.11,0.944,0.332c0.245,0.221,0.367,0.5,0.367,0.838
				c0,0.347-0.125,0.631-0.374,0.852S672.799,57.003,672.398,57.003z"/>
			<path fill="#C71919" d="M675.416,56.561v-1.925c0.698,0.428,1.441,0.642,2.23,0.642c0.595,0,1.06-0.142,1.395-0.425
				c0.335-0.282,0.502-0.666,0.502-1.151c0-1.013-0.715-1.519-2.146-1.519c-0.528,0-1.136,0.04-1.825,0.121l0.385-5.704h5.412v1.84
				h-3.693l-0.143,2.046c0.365-0.028,0.682-0.043,0.948-0.043c1.05,0,1.872,0.276,2.467,0.827c0.595,0.552,0.892,1.293,0.892,2.225
				c0,1.032-0.354,1.874-1.063,2.528c-0.709,0.653-1.668,0.98-2.881,0.98C676.912,57.003,676.086,56.855,675.416,56.561z"/>
			<path fill="#C71919" d="M686.944,57.003c-2.434,0-3.65-1.709-3.65-5.127c0-1.773,0.329-3.124,0.987-4.054
				c0.658-0.929,1.612-1.394,2.863-1.394c2.376,0,3.564,1.737,3.564,5.212c0,1.73-0.324,3.057-0.973,3.979
				C689.087,56.541,688.156,57.003,686.944,57.003z M687.044,48.146c-0.974,0-1.462,1.225-1.462,3.673
				c0,2.305,0.479,3.458,1.434,3.458c0.932,0,1.397-1.188,1.397-3.565S687.957,48.146,687.044,48.146z"/>
			<path fill="#C71919" d="M692.035,56.489v-1.961c0.685,0.499,1.483,0.749,2.396,0.749c0.574,0,1.022-0.124,1.344-0.371
				c0.32-0.247,0.48-0.592,0.48-1.034c0-0.456-0.197-0.808-0.595-1.055s-0.942-0.371-1.636-0.371h-0.949v-1.726h0.877
				c1.331,0,1.996-0.442,1.996-1.326c0-0.832-0.51-1.248-1.532-1.248c-0.685,0-1.351,0.222-1.997,0.663v-1.839
				c0.719-0.361,1.555-0.542,2.51-0.542c1.047,0,1.86,0.235,2.442,0.706c0.583,0.47,0.874,1.081,0.874,1.832
				c0,1.336-0.678,2.173-2.032,2.51v0.036c0.722,0.09,1.292,0.353,1.711,0.787c0.419,0.436,0.628,0.969,0.628,1.601
				c0,0.956-0.35,1.712-1.049,2.268c-0.698,0.557-1.664,0.835-2.895,0.835C693.555,57.003,692.696,56.831,692.035,56.489z"/>
			<path fill="#C71919" d="M707.516,53.423c0,0.504-0.088,0.975-0.265,1.412c-0.176,0.438-0.421,0.816-0.734,1.138
				c-0.313,0.32-0.687,0.572-1.119,0.755c-0.433,0.184-0.905,0.275-1.419,0.275c-0.575,0-1.09-0.107-1.544-0.321
				s-0.837-0.524-1.151-0.931c-0.313-0.406-0.554-0.904-0.721-1.493c-0.166-0.59-0.249-1.258-0.249-2.004
				c0-0.88,0.108-1.677,0.325-2.393c0.216-0.715,0.524-1.327,0.926-1.836c0.402-0.509,0.889-0.901,1.459-1.18
				s1.212-0.417,1.925-0.417c0.789,0,1.402,0.093,1.839,0.278v1.882c-0.518-0.295-1.083-0.442-1.696-0.442
				c-0.38,0-0.726,0.074-1.034,0.222s-0.574,0.356-0.795,0.627c-0.221,0.271-0.395,0.598-0.521,0.98s-0.193,0.81-0.203,1.28h0.043
				c0.485-0.671,1.2-1.006,2.146-1.006c0.424,0,0.807,0.076,1.148,0.229s0.635,0.367,0.877,0.646
				c0.242,0.277,0.43,0.611,0.563,1.001C707.448,52.516,707.516,52.948,707.516,53.423z M705.313,53.565
				c0-1.098-0.449-1.646-1.348-1.646c-0.205,0-0.391,0.038-0.557,0.114c-0.166,0.075-0.309,0.183-0.428,0.32
				s-0.211,0.301-0.275,0.488c-0.063,0.188-0.096,0.396-0.096,0.624c0,0.252,0.033,0.487,0.1,0.706s0.16,0.41,0.281,0.574
				c0.122,0.164,0.266,0.293,0.432,0.389c0.167,0.095,0.352,0.143,0.557,0.143c0.204,0,0.389-0.042,0.553-0.125s0.305-0.2,0.42-0.35
				c0.117-0.149,0.206-0.33,0.268-0.542C705.281,54.05,705.313,53.817,705.313,53.565z"/>
		</g>
	</g>
</g>
</svg>
